<svg xmlns="http://www.w3.org/2000/svg" viewBox="0 0 34.75 36.9"><title>change-small</title><g id="圖例們"><path d="M28.57,9.73,22.93,4.38a.76.76,0,0,0-1.29.56V7.32H9.27a3.6,3.6,0,0,0-3.6,3.6h0a3.6,3.6,0,0,0,3.6,3.6H21.64V16.9a.76.76,0,0,0,1.29.56l5.64-5.35A1.64,1.64,0,0,0,28.57,9.73Z" fill="#fff" stroke="#3a494f" stroke-miterlimit="10" stroke-width="1.76"/><path d="M6.18,24.79l5.64-5.35a.76.76,0,0,1,1.29.55v2.38H25.48A3.61,3.61,0,0,1,29.08,26h0a3.6,3.6,0,0,1-3.6,3.6H13.11V32a.77.77,0,0,1-1.29.56L6.18,27.16A1.63,1.63,0,0,1,6.18,24.79Z" fill="#fff" stroke="#3a494f" stroke-miterlimit="10" stroke-width="1.76"/></g></svg>