<svg xmlns="http://www.w3.org/2000/svg" viewBox="0 0 52.5 55.74"><title>change-big</title><g id="圖例們"><path d="M41,16.42l-7.41-7a1,1,0,0,0-1.7.73v3.13H15.61A4.74,4.74,0,0,0,10.87,18h0a4.74,4.74,0,0,0,4.74,4.73H31.85v3.13a1,1,0,0,0,1.7.73l7.41-7A2.16,2.16,0,0,0,41,16.42Z" fill="#fff" stroke="#3a494f" stroke-miterlimit="10" stroke-width="2.32"/><path d="M11.54,36.21l7.41-7a1,1,0,0,1,1.7.73V33H36.89a4.74,4.74,0,0,1,4.74,4.73h0a4.74,4.74,0,0,1-4.74,4.74H20.65v3.13a1,1,0,0,1-1.7.73l-7.41-7A2.15,2.15,0,0,1,11.54,36.21Z" fill="#fff" stroke="#3a494f" stroke-miterlimit="10" stroke-width="2.32"/></g></svg>