<svg xmlns="http://www.w3.org/2000/svg" viewBox="0 0 489.11 253.81"><title>hero</title><g id="圖_主標主圖"><path d="M58.39,68.53,21,78.77a13.31,13.31,0,0,0-9.82,14.84,13.18,13.18,0,0,0,3.09,6.52,1,1,0,0,1-.48,1.7h0a10.11,10.11,0,0,0-7.54,10.83A9.9,9.9,0,0,0,18.65,121l15.25-4.18a10,10,0,0,0,7.51-9.63,9.92,9.92,0,0,0-1.63-5.4.79.79,0,0,1,.45-1.21l24.7-6.75a13.29,13.29,0,0,0,9.91-14A13.07,13.07,0,0,0,58.39,68.53Z" fill="#828282" stroke="#3a494f" stroke-miterlimit="10" stroke-width="2.5"/><rect x="47.57" y="54.91" width="23.22" height="19.75" rx="8.46" ry="8.46" transform="translate(-15 17.91) rotate(-15.3)" fill="#828282" stroke="#3a494f" stroke-miterlimit="10" stroke-width="2.5"/><path d="M127.91,21.26,99.25,29.1a8.19,8.19,0,0,0-6.12,8.2,8,8,0,0,0,.65,2.77,1.49,1.49,0,0,1-1,2.06l-5.68,1.56a10.12,10.12,0,0,0-7.41,11.65,9.79,9.79,0,0,0,1.66,3.78,1.13,1.13,0,0,1-.35,1.65,8.81,8.81,0,0,0-4,9.92h0A8.7,8.7,0,0,0,85,77.19,8.85,8.85,0,0,0,94,66h0a8.75,8.75,0,0,0-1.15-2.54.64.64,0,0,1,.37-1l19.53-5.36a.64.64,0,0,1,.81.65,8.63,8.63,0,0,0,.3,2.79h0a8.73,8.73,0,0,0,7.93,6.5A8.85,8.85,0,0,0,130.91,56h0a8.8,8.8,0,0,0-9.13-6.46,1.13,1.13,0,0,1-1.22-1.23,10,10,0,0,0-1.49-6,1.48,1.48,0,0,1,.86-2.22l11.87-3.25a8.2,8.2,0,0,0,6-9.67A8,8,0,0,0,127.91,21.26Z" fill="#828282" stroke="#3a494f" stroke-miterlimit="10" stroke-width="2.5"/><rect x="145.8" y="13.92" width="16.71" height="11.67" rx="5.83" ry="5.83" transform="matrix(0.96, -0.26, 0.26, 0.96, 0.25, 41.38)" fill="#828282" stroke="#3a494f" stroke-miterlimit="10" stroke-width="2.5"/><rect x="103.7" y="112.68" width="15.25" height="91.61" transform="matrix(0.96, -0.26, 0.26, 0.96, -37.88, 34.99)" fill="#fff" stroke="#3a494f" stroke-miterlimit="10" stroke-width="2.5"/><path d="M91.35,68.59l-8.6,2.35a3.16,3.16,0,0,0-2.22,3.89l5.47,20,14.71-4-5.47-20A3.17,3.17,0,0,0,91.35,68.59Z" fill="#fff" stroke="#3a494f" stroke-miterlimit="10" stroke-width="2.5"/><rect x="85.97" y="92.74" width="15.91" height="4.36" transform="matrix(0.96, -0.26, 0.26, 0.96, -21.72, 28.15)" fill="#828282" stroke="#3a494f" stroke-miterlimit="10" stroke-width="2.1"/><rect x="88.67" y="96.78" width="15.25" height="13.56" transform="translate(-23.92 29.08) rotate(-15.3)" fill="#fff" stroke="#3a494f" stroke-miterlimit="10" stroke-width="2.5"/><rect x="90.7" y="110.02" width="15.91" height="4.36" transform="translate(-26.11 30.01) rotate(-15.3)" fill="#828282" stroke="#3a494f" stroke-miterlimit="10" stroke-width="2.1"/><rect x="121.93" y="87.68" width="15.25" height="13.56" transform="translate(-20.33 37.54) rotate(-15.3)" fill="#fff" stroke="#3a494f" stroke-miterlimit="10" stroke-width="2.5"/><rect x="136.96" y="103.58" width="15.25" height="91.61" transform="translate(-34.3 43.45) rotate(-15.3)" fill="#fff" stroke="#3a494f" stroke-miterlimit="10" stroke-width="2.5"/><path d="M124.61,59.49,116,61.84a3.16,3.16,0,0,0-2.22,3.89l5.47,20,14.71-4-5.47-20A3.17,3.17,0,0,0,124.61,59.49Z" fill="#fff" stroke="#3a494f" stroke-miterlimit="10" stroke-width="2.5"/><rect x="119.23" y="83.64" width="15.91" height="4.36" transform="translate(-18.14 36.61) rotate(-15.3)" fill="#828282" stroke="#3a494f" stroke-miterlimit="10" stroke-width="2.1"/><rect x="123.96" y="100.92" width="15.91" height="4.36" transform="translate(-22.53 38.47) rotate(-15.3)" fill="#828282" stroke="#3a494f" stroke-miterlimit="10" stroke-width="2.1"/><path d="M171,150.34,168.69,142a6,6,0,0,0-7.3-4.17L71.1,162.52l4.82,17.64,6.73,24.57L85,213.19,191.55,184a6.62,6.62,0,0,0,4.64-8.13l-5.54-20.25a6.63,6.63,0,0,0-8.14-4.64l-7,1.92A3.69,3.69,0,0,1,171,150.34Z" fill="#828282" stroke="#39484e" stroke-miterlimit="10" stroke-width="2.5"/><path d="M116.91,198.82a232.17,232.17,0,0,1-46.87-81l-62,17a231.94,231.94,0,0,1,1,93.52,3.92,3.92,0,0,0,4.88,4.53L64.4,219.06,115,205.21A3.92,3.92,0,0,0,116.91,198.82Z" fill="#ccc" stroke="#39484e" stroke-miterlimit="10" stroke-width="2.5"/><path d="M66.43,106a2.46,2.46,0,0,0-3-1.72L6.82,119.75a2.46,2.46,0,0,0-1.72,3q1.64,6,2.94,12l62-17Q68.08,112,66.43,106Z" fill="#828282" stroke="#39484e" stroke-miterlimit="10" stroke-width="2.5"/><rect x="117.43" y="178.31" width="10.8" height="3.54" rx="1.52" ry="1.52" transform="translate(-43.17 38.8) rotate(-15.3)" fill="#fff" stroke="#fff" stroke-miterlimit="10" stroke-width="0.08"/><rect x="136.48" y="173.1" width="10.8" height="3.54" rx="1.52" ry="1.52" transform="translate(-41.12 43.64) rotate(-15.3)" fill="#fff" stroke="#fff" stroke-miterlimit="10" stroke-width="0.08"/><rect x="113.83" y="165.15" width="10.8" height="3.54" rx="1.52" ry="1.52" transform="translate(-39.82 37.38) rotate(-15.3)" fill="#fff" stroke="#fff" stroke-miterlimit="10" stroke-width="0.08"/><rect x="132.87" y="159.94" width="10.8" height="3.54" rx="1.52" ry="1.52" transform="matrix(0.96, -0.26, 0.26, 0.96, -37.77, 42.22)" fill="#fff" stroke="#fff" stroke-miterlimit="10" stroke-width="0.08"/><rect x="154.75" y="168.19" width="10.8" height="3.54" rx="1.52" ry="1.52" transform="translate(-39.17 48.29) rotate(-15.3)" fill="#fff" stroke="#fff" stroke-miterlimit="10" stroke-width="0.08"/><circle cx="144.51" cy="77.16" r="5.41" fill="#828282" stroke="#3a494f" stroke-miterlimit="10" stroke-width="2.5"/><path d="M61.63,175.28h0c-1.55-5.67-11.16-17.38-14.24-21a.65.65,0,0,0-1.2.33c-.8,4.72-3.1,19.69-1.55,25.36h0c.06.3.13.61.21.92,1.65,6,6.79,9.81,11.5,8.52s7.2-7.19,5.56-13.19C61.83,175.87,61.73,175.58,61.63,175.28Z" fill="#828282" stroke="#8f4845" stroke-miterlimit="10" stroke-width="0.22"/><path d="M57.61,183.81h0c-.62-2.26-3.88-7.08-4.93-8.59-.15-.21-.35-.16-.37.1-.13,1.83-.49,7.64.13,9.9h0c0,.12.05.25.09.37.65,2.39,2.34,4,3.78,3.61s2.06-2.64,1.41-5C57.69,184,57.65,183.93,57.61,183.81Z" fill="#fff" stroke="#828282" stroke-miterlimit="10" stroke-width="0.11"/><path d="M390.45,191h10.16a0,0,0,0,1,0,0v38.24a2.09,2.09,0,0,1-2.09,2.09h-6a2.09,2.09,0,0,1-2.09-2.09V191a0,0,0,0,1,0,0Z" transform="translate(45.93 -69.57) rotate(10.67)" fill="#ccc" stroke="#3a494f" stroke-miterlimit="10" stroke-width="2.58"/><rect x="337.15" y="88.84" width="142.9" height="106.05" rx="4.53" ry="4.53" transform="translate(33.32 -73.19) rotate(10.67)" fill="#ccc" stroke="#3a494f" stroke-miterlimit="10" stroke-width="2.49"/><rect x="342.52" y="93.8" width="132.15" height="96.14" rx="4.15" ry="4.15" transform="translate(33.32 -73.19) rotate(10.67)" fill="#fff" stroke="#3a494f" stroke-miterlimit="10" stroke-width="2.49"/><rect x="355.24" y="93.34" width="22.15" height="22.15" rx="3.3" ry="3.3" transform="translate(25.66 -66.01) rotate(10.67)" fill="#27c1ae" stroke="#3a494f" stroke-miterlimit="10" stroke-width="2.49"/><rect x="387" y="99.33" width="22.15" height="22.15" rx="3.3" ry="3.3" transform="translate(27.32 -71.78) rotate(10.67)" fill="#27c1ae" stroke="#3a494f" stroke-miterlimit="10" stroke-width="2.49"/><rect x="418.76" y="105.31" width="22.15" height="22.15" rx="3.3" ry="3.3" transform="translate(28.97 -77.56) rotate(10.67)" fill="#27c1ae" stroke="#3a494f" stroke-miterlimit="10" stroke-width="2.49"/><rect x="450.52" y="111.29" width="22.15" height="22.15" rx="3.3" ry="3.3" transform="translate(30.63 -83.33) rotate(10.67)" fill="#27c1ae" stroke="#3a494f" stroke-miterlimit="10" stroke-width="2.49"/><rect x="349.88" y="121.81" width="22.15" height="22.15" rx="3.3" ry="3.3" transform="translate(30.84 -64.52) rotate(10.67)" fill="#27c1ae" stroke="#3a494f" stroke-miterlimit="10" stroke-width="2.49"/><rect x="381.64" y="127.79" width="22.15" height="22.15" rx="3.3" ry="3.3" transform="translate(32.49 -70.3) rotate(10.67)" fill="#27c1ae" stroke="#3a494f" stroke-miterlimit="10" stroke-width="2.49"/><rect x="413.4" y="133.78" width="22.15" height="22.15" rx="3.3" ry="3.3" transform="translate(34.15 -76.07) rotate(10.67)" fill="#27c1ae" stroke="#3a494f" stroke-miterlimit="10" stroke-width="2.49"/><rect x="445.16" y="139.76" width="22.15" height="22.15" rx="3.3" ry="3.3" transform="translate(35.81 -81.85) rotate(10.67)" fill="#27c1ae" stroke="#3a494f" stroke-miterlimit="10" stroke-width="2.49"/><rect x="344.52" y="150.28" width="22.15" height="22.15" rx="3.3" ry="3.3" transform="translate(36.02 -63.04) rotate(10.67)" fill="#27c1ae" stroke="#3a494f" stroke-miterlimit="10" stroke-width="2.49"/><rect x="376.28" y="156.26" width="22.15" height="22.15" rx="3.3" ry="3.3" transform="translate(37.67 -68.81) rotate(10.67)" fill="#27c1ae" stroke="#3a494f" stroke-miterlimit="10" stroke-width="2.49"/><rect x="408.04" y="162.25" width="22.15" height="22.15" rx="3.3" ry="3.3" transform="translate(39.33 -74.59) rotate(10.67)" fill="#27c1ae" stroke="#3a494f" stroke-miterlimit="10" stroke-width="2.49"/><rect x="439.8" y="168.23" width="22.15" height="22.15" rx="3.3" ry="3.3" transform="translate(40.98 -80.36) rotate(10.67)" fill="#27c1ae" stroke="#3a494f" stroke-miterlimit="10" stroke-width="2.49"/><line x1="405.53" y1="104.6" x2="388.86" y2="115.22" fill="none" stroke="#fff" stroke-miterlimit="10" stroke-width="1.24"/><line x1="403.52" y1="112.06" x2="396.47" y2="116.55" fill="none" stroke="#fff" stroke-miterlimit="10" stroke-width="1.24"/><line x1="426.56" y1="167.85" x2="409.9" y2="178.47" fill="none" stroke="#fff" stroke-miterlimit="10" stroke-width="1.24"/><line x1="424.55" y1="175.3" x2="417.5" y2="179.79" fill="none" stroke="#fff" stroke-miterlimit="10" stroke-width="1.24"/><line x1="469.04" y1="116.57" x2="452.37" y2="127.19" fill="none" stroke="#fff" stroke-miterlimit="10" stroke-width="1.24"/><line x1="467.03" y1="124.02" x2="459.98" y2="128.51" fill="none" stroke="#fff" stroke-miterlimit="10" stroke-width="1.24"/><line x1="363.09" y1="155.89" x2="346.43" y2="166.51" fill="none" stroke="#fff" stroke-miterlimit="10" stroke-width="1.24"/><line x1="361.08" y1="163.34" x2="354.03" y2="167.84" fill="none" stroke="#fff" stroke-miterlimit="10" stroke-width="1.24"/><polygon points="318.55 75.26 316.1 74.32 314.71 73.79 312.26 72.84 266.15 185.43 277.4 189.76 318.55 75.26" fill="#fff" stroke="#3a494f" stroke-miterlimit="10" stroke-width="2.6"/><path d="M266.15,185.43l-8.19,20a3.59,3.59,0,0,0,2,4.71l2,.78,1.39.53,2,.78a3.6,3.6,0,0,0,4.67-2.14l7.31-20.34Z" fill="#828282" stroke="#3a494f" stroke-miterlimit="10" stroke-width="2.6"/><path d="M343,13.38a.3.3,0,0,0-.51-.24A108.9,108.9,0,0,0,316.36,70L316,72.29l1.48-1.72A108.89,108.89,0,0,0,343,13.38Z" fill="#fff" stroke="#3a494f" stroke-miterlimit="10" stroke-width="2.6"/><path d="M357.54,127.6a.29.29,0,0,1-.46.33,127.86,127.86,0,0,1-39.88-55l-.86-2.29,1.89,1.55A127.83,127.83,0,0,1,357.54,127.6Z" fill="#fff" stroke="#3a494f" stroke-miterlimit="10" stroke-width="2.6"/><path d="M246.22,77.33a.29.29,0,0,0,.05.56A127.87,127.87,0,0,0,314,71.57l2.29-.86-2.42-.4A127.76,127.76,0,0,0,246.22,77.33Z" fill="#fff" stroke="#3a494f" stroke-miterlimit="10" stroke-width="2.6"/><circle cx="315.73" cy="71.93" r="6.41" fill="#ccc" stroke="#3a494f" stroke-miterlimit="10" stroke-width="2.6"/><path d="M340.38,194.53s-26.54-34-46.08-46.52a43.17,43.17,0,0,0-32.44-6.28,67.87,67.87,0,0,0-31,.41l.1-.12s-16.29-5.14-33.59,6c-19.53,12.56-46.08,46.52-46.08,46.52l22.57,17.83,5.63-6.93c0,.84-.06,1.68-.06,2.52v44.61H315.1V209l2.71,3.34Z" fill="#ccc" stroke="#3a494f" stroke-miterlimit="10" stroke-width="2.5"/><path d="M247.85,219.76c12.33-14.23,21.31-34.86,23.8-40.92a4,4,0,0,0-.17-3.36l-2.12-3.94a1,1,0,0,1,.71-1.51l2.46-.51a4.64,4.64,0,0,0,3.33-2.71l9.93-23L270.09,139l-21.24,63.43-1.09,17.27C247.76,219.77,247.82,219.8,247.85,219.76Z" fill="#fff" stroke="#3a494f" stroke-miterlimit="10" stroke-width="1.7"/><path d="M244.93,219.76c-12.33-14.23-21.31-34.86-23.8-40.92a3.92,3.92,0,0,1,.17-3.36l2.12-3.94a1,1,0,0,0-.71-1.51l-2.46-.51a4.63,4.63,0,0,1-3.33-2.71l-9.93-23,15.7-4.82,21.23,63.43,1.1,17.27C245,219.77,245,219.8,244.93,219.76Z" fill="#fff" stroke="#3a494f" stroke-miterlimit="10" stroke-width="1.7"/><path d="M223.38,145.62,245,219.88a1.45,1.45,0,0,0,2.79,0L269,146.25" fill="#fff" stroke="#3a494f" stroke-miterlimit="10" stroke-width="1.7"/><path d="M246.87,149.07l7,10.5a3.23,3.23,0,0,0,5.34.06l9.34-13.38Z" fill="#27c1ae" stroke="#3a494f" stroke-miterlimit="10" stroke-width="1.7"/><path d="M245.86,149.07l-7,10.5a3.22,3.22,0,0,1-5.33.06l-9.35-13.38Z" fill="#27c1ae" stroke="#3a494f" stroke-miterlimit="10" stroke-width="1.7"/><path d="M160.27,189l66-16.22,7.82,18.71L170,218.72a15.61,15.61,0,0,1-19.43-6.23h0A15.76,15.76,0,0,1,160.27,189Z" fill="#ccc" stroke="#3a494f" stroke-miterlimit="10" stroke-width="2.5"/><line x1="246.21" y1="154.88" x2="246.21" y2="209.53" fill="none" stroke="#3a494f" stroke-miterlimit="10" stroke-width="1.7"/><circle cx="246.21" cy="164.79" r="1.71" fill="#fff" stroke="#3a494f" stroke-miterlimit="10" stroke-width="1.7"/><circle cx="246.21" cy="178.56" r="1.71" fill="#fff" stroke="#3a494f" stroke-miterlimit="10" stroke-width="1.7"/><rect x="204.32" y="161.85" width="41.3" height="19.56" rx="0.57" ry="0.57" transform="translate(167.25 -105.39) rotate(40.89)" fill="#828282" stroke="#3a494f" stroke-miterlimit="10" stroke-width="0.97"/><rect x="206.47" y="163.77" width="37" height="15.71" rx="0.57" ry="0.57" transform="translate(167.25 -105.39) rotate(40.89)" fill="#fff" stroke="#3a494f" stroke-miterlimit="10" stroke-width="0.82"/><circle cx="224.97" cy="171.63" r="6.01" fill="#27c1ae" stroke="#39484e" stroke-miterlimit="10" stroke-width="0.93"/><path d="M227.78,170.35a.34.34,0,0,1-.09.29.33.33,0,0,1-.25.13.35.35,0,0,1-.27-.08h0a.41.41,0,0,1-.13-.23,1.35,1.35,0,0,0-.44-.73.9.9,0,0,0-.62-.25.81.81,0,0,0-.56.29.78.78,0,0,0-.17.37,1,1,0,0,0,0,.41q.06.21.15.45c.06.16.13.33.2.49a2.21,2.21,0,0,1,.18.51,3.34,3.34,0,0,1,.09.52,1.33,1.33,0,0,1-.09.54,1.64,1.64,0,0,1-.32.55,1.6,1.6,0,0,1-2.14.35s-.06,0-.09,0l-.36.41a.32.32,0,0,1-.22.12.36.36,0,0,1-.25-.08.34.34,0,0,1-.11-.23.31.31,0,0,1,.08-.24l.34-.4s0-.06,0-.08a2.87,2.87,0,0,1-.62-1.17.35.35,0,0,1,0-.3l.05-.06a.39.39,0,0,1,.2-.13.33.33,0,0,1,.29,0l.06,0a.45.45,0,0,1,.11.19,2,2,0,0,0,.59,1,1,1,0,0,0,.68.3.82.82,0,0,0,.6-.32,1,1,0,0,0,.22-.47,1.28,1.28,0,0,0,0-.51,5,5,0,0,0-.19-.54c-.08-.19-.15-.38-.22-.58a3.1,3.1,0,0,1-.15-.58,1.23,1.23,0,0,1,0-.6,1.43,1.43,0,0,1,.31-.58,1.59,1.59,0,0,1,1-.56,1.64,1.64,0,0,1,1.08.22s.06,0,.09,0l.36-.41a.31.31,0,0,1,.22-.11.3.3,0,0,1,.24.08.33.33,0,0,1,0,.47l-.35.4a.06.06,0,0,0,0,.09A2.06,2.06,0,0,1,227.78,170.35Z" fill="#fff"/><rect x="210.33" y="159.38" width="41.3" height="19.56" rx="0.57" ry="0.57" transform="translate(249.09 -116.57) rotate(57.41)" fill="#828282" stroke="#3a494f" stroke-miterlimit="10" stroke-width="0.97"/><rect x="212.48" y="161.31" width="37" height="15.71" rx="0.57" ry="0.57" transform="translate(249.09 -116.57) rotate(57.41)" fill="#fff" stroke="#3a494f" stroke-miterlimit="10" stroke-width="0.82"/><circle cx="230.98" cy="169.16" r="6.01" fill="#27c1ae" stroke="#39484e" stroke-miterlimit="10" stroke-width="0.93"/><path d="M234.05,168.81a.35.35,0,0,1-.16.26.38.38,0,0,1-.28.05.41.41,0,0,1-.24-.16v0a.36.36,0,0,1-.06-.25,1.37,1.37,0,0,0-.22-.83.86.86,0,0,0-.52-.41.77.77,0,0,0-.61.12.7.7,0,0,0-.28.31,1.24,1.24,0,0,0-.09.4c0,.14,0,.29,0,.47a4.6,4.6,0,0,0,.06.52,4.89,4.89,0,0,1,0,.54,4.25,4.25,0,0,1-.07.53,1.43,1.43,0,0,1-.24.5,1.7,1.7,0,0,1-.46.42,1.68,1.68,0,0,1-1.12.29,1.72,1.72,0,0,1-1-.55s-.06,0-.09,0l-.47.29a.31.31,0,0,1-.25.05.28.28,0,0,1-.2-.15.31.31,0,0,1,0-.25.32.32,0,0,1,.15-.21l.44-.28a0,0,0,0,0,0-.08,3.12,3.12,0,0,1-.27-1.3.41.41,0,0,1,.13-.28l.06,0a.39.39,0,0,1,.24-.06.34.34,0,0,1,.26.12s0,0,0,.06a.37.37,0,0,1,.06.21,2,2,0,0,0,.28,1.11,1,1,0,0,0,.57.48.8.8,0,0,0,.67-.13.91.91,0,0,0,.34-.39,1.35,1.35,0,0,0,.11-.5q0-.27,0-.57c0-.21,0-.41-.05-.62a3.92,3.92,0,0,1,0-.6,1.31,1.31,0,0,1,.2-.56,1.25,1.25,0,0,1,.47-.47,1.54,1.54,0,0,1,2.05.25s.05,0,.09,0l.46-.29a.31.31,0,0,1,.25,0,.28.28,0,0,1,.2.15.32.32,0,0,1-.1.46l-.45.28a.08.08,0,0,0,0,.09A1.93,1.93,0,0,1,234.05,168.81Z" fill="#fff"/><rect x="218.54" y="158.18" width="41.3" height="19.56" rx="0.57" ry="0.57" transform="translate(357.24 -99.4) rotate(78.75)" fill="#828282" stroke="#3a494f" stroke-miterlimit="10" stroke-width="0.97"/><rect x="220.69" y="160.11" width="37" height="15.71" rx="0.57" ry="0.57" transform="matrix(0.2, 0.98, -0.98, 0.2, 357.24, -99.4)" fill="#fff" stroke="#3a494f" stroke-miterlimit="10" stroke-width="0.82"/><circle cx="239.19" cy="167.96" r="6.01" fill="#27c1ae" stroke="#39484e" stroke-miterlimit="10" stroke-width="0.93"/><path d="M242.08,168.74a.36.36,0,0,1-.51.13.31.31,0,0,1-.17-.23v0a.39.39,0,0,1,0-.26,1.45,1.45,0,0,0,.1-.85.91.91,0,0,0-.34-.57.73.73,0,0,0-.62-.11.69.69,0,0,0-.36.18.89.89,0,0,0-.23.34c0,.13-.11.28-.16.45s-.1.33-.14.51a2.54,2.54,0,0,1-.17.51,2.25,2.25,0,0,1-.25.46,1.33,1.33,0,0,1-.4.38,1.83,1.83,0,0,1-1.73.09,1.69,1.69,0,0,1-.76-.89s0-.05-.09,0l-.54.1a.26.26,0,0,1-.24,0,.28.28,0,0,1-.14-.21.29.29,0,0,1,0-.24.38.38,0,0,1,.21-.15l.52-.1s.06,0,.05-.07a3.1,3.1,0,0,1,.22-1.3.4.4,0,0,1,.22-.22h.07a.42.42,0,0,1,.25,0,.38.38,0,0,1,.2.21.64.64,0,0,1,0,.07.42.42,0,0,1,0,.22,2,2,0,0,0-.15,1.14,1,1,0,0,0,.36.66.83.83,0,0,0,.67.11.88.88,0,0,0,.45-.23,1.42,1.42,0,0,0,.29-.43,3.94,3.94,0,0,0,.18-.55l.18-.59a4,4,0,0,1,.24-.55,1.2,1.2,0,0,1,.39-.45,1.38,1.38,0,0,1,.6-.27,1.63,1.63,0,0,1,1.1.14,1.67,1.67,0,0,1,.72.84s0,.05.09,0l.53-.1a.32.32,0,0,1,.25.05.34.34,0,0,1,.14.21.37.37,0,0,1-.05.25.34.34,0,0,1-.21.14l-.53.1a.07.07,0,0,0-.06.07A1.92,1.92,0,0,1,242.08,168.74Z" fill="#fff"/><rect x="226.84" y="159.68" width="41.3" height="19.56" rx="0.57" ry="0.57" transform="translate(469.55 -32.17) rotate(103.36)" fill="#828282" stroke="#3a494f" stroke-miterlimit="10" stroke-width="0.97"/><rect x="228.99" y="161.6" width="37" height="15.71" rx="0.57" ry="0.57" transform="translate(469.55 -32.17) rotate(103.36)" fill="#fff" stroke="#3a494f" stroke-miterlimit="10" stroke-width="0.82"/><circle cx="247.49" cy="169.46" r="6.01" fill="#27c1ae" stroke="#39484e" stroke-miterlimit="10" stroke-width="0.93"/><path d="M249.84,171.43a.36.36,0,0,1-.3.06.38.38,0,0,1-.23-.16.35.35,0,0,1-.06-.28v0a.44.44,0,0,1,.14-.22,1.34,1.34,0,0,0,.44-.73.92.92,0,0,0-.06-.66.81.81,0,0,0-.93-.34,1.05,1.05,0,0,0-.35.21l-.33.34-.34.41a2.64,2.64,0,0,1-.36.39,2.52,2.52,0,0,1-.43.32,1.33,1.33,0,0,1-.52.18,1.7,1.7,0,0,1-.63,0,1.61,1.61,0,0,1-1.3-1.73.07.07,0,0,0-.06-.07L244,169a.32.32,0,0,1-.21-.15.31.31,0,0,1,0-.25.3.3,0,0,1,.15-.2.32.32,0,0,1,.25,0l.51.12a.06.06,0,0,0,.08,0,3,3,0,0,1,.74-1.1.38.38,0,0,1,.29-.1h.07a.38.38,0,0,1,.21.13.33.33,0,0,1,.1.27s0,.05,0,.07a.4.4,0,0,1-.11.19,2,2,0,0,0-.61,1,1,1,0,0,0,.05.74.84.84,0,0,0,.56.39.88.88,0,0,0,.51,0,1.34,1.34,0,0,0,.44-.27,5.16,5.16,0,0,0,.39-.41c.14-.16.27-.32.41-.47a3.31,3.31,0,0,1,.45-.4,1.41,1.41,0,0,1,1.2-.24,1.52,1.52,0,0,1,.94.59,1.64,1.64,0,0,1,.31,1.06s0,.06.06.07l.52.13a.34.34,0,0,1,.21.14.34.34,0,0,1,0,.26.33.33,0,0,1-.15.2.32.32,0,0,1-.25,0l-.52-.12s-.06,0-.08,0A2,2,0,0,1,249.84,171.43Z" fill="#fff"/><rect x="235.17" y="163.06" width="41.3" height="19.56" rx="0.57" ry="0.57" transform="translate(543.03 59.6) rotate(124.44)" fill="#828282" stroke="#3a494f" stroke-miterlimit="10" stroke-width="0.97"/><rect x="237.32" y="164.99" width="37" height="15.71" rx="0.57" ry="0.57" transform="translate(543.03 59.6) rotate(124.44)" fill="#fff" stroke="#3a494f" stroke-miterlimit="10" stroke-width="0.82"/><circle cx="255.81" cy="172.84" r="6.01" fill="#27c1ae" stroke="#39484e" stroke-miterlimit="10" stroke-width="0.93"/><path d="M257.36,175.46a.34.34,0,0,1-.29-.05.4.4,0,0,1-.16-.24.36.36,0,0,1,0-.28v0a.35.35,0,0,1,.22-.15,1.43,1.43,0,0,0,.67-.52.85.85,0,0,0,.17-.64.73.73,0,0,0-.35-.52.71.71,0,0,0-.38-.14,1,1,0,0,0-.41.08c-.13.05-.27.12-.43.2a5.2,5.2,0,0,0-.46.25,2.69,2.69,0,0,1-.48.24,3.94,3.94,0,0,1-.51.14,1.29,1.29,0,0,1-.55,0,1.76,1.76,0,0,1-.58-.26,1.72,1.72,0,0,1-.7-.92,1.69,1.69,0,0,1,.11-1.16.06.06,0,0,0,0-.09l-.45-.31a.35.35,0,0,1-.14-.22.29.29,0,0,1,.05-.24.32.32,0,0,1,.21-.14.3.3,0,0,1,.25.05l.44.3a.05.05,0,0,0,.08,0,3,3,0,0,1,1.09-.76.37.37,0,0,1,.31,0l.06,0a.4.4,0,0,1,.15.19.33.33,0,0,1,0,.29l0,.06a.4.4,0,0,1-.18.14,2,2,0,0,0-.91.7,1,1,0,0,0-.22.71.83.83,0,0,0,.38.56,1,1,0,0,0,.49.16,1.24,1.24,0,0,0,.5-.1,4.74,4.74,0,0,0,.52-.24c.18-.1.36-.2.55-.29A4.33,4.33,0,0,1,257,172a1.5,1.5,0,0,1,.6,0,1.44,1.44,0,0,1,.61.25,1.6,1.6,0,0,1,.66.89,1.63,1.63,0,0,1-.09,1.1s0,.06,0,.09l.44.3a.35.35,0,0,1,.14.22.32.32,0,0,1-.05.25.3.3,0,0,1-.21.13.31.31,0,0,1-.25,0l-.44-.3a.06.06,0,0,0-.09,0A2.09,2.09,0,0,1,257.36,175.46Z" fill="#fff"/><rect x="300.36" y="108.99" width="41.3" height="19.56" rx="0.57" ry="0.57" transform="translate(632.21 261.26) rotate(-175.7)" fill="#828282" stroke="#3a494f" stroke-miterlimit="10" stroke-width="0.97"/><rect x="302.51" y="110.92" width="37" height="15.71" rx="0.57" ry="0.57" transform="translate(632.21 261.26) rotate(-175.7)" fill="#fff" stroke="#3a494f" stroke-miterlimit="10" stroke-width="0.82"/><circle cx="321" cy="118.77" r="6.01" fill="#27c1ae" stroke="#39484e" stroke-miterlimit="10" stroke-width="0.93"/><path d="M319.44,121.5a.34.34,0,0,1-.11-.29.37.37,0,0,1,.12-.25.36.36,0,0,1,.27-.1h0a.44.44,0,0,1,.25.11,1.3,1.3,0,0,0,.78.32.91.91,0,0,0,.65-.17.78.78,0,0,0,.27-.57.74.74,0,0,0-.08-.39.83.83,0,0,0-.27-.32l-.38-.27-.46-.27a2.93,2.93,0,0,1-.45-.3,3.34,3.34,0,0,1-.38-.37,1.37,1.37,0,0,1-.25-.48,1.88,1.88,0,0,1-.07-.63,1.74,1.74,0,0,1,.45-1.07,1.7,1.7,0,0,1,1.06-.49s.06,0,.06-.07l0-.55a.32.32,0,0,1,.12-.22.31.31,0,0,1,.24-.08.28.28,0,0,1,.22.11.31.31,0,0,1,.08.24l0,.53a.07.07,0,0,0,.05.07,2.76,2.76,0,0,1,1.2.56.34.34,0,0,1,.15.27v.07a.5.5,0,0,1-.09.23.35.35,0,0,1-.26.13h-.07a.4.4,0,0,1-.2-.09,2,2,0,0,0-1.06-.44,1,1,0,0,0-.73.17.81.81,0,0,0-.29.61.92.92,0,0,0,.1.5,1.41,1.41,0,0,0,.34.39c.14.11.3.22.47.33s.35.21.53.33a3.49,3.49,0,0,1,.47.37,1.45,1.45,0,0,1,.33.5,1.37,1.37,0,0,1,.09.65,1.54,1.54,0,0,1-.43,1,1.6,1.6,0,0,1-1,.47.07.07,0,0,0-.06.07l-.05.54a.3.3,0,0,1-.11.23.31.31,0,0,1-.24.08.34.34,0,0,1-.31-.36l0-.53s0-.06-.05-.08A1.93,1.93,0,0,1,319.44,121.5Z" fill="#fff"/><rect x="72.78" y="18.5" width="41.3" height="19.56" rx="0.57" ry="0.57" transform="translate(190.57 18.57) rotate(157.45)" fill="#828282" stroke="#3a494f" stroke-miterlimit="10" stroke-width="0.97"/><rect x="74.93" y="20.43" width="37" height="15.71" rx="0.57" ry="0.57" transform="translate(190.57 18.57) rotate(157.45)" fill="#fff" stroke="#3a494f" stroke-miterlimit="10" stroke-width="0.82"/><circle cx="93.43" cy="28.28" r="6.01" fill="#27c1ae" stroke="#39484e" stroke-miterlimit="10" stroke-width="0.93"/><path d="M93.26,31.32a.34.34,0,0,1-.22-.2.34.34,0,0,1,0-.28.33.33,0,0,1,.19-.21h0a.36.36,0,0,1,.27,0,1.36,1.36,0,0,0,.84-.08.87.87,0,0,0,.5-.43.77.77,0,0,0,0-.63.68.68,0,0,0-.25-.32.86.86,0,0,0-.38-.16l-.47-.07-.53,0a2.46,2.46,0,0,1-.53-.06,2.76,2.76,0,0,1-.51-.16,1.21,1.21,0,0,1-.45-.32,1.67,1.67,0,0,1-.34-.53,1.71,1.71,0,0,1-.08-1.15,1.68,1.68,0,0,1,.72-.92.08.08,0,0,0,0-.09l-.22-.51a.36.36,0,0,1,0-.25.39.39,0,0,1,.18-.18.39.39,0,0,1,.26,0,.35.35,0,0,1,.18.18l.2.48c0,.05,0,.06.08,0a3.08,3.08,0,0,1,1.32,0,.35.35,0,0,1,.25.18l0,.06a.43.43,0,0,1,0,.25.33.33,0,0,1-.17.23l-.06,0a.42.42,0,0,1-.22,0,2,2,0,0,0-1.15.08,1,1,0,0,0-.57.48.78.78,0,0,0,0,.68.89.89,0,0,0,.31.4A1.34,1.34,0,0,0,93,28a4.89,4.89,0,0,0,.57.08l.62.06a2.94,2.94,0,0,1,.59.12,1.5,1.5,0,0,1,.52.29,1.37,1.37,0,0,1,.37.55,1.57,1.57,0,0,1,.08,1.1,1.64,1.64,0,0,1-.68.87.08.08,0,0,0,0,.09l.21.5a.3.3,0,0,1,0,.26.28.28,0,0,1-.18.17.31.31,0,0,1-.25,0,.32.32,0,0,1-.18-.18l-.21-.5a.06.06,0,0,0-.08,0A2,2,0,0,1,93.26,31.32Z" fill="#fff"/><rect x="385.37" y="165.39" width="41.3" height="19.56" rx="0.57" ry="0.57" transform="translate(59.6 450) rotate(-61.76)" fill="#828282" stroke="#3a494f" stroke-miterlimit="10" stroke-width="0.97"/><rect x="387.52" y="167.32" width="37" height="15.71" rx="0.57" ry="0.57" transform="translate(59.6 450) rotate(-61.76)" fill="#fff" stroke="#3a494f" stroke-miterlimit="10" stroke-width="0.82"/><circle cx="406.02" cy="175.17" r="6.01" fill="#27c1ae" stroke="#39484e" stroke-miterlimit="10" stroke-width="0.93"/><path d="M404.21,172.72a.32.32,0,0,1,.3,0,.36.36,0,0,1,.18.22.34.34,0,0,1,0,.28v0a.44.44,0,0,1-.2.18,1.34,1.34,0,0,0-.61.59.89.89,0,0,0-.11.66.76.76,0,0,0,.41.48.71.71,0,0,0,.4.09,1,1,0,0,0,.39-.12l.4-.24.43-.31a4.43,4.43,0,0,1,.46-.29,3.89,3.89,0,0,1,.49-.2,1.25,1.25,0,0,1,.55,0,1.83,1.83,0,0,1,1.39,1,1.64,1.64,0,0,1,0,1.16.07.07,0,0,0,0,.09l.49.26a.34.34,0,0,1-.06.61.34.34,0,0,1-.26,0l-.46-.25s-.07,0-.08,0a2.91,2.91,0,0,1-1,.87.42.42,0,0,1-.31,0l-.06,0a.42.42,0,0,1-.18-.17.36.36,0,0,1,0-.29l0-.07a.46.46,0,0,1,.16-.15,2,2,0,0,0,.83-.79,1,1,0,0,0,.14-.73.8.8,0,0,0-.44-.52.89.89,0,0,0-.5-.1,1.25,1.25,0,0,0-.49.14,5.6,5.6,0,0,0-.49.31l-.51.34a4.63,4.63,0,0,1-.54.28,1.41,1.41,0,0,1-.59.1,1.5,1.5,0,0,1-.63-.18,1.61,1.61,0,0,1-.76-.81,1.68,1.68,0,0,1,0-1.11.06.06,0,0,0,0-.08l-.48-.26a.33.33,0,1,1,.32-.58l.47.25a.08.08,0,0,0,.09,0A1.87,1.87,0,0,1,404.21,172.72Z" fill="#fff"/><rect x="333.16" y="202.01" width="41.3" height="19.56" rx="0.57" ry="0.57" transform="translate(-55.68 163.29) rotate(-24.15)" fill="#828282" stroke="#3a494f" stroke-miterlimit="10" stroke-width="0.97"/><rect x="335.31" y="203.93" width="37" height="15.71" rx="0.57" ry="0.57" transform="translate(-55.68 163.29) rotate(-24.15)" fill="#fff" stroke="#3a494f" stroke-miterlimit="10" stroke-width="0.82"/><circle cx="353.81" cy="211.79" r="6.01" fill="#27c1ae" stroke="#39484e" stroke-miterlimit="10" stroke-width="0.93"/><path d="M353.88,208.76a.33.33,0,0,1,.23.2.39.39,0,0,1,0,.28.34.34,0,0,1-.19.22h0a.46.46,0,0,1-.26,0,1.39,1.39,0,0,0-.85.09.87.87,0,0,0-.48.46.78.78,0,0,0,0,.63.79.79,0,0,0,.26.31,1.16,1.16,0,0,0,.38.15l.47.05.53,0a3.29,3.29,0,0,1,.54.05,2.74,2.74,0,0,1,.51.15,1.27,1.27,0,0,1,.45.3,1.61,1.61,0,0,1,.36.52,1.67,1.67,0,0,1,.12,1.15,1.77,1.77,0,0,1-.7.94.06.06,0,0,0,0,.09l.22.5a.34.34,0,0,1,0,.26.33.33,0,0,1-.17.18.34.34,0,0,1-.26,0,.29.29,0,0,1-.18-.18l-.22-.48s0-.05-.08,0a3.07,3.07,0,0,1-1.32.08.44.44,0,0,1-.26-.17l0-.07a.5.5,0,0,1,0-.24.36.36,0,0,1,.16-.24l.06,0a.34.34,0,0,1,.22,0,2,2,0,0,0,1.15-.12,1.06,1.06,0,0,0,.56-.49.86.86,0,0,0,0-.68.91.91,0,0,0-.33-.39,1.4,1.4,0,0,0-.48-.18,5,5,0,0,0-.57-.06l-.62,0a3.43,3.43,0,0,1-.59-.11,1.43,1.43,0,0,1-.53-.28,1.35,1.35,0,0,1-.4-.53,1.58,1.58,0,0,1-.1-1.1,1.63,1.63,0,0,1,.65-.89s0-.05,0-.09l-.22-.5a.31.31,0,0,1,0-.25.32.32,0,0,1,.17-.19.34.34,0,0,1,.44.17l.22.49s0,.05.08,0A2.05,2.05,0,0,1,353.88,208.76Z" fill="#fff"/><rect x="167.81" y="116.59" width="41.3" height="19.56" rx="0.57" ry="0.57" transform="translate(37.42 295.71) rotate(-82.11)" fill="#828282" stroke="#3a494f" stroke-miterlimit="10" stroke-width="0.97"/><rect x="169.96" y="118.52" width="37" height="15.71" rx="0.57" ry="0.57" transform="translate(37.42 295.71) rotate(-82.11)" fill="#fff" stroke="#3a494f" stroke-miterlimit="10" stroke-width="0.82"/><circle cx="188.46" cy="126.37" r="6.01" fill="#27c1ae" stroke="#39484e" stroke-miterlimit="10" stroke-width="0.93"/><path d="M186,124.64a.38.38,0,0,1,.29-.09.37.37,0,0,1,.24.14.35.35,0,0,1,.09.28v0a.39.39,0,0,1-.12.24,1.4,1.4,0,0,0-.37.76.92.92,0,0,0,.13.65.72.72,0,0,0,.55.31.77.77,0,0,0,.4,0,.9.9,0,0,0,.33-.25c.09-.1.19-.23.3-.37l.29-.43a2.88,2.88,0,0,1,.33-.43,2.66,2.66,0,0,1,.4-.36,1.22,1.22,0,0,1,.5-.23,1.87,1.87,0,0,1,.63,0,1.64,1.64,0,0,1,1,.51,1.73,1.73,0,0,1,.43,1.09.07.07,0,0,0,.06.07l.55.07a.34.34,0,0,1,.22.13.35.35,0,0,1,.06.25.3.3,0,0,1-.13.22.34.34,0,0,1-.24.06l-.52-.07s-.07,0-.08,0a2.91,2.91,0,0,1-.63,1.17.39.39,0,0,1-.28.13h-.07a.36.36,0,0,1-.22-.11.31.31,0,0,1-.12-.26s0,0,0-.07a.37.37,0,0,1,.09-.2,2,2,0,0,0,.51-1,1.07,1.07,0,0,0-.12-.74.83.83,0,0,0-.6-.33.93.93,0,0,0-.5.08,1.35,1.35,0,0,0-.41.31,3.34,3.34,0,0,0-.35.45c-.12.17-.24.34-.37.5a2.92,2.92,0,0,1-.4.45,1.48,1.48,0,0,1-.52.3,1.44,1.44,0,0,1-.66.05,1.58,1.58,0,0,1-1-.5,1.61,1.61,0,0,1-.4-1s0-.06-.07-.07l-.54-.07a.35.35,0,0,1-.28-.38.34.34,0,0,1,.13-.22.35.35,0,0,1,.25-.06l.52.07a.06.06,0,0,0,.08,0A2,2,0,0,1,186,124.64Z" fill="#fff"/><rect x="2.46" y="210.18" width="41.3" height="19.56" rx="0.57" ry="0.57" transform="translate(-99.7 36.02) rotate(-27.73)" fill="#828282" stroke="#3a494f" stroke-miterlimit="10" stroke-width="0.97"/><rect x="4.61" y="212.11" width="37" height="15.71" rx="0.57" ry="0.57" transform="translate(-99.7 36.02) rotate(-27.73)" fill="#fff" stroke="#3a494f" stroke-miterlimit="10" stroke-width="0.82"/><circle cx="23.11" cy="219.96" r="6.01" fill="#27c1ae" stroke="#39484e" stroke-miterlimit="10" stroke-width="0.93"/><path d="M23,216.85a.34.34,0,0,1,.25.18.45.45,0,0,1,0,.28.35.35,0,0,1-.18.23h0a.39.39,0,0,1-.26,0,1.38,1.38,0,0,0-.84.15.87.87,0,0,0-.45.48.76.76,0,0,0,.06.62.81.81,0,0,0,.28.3.89.89,0,0,0,.39.12,3.53,3.53,0,0,0,.48,0h.53a2.49,2.49,0,0,1,.54,0,2.29,2.29,0,0,1,.52.11,1.33,1.33,0,0,1,.47.27,2,2,0,0,1,.39.5,1.63,1.63,0,0,1-.45,2.12.06.06,0,0,0,0,.09l.26.49a.31.31,0,0,1,0,.25.35.35,0,0,1-.16.2.34.34,0,0,1-.45-.14l-.25-.47s0-.05-.07,0a3.08,3.08,0,0,1-1.32.16.37.37,0,0,1-.27-.15l0-.06a.43.43,0,0,1-.05-.25.33.33,0,0,1,.14-.24l.07-.05a.49.49,0,0,1,.21,0,1.92,1.92,0,0,0,1.14-.18,1,1,0,0,0,.52-.53.8.8,0,0,0-.08-.68.81.81,0,0,0-.35-.36,1.17,1.17,0,0,0-.49-.15,5.17,5.17,0,0,0-.57,0H22.4a3.79,3.79,0,0,1-.6-.07,1.57,1.57,0,0,1-.55-.24,1.51,1.51,0,0,1-.42-.51,1.56,1.56,0,0,1,.42-2s0-.06,0-.09l-.25-.48a.34.34,0,0,1,0-.26.35.35,0,0,1,.17-.19.31.31,0,0,1,.25,0,.37.37,0,0,1,.2.17l.24.47a.1.1,0,0,0,.09,0A1.93,1.93,0,0,1,23,216.85Z" fill="#fff"/><path d="M331.73,189l-63.52-15.62a3,3,0,0,0-3.42,1.72l-5.72,13.69a2.94,2.94,0,0,0,1.56,3.85L322,218.72a15.61,15.61,0,0,0,19.43-6.23h0A15.76,15.76,0,0,0,331.73,189Z" fill="#ccc" stroke="#3a494f" stroke-miterlimit="10" stroke-width="2.5"/><path d="M265,174.61s-12.72-5.58-18.73-2.91a5.84,5.84,0,0,0-3.31,4.25,9,9,0,0,0,5.61,10.33l9.92,3.91Z" fill="#fff" stroke="#3a494f" stroke-miterlimit="10" stroke-width="1.7"/><line x1="246.21" y1="220.91" x2="246.21" y2="252.56" fill="none" stroke="#3a494f" stroke-miterlimit="10" stroke-width="1.7"/><circle cx="253.1" cy="232.68" r="1.49" fill="#828282" stroke="#3a494f" stroke-miterlimit="10" stroke-width="1.7"/><circle cx="253.1" cy="243.19" r="1.49" fill="#828282" stroke="#3a494f" stroke-miterlimit="10" stroke-width="1.7"/><rect x="189.69" y="107.12" width="41.3" height="19.56" rx="0.57" ry="0.57" transform="translate(373.34 293.92) rotate(-161.7)" fill="#828282" stroke="#3a494f" stroke-miterlimit="10" stroke-width="0.97"/><rect x="191.84" y="109.05" width="37" height="15.71" rx="0.57" ry="0.57" transform="translate(373.34 293.92) rotate(-161.7)" fill="#fff" stroke="#3a494f" stroke-miterlimit="10" stroke-width="0.82"/><circle cx="210.33" cy="116.9" r="6.01" fill="#27c1ae" stroke="#39484e" stroke-miterlimit="10" stroke-width="0.93"/><path d="M208.18,119.16a.37.37,0,0,1,.43-.55h0a.37.37,0,0,1,.21.16,1.3,1.3,0,0,0,.69.5.88.88,0,0,0,.66,0,.73.73,0,0,0,.4-.48.72.72,0,0,0,0-.41.87.87,0,0,0-.18-.36,4.64,4.64,0,0,0-.31-.36c-.12-.13-.25-.25-.38-.37a3.42,3.42,0,0,1-.36-.4,3.68,3.68,0,0,1-.28-.45,1.34,1.34,0,0,1-.13-.54,1.7,1.7,0,0,1,.09-.62,1.67,1.67,0,0,1,.69-.93,1.69,1.69,0,0,1,1.15-.22s.06,0,.07,0l.18-.52a.32.32,0,0,1,.16-.2.39.39,0,0,1,.26,0,.35.35,0,0,1,.19.17.31.31,0,0,1,0,.25l-.17.5s0,.07,0,.08a3,3,0,0,1,1,.84.34.34,0,0,1,.08.29.64.64,0,0,1,0,.07.37.37,0,0,1-.14.2.31.31,0,0,1-.28.07h-.07a.46.46,0,0,1-.18-.13,2.06,2.06,0,0,0-.92-.69,1,1,0,0,0-.75,0,.84.84,0,0,0-.43.53.89.89,0,0,0,0,.51,1.53,1.53,0,0,0,.23.46,4.81,4.81,0,0,0,.38.42l.43.45a5.15,5.15,0,0,1,.37.48,1.5,1.5,0,0,1,.2.56,1.39,1.39,0,0,1-.07.66,1.55,1.55,0,0,1-.67.88,1.58,1.58,0,0,1-1.08.22s-.06,0-.08,0l-.17.52a.33.33,0,0,1-.16.19.39.39,0,0,1-.26,0,.35.35,0,0,1-.19-.17.31.31,0,0,1,0-.25L209,120a.08.08,0,0,0,0-.09A1.87,1.87,0,0,1,208.18,119.16Z" fill="#fff"/><path d="M246.87,149.07h0c-24,0-43.48-7.13-43.48-35.61,0-8.82,3.56-43.87,3.56-43.87h79.83s3.56,35.05,3.56,43.87c0,28.48-19.46,35.61-43.47,35.61h0" fill="#fff" stroke="#3a494f" stroke-miterlimit="10" stroke-width="2.5"/><circle cx="227.19" cy="96.7" r="3.81" fill="#3a494f"/><circle cx="264.73" cy="96.7" r="3.81" fill="#3a494f"/><path d="M244.73,113.69l-15.39,7.87a1.21,1.21,0,0,0-.49,1.69,4.88,4.88,0,0,0,3.92,2.37c5,.59,7.43-4.94,7.43-4.94s3.34.85,5.42-.81a5,5,0,0,0,1.45-5A1.63,1.63,0,0,0,244.73,113.69Z" fill="#3a494f"/><path d="M247.92,104l-4.32,7.28a3,3,0,0,0,.63,3.87l3.69,3.18" fill="#fff" stroke="#3a494f" stroke-miterlimit="10" stroke-width="1.7"/><path d="M249.7,113.69l15.38,7.87a1.22,1.22,0,0,1,.5,1.69,4.92,4.92,0,0,1-3.93,2.37c-5,.59-7.43-4.94-7.43-4.94s-3.34.85-5.41-.81a4.94,4.94,0,0,1-1.46-5A1.64,1.64,0,0,1,249.7,113.69Z" fill="#3a494f"/><path d="M221.86,3.87h50A13.83,13.83,0,0,1,285.7,17.7V61.93a0,0,0,0,1,0,0H208a0,0,0,0,1,0,0V17.7A13.83,13.83,0,0,1,221.86,3.87Z" fill="#27c1ae" stroke="#3a494f" stroke-miterlimit="10" stroke-width="2.5"/><rect x="194.11" y="59.22" width="105.51" height="17.36" rx="5.05" ry="5.05" fill="#27c1ae" stroke="#3a494f" stroke-miterlimit="10" stroke-width="2.5"/><rect x="262.13" y="11.1" width="41.3" height="19.56" rx="0.57" ry="0.57" transform="translate(488.67 215.84) rotate(-140.79)" fill="#828282" stroke="#3a494f" stroke-miterlimit="10" stroke-width="0.97"/><rect x="264.28" y="13.03" width="37" height="15.71" rx="0.57" ry="0.57" transform="translate(488.67 215.84) rotate(-140.79)" fill="#fff" stroke="#3a494f" stroke-miterlimit="10" stroke-width="0.82"/><circle cx="282.78" cy="20.88" r="6.01" fill="#27c1ae" stroke="#39484e" stroke-miterlimit="10" stroke-width="0.93"/><path d="M280,22.17a.36.36,0,0,1,.07-.3.38.38,0,0,1,.25-.13.31.31,0,0,1,.27.07h0a.43.43,0,0,1,.14.23,1.4,1.4,0,0,0,.46.71.87.87,0,0,0,.63.23.71.71,0,0,0,.54-.31.66.66,0,0,0,.17-.37,1,1,0,0,0,0-.41c0-.13-.1-.28-.16-.44s-.14-.32-.22-.48a2.85,2.85,0,0,1-.2-.51,3.18,3.18,0,0,1-.1-.52,1.49,1.49,0,0,1,.07-.54,1.68,1.68,0,0,1,.31-.55,1.6,1.6,0,0,1,2.12-.42.06.06,0,0,0,.09,0l.35-.43a.33.33,0,0,1,.23-.12.31.31,0,0,1,.24.08.32.32,0,0,1,.12.22.34.34,0,0,1-.07.24l-.34.41a.06.06,0,0,0,0,.09,3,3,0,0,1,.66,1.14.42.42,0,0,1,0,.31l0,.06a.39.39,0,0,1-.2.13.33.33,0,0,1-.29,0l-.06,0a.35.35,0,0,1-.12-.19,2,2,0,0,0-.62-1,1,1,0,0,0-.69-.27.8.8,0,0,0-.59.33.89.89,0,0,0-.2.47,1.27,1.27,0,0,0,.05.51,3.33,3.33,0,0,0,.21.54c.08.19.16.38.23.57a3.49,3.49,0,0,1,.18.58,1.53,1.53,0,0,1,0,.6,1.33,1.33,0,0,1-.3.59,1.56,1.56,0,0,1-.93.58,1.62,1.62,0,0,1-1.09-.18s-.07,0-.09,0l-.35.42a.33.33,0,0,1-.58-.18.3.3,0,0,1,.07-.24l.34-.42a.07.07,0,0,0,0-.09A1.94,1.94,0,0,1,280,22.17Z" fill="#fff"/></g></svg>