<?xml version="1.0" standalone="no"?>
<!DOCTYPE svg PUBLIC "-//W3C//DTD SVG 20010904//EN"
 "http://www.w3.org/TR/2001/REC-SVG-20010904/DTD/svg10.dtd">
<svg version="1.0" xmlns="http://www.w3.org/2000/svg"
 width="641.000000pt" height="641.000000pt" viewBox="0 0 641.000000 641.000000"
 preserveAspectRatio="xMidYMid meet">
<metadata>
Created by potrace 1.11, written by Peter Selinger 2001-2013
</metadata>
<g transform="translate(0.000000,641.000000) scale(0.100000,-0.100000)"
fill="#000000" stroke="none">
<path d="M1843 5914 c-52 -13 -108 -63 -124 -112 -8 -24 -11 -301 -11 -976 l0
-942 -223 -1 c-151 -1 -229 -5 -244 -13 -44 -23 -48 -56 -47 -369 l2 -293 32
-29 32 -29 190 0 190 0 -4 -27 c-2 -16 -7 -59 -11 -98 -13 -147 -15 -171 -20
-220 -3 -27 -7 -81 -10 -120 -3 -38 -7 -88 -10 -110 -2 -22 -7 -76 -10 -120
-4 -44 -8 -98 -10 -120 -2 -22 -7 -87 -10 -145 -4 -58 -9 -121 -11 -140 -6
-54 -5 -348 1 -410 23 -222 82 -414 172 -565 219 -362 626 -555 1248 -590 90
-6 385 -5 450 0 28 2 86 7 130 10 44 3 89 8 100 11 11 2 31 6 45 8 148 24 335
71 354 88 6 4 16 8 24 8 30 0 239 110 307 160 98 74 148 123 216 213 79 105
170 298 193 408 40 195 51 292 50 449 -1 81 -12 304 -19 380 -1 19 -6 76 -9
127 -4 51 -9 100 -10 110 -2 10 -7 67 -11 128 -4 60 -8 116 -10 125 -1 8 -6
53 -10 100 -4 47 -8 96 -10 110 -1 14 -6 64 -10 110 -4 47 -9 93 -11 103 -3
16 11 17 181 17 110 0 194 4 208 11 50 23 52 34 54 339 1 171 -3 298 -9 318
-19 61 -33 64 -281 64 l-224 0 0 948 0 948 -21 44 c-25 51 -62 82 -112 94 -56
13 -2635 11 -2687 -2z"/>
</g>
</svg>
