<svg xmlns="http://www.w3.org/2000/svg" viewBox="0 0 91.31 56"><title>bear</title><g id="圖例們"><path d="M22.75,13.63V12a1.88,1.88,0,0,1,1.88-1.88h0A1.88,1.88,0,0,1,26.51,12v1.66" fill="#515151" stroke="#3a494f" stroke-miterlimit="10" stroke-width="0.76"/><path d="M34.31,30.77v11a1,1,0,0,1-1,.94h0A2.41,2.41,0,0,0,31,45.11h0a.8.8,0,0,0,.8.8h8.67a1,1,0,0,0,1-1h0V30.77Z" fill="#515151" stroke="#3a494f" stroke-miterlimit="10" stroke-width="0.76"/><path d="M54.72,30.77v11a.94.94,0,0,1-.95.94h0a2.4,2.4,0,0,0-2.4,2.41h0a.79.79,0,0,0,.79.8h8.67a1,1,0,0,0,1-1h0V30.77Z" fill="#515151" stroke="#3a494f" stroke-miterlimit="10" stroke-width="0.76"/><path d="M58.3,12.75H33.49a6.75,6.75,0,0,0-3.53-1H27.75a8.16,8.16,0,0,0-8,8.19l1,4.54A6.74,6.74,0,0,0,27,28.06H31.4a1.16,1.16,0,0,1,1.07.7l.31.73a15,15,0,0,0,7.84,7.86v4.41a1,1,0,0,1-.95.94,2.41,2.41,0,0,0-2.41,2.41.8.8,0,0,0,.8.8h8.67a1,1,0,0,0,1-1V38.58h17.7v3.18a1,1,0,0,1-1,.94A2.42,2.42,0,0,0,62,45.11h0a.8.8,0,0,0,.8.8H71.5a1,1,0,0,0,1-1v-18A14.16,14.16,0,0,0,58.3,12.75Z" fill="#515151" stroke="#3a494f" stroke-miterlimit="10" stroke-width="0.76"/><rect x="31.06" y="17.29" width="10.32" height="9.14" fill="#515151"/><circle cx="25.95" cy="17.16" r="0.56" fill="#3a494f"/><circle cx="22.46" cy="17.03" r="0.56" fill="#3a494f"/><path d="M39.78,24.15a.08.08,0,0,0-.15,0c-.51,1.53-1.5,4.95-1.14,7.6a.07.07,0,0,1-.09.08A26.15,26.15,0,0,0,33.7,31c.21.35.5.8.78,1.19l5.63,1.53c.06,0,.11,0,.09-.09A32.91,32.91,0,0,1,39.78,24.15Z" fill="#fff"/><path d="M21.5,24.52,21,24.45a2.54,2.54,0,0,1-2.16-2.88h0a2.54,2.54,0,0,1,2.37-2.18l.46,0a2.6,2.6,0,0,1,2.72,3h0A2.59,2.59,0,0,1,21.5,24.52Z" fill="#515151" stroke="#3a494f" stroke-miterlimit="10" stroke-width="0.76"/><path d="M20.5,20.06c.44-.23,1.7-.08,1.92.34s-.53,1.25-1.26,1.15S19.9,20.37,20.5,20.06Z" fill="#fff" stroke="#3a494f" stroke-miterlimit="10" stroke-width="0.29"/><path d="M29.56,13.63V12a1.88,1.88,0,0,1,1.88-1.88h0A1.88,1.88,0,0,1,33.32,12v1.66" fill="#515151" stroke="#3a494f" stroke-miterlimit="10" stroke-width="0.76"/></g></svg>