<svg xmlns="http://www.w3.org/2000/svg" viewBox="0 0 91.31 56"><title>cloud</title><g id="圖例們"><path d="M68.14,29.24l-14.75,0a5.06,5.06,0,0,0-5.08,4.46,5,5,0,0,0,.48,2.7.4.4,0,0,1-.34.58h0a3.83,3.83,0,0,0-3.85,3.22,3.76,3.76,0,0,0,3.73,4.3h6a3.82,3.82,0,0,0,3.72-2.79A3.77,3.77,0,0,0,58,39.59a.31.31,0,0,1,.29-.4H68a5.07,5.07,0,0,0,5-4.17A5,5,0,0,0,68.14,29.24Z" fill="#828282" stroke="#3a494f" stroke-miterlimit="10" stroke-width="1.4"/><rect x="64.87" y="23.85" width="8.82" height="7.51" rx="3.75" ry="3.75" transform="translate(-0.05 0.12) rotate(-0.1)" fill="#828282" stroke="#3a494f" stroke-miterlimit="10" stroke-width="1.4"/><path d="M43.64,15.2H30.88a4.34,4.34,0,0,0-3.73,6.57H14.63a3.86,3.86,0,0,0,0,7.72H34.28a3.83,3.83,0,0,0,3.44-5.59h5.92a4.35,4.35,0,1,0,0-8.7Z" fill="#828282" stroke="#3a494f" stroke-miterlimit="10" stroke-width="1.4"/><line x1="9.84" y1="20.73" x2="10.56" y2="21.45" fill="none" stroke="#3a494f" stroke-miterlimit="10"/><line x1="15.15" y1="20.73" x2="15.87" y2="21.45" fill="none" stroke="#3a494f" stroke-miterlimit="10"/><line x1="17.78" y1="27.47" x2="18.5" y2="28.19" fill="none" stroke="#3a494f" stroke-miterlimit="10"/><line x1="19.68" y1="22.69" x2="20.4" y2="23.41" fill="none" stroke="#3a494f" stroke-miterlimit="10"/><line x1="15.87" y1="23.87" x2="16.59" y2="24.59" fill="none" stroke="#3a494f" stroke-miterlimit="10"/><line x1="11.59" y1="26.22" x2="12.31" y2="26.94" fill="none" stroke="#3a494f" stroke-miterlimit="10"/><line x1="26.35" y1="35.91" x2="27.07" y2="36.62" fill="none" stroke="#3a494f" stroke-miterlimit="10"/><line x1="31.67" y1="35.91" x2="32.39" y2="36.62" fill="none" stroke="#3a494f" stroke-miterlimit="10"/><line x1="34.3" y1="42.65" x2="35.01" y2="43.37" fill="none" stroke="#3a494f" stroke-miterlimit="10"/><line x1="36.19" y1="37.87" x2="36.91" y2="38.59" fill="none" stroke="#3a494f" stroke-miterlimit="10"/><line x1="32.39" y1="39.05" x2="33.1" y2="39.77" fill="none" stroke="#3a494f" stroke-miterlimit="10"/><line x1="28.1" y1="41.4" x2="28.82" y2="42.12" fill="none" stroke="#3a494f" stroke-miterlimit="10"/><line x1="37.77" y1="11.47" x2="38.49" y2="12.19" fill="none" stroke="#3a494f" stroke-miterlimit="10"/><line x1="43.09" y1="11.47" x2="43.81" y2="12.19" fill="none" stroke="#3a494f" stroke-miterlimit="10"/><line x1="45.72" y1="18.21" x2="46.43" y2="18.93" fill="none" stroke="#3a494f" stroke-miterlimit="10"/><line x1="47.61" y1="13.43" x2="48.33" y2="14.15" fill="none" stroke="#3a494f" stroke-miterlimit="10"/><line x1="43.81" y1="14.62" x2="44.52" y2="15.34" fill="none" stroke="#3a494f" stroke-miterlimit="10"/><line x1="39.52" y1="16.96" x2="40.24" y2="17.68" fill="none" stroke="#3a494f" stroke-miterlimit="10"/><line x1="70.92" y1="27.83" x2="71.63" y2="28.55" fill="none" stroke="#3a494f" stroke-miterlimit="10"/><line x1="76.23" y1="27.83" x2="76.95" y2="28.55" fill="none" stroke="#3a494f" stroke-miterlimit="10"/><line x1="78.86" y1="34.57" x2="79.57" y2="35.29" fill="none" stroke="#3a494f" stroke-miterlimit="10"/><line x1="80.75" y1="29.79" x2="81.47" y2="30.51" fill="none" stroke="#3a494f" stroke-miterlimit="10"/><line x1="76.95" y1="30.98" x2="77.67" y2="31.7" fill="none" stroke="#3a494f" stroke-miterlimit="10"/><line x1="72.67" y1="33.32" x2="73.38" y2="34.04" fill="none" stroke="#3a494f" stroke-miterlimit="10"/></g></svg>