<svg xmlns="http://www.w3.org/2000/svg" viewBox="0 0 91.31 56"><title>crow</title><g id="圖例們"><path d="M23.37,7.29h0a7.57,7.57,0,0,0-3.44,4.33l-.08.27A.12.12,0,0,0,20,12l.56-.52a7.61,7.61,0,0,1,3.55-1.8l1-.2Z" fill="#fff" stroke="#3a494f" stroke-miterlimit="10" stroke-width="0.49"/><circle cx="27.29" cy="5.27" r="0.61" fill="#3a494f"/><path d="M30,13.89l2.09,1.34a1.09,1.09,0,0,0,1.56-.41L35,12.34a1,1,0,0,1,1.21-.52l3.1.86L34.4,5.44a10,10,0,0,0-4.88-3.81h0a5.21,5.21,0,0,0-3.42-.07h0a5.26,5.26,0,0,0-3.63,5h0a4.25,4.25,0,0,0,3,4l.61.19a2.2,2.2,0,0,1,1.48,2.53L27,16l1.78-2A1,1,0,0,1,30,13.89Z" fill="#515151" stroke="#3a494f" stroke-miterlimit="10" stroke-width="0.65"/><polyline points="25.57 5.58 27.79 3.95 27.79 2.94" fill="none" stroke="#3a494f" stroke-miterlimit="10" stroke-width="0.2"/><path d="M27.42,4.26a.82.82,0,0,1-.16,1.21A1,1,0,0,1,26,5.36Z" fill="#fff" stroke="#3a494f" stroke-miterlimit="10" stroke-width="0.2"/><path d="M26.4,5.14a.54.54,0,0,0,.62.11c.4-.22.19-.72.19-.72Z" fill="#515151"/><path d="M37,45.29v5a.44.44,0,0,1-.24.39l-2.87,1.47a.43.43,0,0,0-.19.59h0a.44.44,0,0,0,.59.19l2.17-1.12a.44.44,0,0,1,.64.39v1.38a.43.43,0,0,0,.43.43h0a.43.43,0,0,0,.44-.43V52.15a.44.44,0,0,1,.64-.39l2,1a.44.44,0,0,0,.59-.19h0A.43.43,0,0,0,41,52l-2.71-1.39a.44.44,0,0,1-.24-.39v-5" fill="#fff" stroke="#3a494f" stroke-miterlimit="10" stroke-width="0.49"/><path d="M32.7,38.4l1.84,3A19.44,19.44,0,0,1,36.27,45h0a1.52,1.52,0,0,0,1.43,1h0A1.52,1.52,0,0,0,39,45.32l5.72-8.16Z" fill="#515151" stroke="#3a494f" stroke-miterlimit="10" stroke-width="0.65"/><path d="M44.89,46v5a.43.43,0,0,1-.23.39l-2.88,1.48a.44.44,0,0,0-.19.59h0a.44.44,0,0,0,.59.18l2.18-1.11a.43.43,0,0,1,.63.39v1.37a.44.44,0,0,0,.44.44h0a.44.44,0,0,0,.44-.44v-1.4a.43.43,0,0,1,.63-.39l2,1a.44.44,0,0,0,.59-.19h0a.43.43,0,0,0-.19-.58l-2.72-1.4a.43.43,0,0,1-.23-.38V46" fill="#fff" stroke="#3a494f" stroke-miterlimit="10" stroke-width="0.49"/><path d="M39.25,12.68l-3.09-.86a1,1,0,0,0-1.21.52l-1.3,2.48a1.1,1.1,0,0,1-1.57.41L30,13.89a1,1,0,0,0-1.27.17L27,16l-.3,1.5A22.24,22.24,0,0,0,28.32,31.3l1.32,2.84a17.83,17.83,0,0,0,11.65,9.71,4,4,0,0,1,2.28,1.63l.11.18a2.24,2.24,0,0,0,1.87,1h0a2.2,2.2,0,0,0,1.68-.77l1.11-1.27a3.06,3.06,0,0,1,1.22-.85c2.9-1.05,8.71-3.41,10.83-6.47l3.26-.15Z" fill="#515151" stroke="#3a494f" stroke-miterlimit="10" stroke-width="0.65"/><path d="M71.36,41.57C65.1,20.65,44.16,8.8,40.7,8.59c-2.57-.16-2.91,1.93-3.42,3.21-1,2.57-1.81,3.94-4.93,6.15-1.34.94-.89,3.68-.56,4.74s2.1,7.45,12.33,15c4.24,3.13,9.13,4.78,17.11,5.43,1.66.13,8.6.69,9.07.65C71.7,43.65,71.52,42.12,71.36,41.57Z" fill="#515151" stroke="#3a494f" stroke-miterlimit="10" stroke-width="0.65"/></g></svg>