<svg xmlns="http://www.w3.org/2000/svg" viewBox="0 0 91.31 56"><title>denmark</title><g id="圖例們"><rect x="10.17" y="13.93" width="54.78" height="36.18" rx="1.24" ry="1.24" fill="#ccc" stroke="#3a494f" stroke-miterlimit="10" stroke-width="1.09"/><polygon points="64.95 28 29.61 28 29.61 14.47 25.5 14.47 25.5 28 10.13 28 10.13 32.02 25.5 32.02 25.5 49.56 29.61 49.56 29.61 32.02 64.95 32.02 64.95 28" fill="#fff" stroke="#39484e" stroke-miterlimit="10" stroke-width="0.72"/><polygon points="70.74 18.87 70.17 18.87 69.85 18.87 69.29 18.87 68.72 45.04 71.31 45.04 70.74 18.87" fill="#fff" stroke="#3a494f" stroke-miterlimit="10" stroke-width="0.71"/><path d="M68.72,45l-.1,4.65a.77.77,0,0,0,.77.79h1.25a.77.77,0,0,0,.77-.79L71.31,45Z" fill="#828282" stroke="#3a494f" stroke-miterlimit="10" stroke-width="0.71"/><path d="M74.4,5.58a.07.07,0,0,0-.12,0,23.43,23.43,0,0,0-4.07,12.85v.48l.27-.4A23.47,23.47,0,0,0,74.4,5.58Z" fill="#fff" stroke="#3a494f" stroke-miterlimit="10" stroke-width="0.71"/><path d="M80.53,29.58a.06.06,0,0,1-.09.08A27.51,27.51,0,0,1,70.46,19l-.24-.46.44.28A27.57,27.57,0,0,1,80.53,29.58Z" fill="#fff" stroke="#3a494f" stroke-miterlimit="10" stroke-width="0.71"/><path d="M55.43,21.8a.06.06,0,0,0,0,.12,27.54,27.54,0,0,0,14.28-3.14l.47-.25-.53,0A27.5,27.5,0,0,0,55.43,21.8Z" fill="#fff" stroke="#3a494f" stroke-miterlimit="10" stroke-width="0.71"/><circle cx="70.12" cy="18.81" r="1.38" fill="#ccc" stroke="#3a494f" stroke-miterlimit="10" stroke-width="0.71"/><path d="M81.28,13.83c-.65.26-.86-.27-1.51,0s-.45.78-1.11,1-.86-.27-1.52,0" fill="none" stroke="#3a494f" stroke-miterlimit="10" stroke-width="0.71"/><path d="M80.64,16c-.66.26-.86-.26-1.52,0s-.45.78-1.11,1-.86-.26-1.51,0" fill="none" stroke="#3a494f" stroke-miterlimit="10" stroke-width="0.71"/></g></svg>