<svg xmlns="http://www.w3.org/2000/svg" viewBox="0 0 91.31 56"><title>eagle</title><g id="圖例們"><path d="M23.38,8.65l-1.74.64A4.08,4.08,0,0,0,19,12.58l-.15,1.21a.09.09,0,0,0,.13.09h0A13.78,13.78,0,0,1,24.33,12l.25,0" fill="#fff" stroke="#3a494f" stroke-miterlimit="10" stroke-width="0.5"/><path d="M19,13.88A6.6,6.6,0,0,1,23.09,11" fill="none" stroke="#3a494f" stroke-miterlimit="10" stroke-width="0.5"/><path d="M36.09,44.12v5a.45.45,0,0,1-.23.39L33,51a.44.44,0,0,0-.19.59h0a.44.44,0,0,0,.59.19l2.18-1.12a.44.44,0,0,1,.64.39v1.38a.43.43,0,0,0,.43.43h0a.44.44,0,0,0,.44-.43V51a.43.43,0,0,1,.63-.39l2,1a.44.44,0,0,0,.59-.19h0a.44.44,0,0,0-.19-.59l-2.71-1.39a.44.44,0,0,1-.24-.39v-5" fill="#fff" stroke="#3a494f" stroke-miterlimit="10" stroke-width="0.5"/><path d="M31.74,21.09h0a6.35,6.35,0,0,0-4.57-1.46,6.39,6.39,0,0,0-4,10.89h0A38.91,38.91,0,0,0,49.44,44l8.51.71a1.42,1.42,0,0,0,.9-.23h0A1.45,1.45,0,0,0,59,42.12Z" fill="#515151" stroke="#3a494f" stroke-miterlimit="10" stroke-width="0.66"/><path d="M28.8,15.76l2.09,1.34a1.09,1.09,0,0,0,1.56-.41l1.3-2.48A1,1,0,0,1,35,13.69l3.1.86L33.19,7.31a10,10,0,0,0-4.88-3.82h0a5.27,5.27,0,0,0-3.42-.06h0a5.25,5.25,0,0,0-3.63,5h0a4.23,4.23,0,0,0,2.95,4l.61.2a2.2,2.2,0,0,1,1.48,2.53l-.54,2.7,1.78-2A1,1,0,0,1,28.8,15.76Z" fill="#fff" stroke="#3a494f" stroke-miterlimit="10" stroke-width="0.66"/><path d="M38.05,14.55,35,13.69a1,1,0,0,0-1.21.52l-1.3,2.48a1.1,1.1,0,0,1-1.57.41l-2.08-1.34a1,1,0,0,0-1.27.17l-1.77,2-.3,1.5a22.24,22.24,0,0,0,1.66,13.78L28.43,36A17.85,17.85,0,0,0,44.62,46.33h0a10.9,10.9,0,0,0,10.15-6.94h0Z" fill="#515151" stroke="#3a494f" stroke-miterlimit="10" stroke-width="0.66"/><path d="M45.18,44.12v5a.44.44,0,0,1-.24.39L42.07,51a.44.44,0,0,0-.19.59h0a.44.44,0,0,0,.59.19l2.17-1.12a.44.44,0,0,1,.64.39v1.38a.44.44,0,0,0,.44.43h0a.43.43,0,0,0,.43-.43V51a.44.44,0,0,1,.64-.39l2,1a.44.44,0,0,0,.59-.19h0a.43.43,0,0,0-.19-.59l-2.71-1.39a.44.44,0,0,1-.24-.39v-5" fill="#fff" stroke="#3a494f" stroke-miterlimit="10" stroke-width="0.5"/><rect x="45.9" y="37.54" width="19.03" height="2.23" rx="1.11" ry="1.11" transform="translate(33.46 -25.25) rotate(36.14)" fill="#fff" stroke="#3a494f" stroke-miterlimit="10" stroke-width="0.66"/><rect x="46.4" y="39.94" width="19.03" height="2.23" rx="1.11" ry="1.11" transform="translate(34.98 -25.08) rotate(36.14)" fill="#fff" stroke="#3a494f" stroke-miterlimit="10" stroke-width="0.66"/><rect x="51.64" y="38.15" width="19.03" height="2.23" rx="1.11" ry="1.11" transform="translate(34.93 -28.51) rotate(36.14)" fill="#fff" stroke="#3a494f" stroke-miterlimit="10" stroke-width="0.66"/><rect x="55.06" y="38.15" width="19.03" height="2.23" rx="1.11" ry="1.11" transform="translate(35.59 -30.53) rotate(36.14)" fill="#fff" stroke="#3a494f" stroke-miterlimit="10" stroke-width="0.66"/><path d="M42,18.64h0a6.39,6.39,0,0,0-8.6,9.43h0A38.87,38.87,0,0,0,59.7,41.56l8.51.71a1.43,1.43,0,0,0,.9-.23h0a1.45,1.45,0,0,0,.11-2.37Z" fill="#515151" stroke="#3a494f" stroke-miterlimit="10" stroke-width="0.66"/><ellipse cx="24.27" cy="7.33" rx="0.37" ry="0.33" transform="translate(-0.73 11.57) rotate(-26.42)" fill="#3a494f"/><line x1="23.41" y1="7.74" x2="25.04" y2="6.32" fill="#fff" stroke="#3a494f" stroke-miterlimit="10" stroke-width="0.43"/></g></svg>