<svg xmlns="http://www.w3.org/2000/svg" xmlns:xlink="http://www.w3.org/1999/xlink" viewBox="0 0 91.31 56"><defs><clipPath id="clip-path"><circle cx="45.66" cy="28" r="19.91" fill="none" stroke="#3a494f" stroke-miterlimit="10" stroke-width="1.4"/></clipPath></defs><title>earth</title><g id="圖例們"><circle cx="45.66" cy="28" r="19.59" fill="#ccc"/><g clip-path="url(#clip-path)"><path d="M47,31.65a8.1,8.1,0,0,1-7.08.18c-1-.46-2.24-1.79-3.75-1.84s-3.27,2.74-3.27,2.74a1.81,1.81,0,0,1-.93.57h0a1.83,1.83,0,0,1-1.24-.14h0a.85.85,0,0,0-1.21.56h0A13.93,13.93,0,0,1,27.64,38L26.49,39.8l-3.9-20.73L30,8.62,42.78,5.34,54.24,7.41l1.3,4.26A3.36,3.36,0,0,1,55,14.73h0a3.36,3.36,0,0,1-1.55,1.1h0a1.44,1.44,0,0,0-.72.57h0a1.43,1.43,0,0,0-.08,1.4,11.4,11.4,0,0,1,.58,1.3,10.11,10.11,0,0,1-.11,6.44C52.19,28.32,51.17,29.63,47,31.65Z" fill="#fff" stroke="#3a494f" stroke-miterlimit="10" stroke-width="1.4"/><path d="M48.11,43.94l.11-1.62A1.65,1.65,0,0,1,49,41.05l3-1.82a1.66,1.66,0,0,1,.72-.24l1.74-.16a1.67,1.67,0,0,1,1.35.49l3.12,3.15a.6.6,0,0,1,.13.65l-1.89,4.73-1.52.38H54.47l-1.72-2.4a.88.88,0,0,0-1-.34l-1,.26a2.4,2.4,0,0,1-2-.38h0A1.6,1.6,0,0,1,48.11,43.94Z" fill="#fff" stroke="#3a494f" stroke-miterlimit="10" stroke-width="1.4"/><path d="M60.9,17.46s-2.88,2-2.79,3.91c.12,2.65,2.58,1.72,2.77,6.48.17,4.2-1.45,5.43-1,6.83a8.33,8.33,0,0,0,1.29,2.52l10.61-.37L67.35,18.05Z" fill="#fff" stroke="#3a494f" stroke-miterlimit="10" stroke-width="1.4"/></g><circle cx="45.66" cy="28" r="19.91" fill="none" stroke="#3a494f" stroke-miterlimit="10" stroke-width="1.4"/></g></svg>