<svg xmlns="http://www.w3.org/2000/svg" viewBox="0 0 101 100.05"><title>emission</title><g id="圖例們"><path d="M48.61,3.11,6.74,34.45A3.13,3.13,0,0,0,5.48,37V94.42a3.15,3.15,0,0,0,3.15,3.16H92.37a3.15,3.15,0,0,0,3.15-3.16V37a3.13,3.13,0,0,0-1.26-2.52L52.39,3.11A3.15,3.15,0,0,0,48.61,3.11Z" fill="#fff" stroke="#3a494f" stroke-miterlimit="10" stroke-width="2"/><path d="M67,36.14h-7a2.38,2.38,0,0,0-2.39,2.1,2.33,2.33,0,0,0,.22,1.27.19.19,0,0,1-.16.28h0a1.8,1.8,0,0,0-1.81,1.51,1.77,1.77,0,0,0,1.76,2h2.83A1.77,1.77,0,0,0,62.25,41a.14.14,0,0,1,.13-.18H67a2.38,2.38,0,0,0,2.37-2A2.34,2.34,0,0,0,67,36.14Z" fill="#828282" stroke="#3a494f" stroke-miterlimit="10" stroke-width="0.66"/><path d="M42.26,32.29H35.31a2.39,2.39,0,0,0-2.39,2.1,2.25,2.25,0,0,0,.23,1.27A.19.19,0,0,1,33,36h0a1.8,1.8,0,0,0-1.81,1.51,1.77,1.77,0,0,0,1.76,2h2.83a1.77,1.77,0,0,0,1.72-2.33.14.14,0,0,1,.14-.18H42.2a2.38,2.38,0,0,0,2.37-2A2.34,2.34,0,0,0,42.26,32.29Z" fill="#828282" stroke="#3a494f" stroke-miterlimit="10" stroke-width="0.66"/><rect x="67.29" y="34.12" width="4.16" height="3.54" rx="1.77" ry="1.77" transform="translate(-0.06 0.12) rotate(-0.1)" fill="#828282" stroke="#3a494f" stroke-miterlimit="10" stroke-width="0.66"/><circle cx="68.52" cy="28.17" r="1.53" fill="#828282" stroke="#3a494f" stroke-miterlimit="10" stroke-width="0.62"/><path d="M79.59,53.83l0,.23-.29.45a.09.09,0,0,1,0,0h-.44a0,0,0,0,1,0,0s.29-.43.58-.84a9.08,9.08,0,0,1-.51-.76,0,0,0,0,1,0,0l.42,0a.05.05,0,0,1,0,0l.24.41,0,.23,0-.23.26-.41a.05.05,0,0,1,0,0h.44a0,0,0,0,1,0,0s-.27.4-.55.79l.59.84s0,0,0,0H80a.09.09,0,0,1,0,0l-.29-.45Z" fill="#3a494f"/><path d="M69.45,54.48a.06.06,0,0,1-.06.06h-.78a.06.06,0,0,1-.06-.06V50.17a.06.06,0,0,1,.06-.06l.52-.07h.71s0,0,.06.07l1.41,3,.13.51V50.17s0-.06.07-.06l.77-.07a.07.07,0,0,1,.06.07v4.37a.06.06,0,0,1-.06.06H71.06s0,0-.07-.06l-1.41-3-.13-.52Z" fill="#3a494f"/><path d="M75.52,50c1.58,0,2.06,1,2.06,2.31s-.48,2.32-2.06,2.32-2-1-2-2.32S74,50,75.52,50Zm0,3.92c.9,0,1.13-.77,1.13-1.61s-.23-1.6-1.13-1.6-1.12.77-1.12,1.6S74.62,53.9,75.52,53.9Z" fill="#3a494f"/><path d="M62.17,26.41h-6a2,2,0,0,0-2,2.05,2,2,0,0,0,.3,1H48.5a1.82,1.82,0,0,0,0,3.64h9.27a1.82,1.82,0,0,0,1.82-1.82,1.71,1.71,0,0,0-.21-.81h2.79a2.05,2.05,0,0,0,0-4.1Z" fill="#828282" stroke="#3a494f" stroke-miterlimit="10" stroke-width="0.66"/><rect x="31.33" y="41.28" width="5.65" height="35.47" fill="#515151" stroke="#3a494f" stroke-miterlimit="10" stroke-width="0.66"/><path d="M36,38.91H32.29a1,1,0,0,0-1,1v1.41H37V39.87A1,1,0,0,0,36,38.91Z" fill="#828282" stroke="#3a494f" stroke-miterlimit="10" stroke-width="0.66"/><path d="M60.61,42.79H56.88a1,1,0,0,0-1,1v1.39h5.65V43.75A1,1,0,0,0,60.61,42.79Z" fill="#828282" stroke="#3a494f" stroke-miterlimit="10" stroke-width="0.66"/><rect x="55.92" y="45.14" width="5.65" height="31.61" fill="#515151" stroke="#3a494f" stroke-miterlimit="10" stroke-width="0.66"/><path d="M26.36,72.16C26.36,64.33,36.89,58,49.87,58s23.51,6.35,23.51,14.18" fill="#ccc" stroke="#3a494f" stroke-miterlimit="10" stroke-width="1.32"/><path d="M26.36,74.33h47a0,0,0,0,1,0,0V89a0,0,0,0,1,0,0H27.22a.86.86,0,0,1-.86-.86V74.33A0,0,0,0,1,26.36,74.33Z" fill="#828282" stroke="#3a494f" stroke-miterlimit="10" stroke-width="1.32"/><rect x="32.75" y="74.33" width="5.91" height="14.31" fill="#ccc" stroke="#3a494f" stroke-miterlimit="10" stroke-width="0.62"/><rect x="46.92" y="74.33" width="5.91" height="14.31" fill="#ccc" stroke="#3a494f" stroke-miterlimit="10" stroke-width="0.62"/><rect x="61.08" y="74.33" width="5.91" height="14.31" fill="#ccc" stroke="#3a494f" stroke-miterlimit="10" stroke-width="0.62"/><line x1="47.73" y1="61.16" x2="48.56" y2="61.76" fill="none" stroke="#515151" stroke-miterlimit="10" stroke-width="0.6"/><line x1="46.03" y1="63.49" x2="46.87" y2="64.1" fill="none" stroke="#515151" stroke-miterlimit="10" stroke-width="0.6"/><line x1="42.21" y1="61.16" x2="43.05" y2="61.76" fill="none" stroke="#515151" stroke-miterlimit="10" stroke-width="0.6"/><line x1="36.14" y1="62.97" x2="36.98" y2="63.58" fill="none" stroke="#515151" stroke-miterlimit="10" stroke-width="0.6"/><line x1="63.62" y1="63.49" x2="64.45" y2="64.1" fill="none" stroke="#515151" stroke-miterlimit="10" stroke-width="0.6"/><line x1="39.52" y1="65.73" x2="40.36" y2="66.33" fill="none" stroke="#515151" stroke-miterlimit="10" stroke-width="0.6"/><line x1="51.15" y1="62.53" x2="51.98" y2="63.14" fill="none" stroke="#515151" stroke-miterlimit="10" stroke-width="0.6"/><line x1="50.06" y1="64.9" x2="50.89" y2="65.51" fill="none" stroke="#515151" stroke-miterlimit="10" stroke-width="0.6"/><line x1="46.92" y1="66.51" x2="47.75" y2="67.11" fill="none" stroke="#515151" stroke-miterlimit="10" stroke-width="0.6"/><line x1="55.92" y1="61.8" x2="56.75" y2="62.41" fill="none" stroke="#515151" stroke-miterlimit="10" stroke-width="0.6"/><line x1="53.88" y1="63.97" x2="54.72" y2="64.58" fill="none" stroke="#515151" stroke-miterlimit="10" stroke-width="0.6"/><line x1="59.49" y1="63.37" x2="60.32" y2="63.97" fill="none" stroke="#515151" stroke-miterlimit="10" stroke-width="0.6"/><line x1="57.17" y1="66.05" x2="58.01" y2="66.65" fill="none" stroke="#515151" stroke-miterlimit="10" stroke-width="0.6"/><line x1="52.83" y1="66.92" x2="53.67" y2="67.53" fill="none" stroke="#515151" stroke-miterlimit="10" stroke-width="0.6"/><line x1="42.08" y1="64.46" x2="42.91" y2="65.07" fill="none" stroke="#515151" stroke-miterlimit="10" stroke-width="0.6"/><path d="M44.67,27.41s.06.61.06.63a.06.06,0,0,1-.06.06,5.07,5.07,0,0,1-1.13.13c-1.88,0-2.06-1.35-2.06-2.25s.18-2.26,2.06-2.26a3.44,3.44,0,0,1,1.06.19.14.14,0,0,1,.07.06s.06.6.06.63a.06.06,0,0,1-.06.06,4.47,4.47,0,0,0-1.13-.25c-1,0-1.16,1-1.16,1.57s.16,1.56,1.16,1.56a4.54,4.54,0,0,0,1.06-.19A.09.09,0,0,1,44.67,27.41Z" fill="#3a494f"/><path d="M47.59,23.72c1.54,0,2,1,2,2.26s-.47,2.25-2,2.25-2-1-2-2.25S46.06,23.72,47.59,23.72Zm0,3.82c.88,0,1.1-.75,1.1-1.56s-.22-1.57-1.1-1.57S46.5,25.16,46.5,26,46.72,27.54,47.59,27.54Z" fill="#3a494f"/><path d="M50.16,26.29s0-.33,0-.33l0,0a1.68,1.68,0,0,1,.53-.09c.71,0,.85.25.85.65,0,.75-1,.66-1,1.32h1s0,0,0,0,0,.29,0,.29,0,0,0,0H50.19a0,0,0,0,1,0,0V27.8c0-.94,1-.89,1-1.32,0-.15-.07-.29-.39-.29a2.05,2.05,0,0,0-.57.13A0,0,0,0,1,50.16,26.29Z" fill="#3a494f"/><path d="M53.1,45.65H52s0,0,0,0v-.33l.93-1.36a.1.1,0,0,1,0,0l.27,0h.33a0,0,0,0,1,0,0v1.4h.3a0,0,0,0,1,0,0s0,.3,0,.3,0,0,0,0h-.27v.5a0,0,0,0,1,0,0h-.4a0,0,0,0,1,0,0ZM53,44.42l-.53.79-.17.07h.77V44.22Z" fill="#3a494f"/><path d="M44.52,45.55c.6,0,.69-.36.69-.57s-.36-.46-.75-.58c-.7-.23-1.52-.56-1.52-1.44s.34-1.26,1.58-1.26a2.79,2.79,0,0,1,1.13.19s.06,0,.07.07.06.6.06.63a.06.06,0,0,1-.06.06,3.45,3.45,0,0,0-1.2-.25c-.6,0-.69.35-.69.56s.36.46.75.59c.7.22,1.52.56,1.52,1.43s-.34,1.26-1.58,1.26A3.56,3.56,0,0,1,43.13,46a.17.17,0,0,1-.06-.06S43,45.32,43,45.3a.08.08,0,0,1,.06-.07A5.54,5.54,0,0,0,44.52,45.55Z" fill="#3a494f"/><path d="M48.91,41.7c1.54,0,2,1,2,2.27s-.48,2.27-2,2.27-2-1-2-2.27S47.36,41.7,48.91,41.7Zm0,3.85c.88,0,1.1-.76,1.1-1.58s-.22-1.57-1.1-1.57-1.1.75-1.1,1.57S48,45.55,48.91,45.55Z" fill="#3a494f"/><rect x="26.36" y="72.16" width="47.03" height="2.17" fill="#515151" stroke="#3a494f" stroke-miterlimit="10" stroke-width="1.32"/><path d="M74.85,88.44V72.68H57V88.44a.68.68,0,0,0,.54.67,44.13,44.13,0,0,0,16.73,0A.69.69,0,0,0,74.85,88.44Z" fill="#ccc" stroke="#3a494f" stroke-miterlimit="10" stroke-width="0.88"/><ellipse cx="65.94" cy="72.53" rx="8.99" ry="0.83" fill="#ccc" stroke="#3a494f" stroke-miterlimit="10" stroke-width="0.88"/><path d="M74.92,76.11a37.42,37.42,0,0,1-9,.83c-5,0-8.42-.54-9-.83" fill="none" stroke="#3a494f" stroke-miterlimit="10" stroke-width="0.6"/><path d="M74.92,79.3a37.42,37.42,0,0,1-9,.83c-5,0-8.42-.54-9-.83" fill="none" stroke="#3a494f" stroke-miterlimit="10" stroke-width="0.6"/><path d="M74.92,82.49a37.42,37.42,0,0,1-9,.83c-5,0-8.42-.54-9-.83" fill="none" stroke="#3a494f" stroke-miterlimit="10" stroke-width="0.6"/></g></svg>