<svg xmlns="http://www.w3.org/2000/svg" viewBox="0 0 101 100.05"><title>factory</title><g id="圖例們"><path d="M48.61,3.11,6.74,34.45A3.13,3.13,0,0,0,5.48,37V94.42a3.15,3.15,0,0,0,3.15,3.16H92.37a3.15,3.15,0,0,0,3.15-3.16V37a3.13,3.13,0,0,0-1.26-2.52L52.39,3.11A3.15,3.15,0,0,0,48.61,3.11Z" fill="#fff" stroke="#3a494f" stroke-miterlimit="10" stroke-width="2"/><path d="M70.51,39.31l-12.42,0a4.19,4.19,0,0,0-3.87,6,.33.33,0,0,1-.29.48h0a3.25,3.25,0,0,0-3.24,2.72,3.17,3.17,0,0,0,3.14,3.62h5.06A3.2,3.2,0,0,0,62,49.83,3.13,3.13,0,0,0,62,48a.26.26,0,0,1,.24-.34h8.2a4.25,4.25,0,0,0,4.24-3.5A4.19,4.19,0,0,0,70.51,39.31Z" fill="#828282" stroke="#3a494f" stroke-miterlimit="10" stroke-width="1.18"/><rect x="67.36" y="35.06" width="7.43" height="6.32" rx="2.71" ry="2.71" transform="translate(-0.06 0.12) rotate(-0.1)" fill="#828282" stroke="#3a494f" stroke-miterlimit="10" stroke-width="1.18"/><path d="M77.65,84.48A74.36,74.36,0,0,1,70,55.53l-20.58,0a74.2,74.2,0,0,1-7.54,29A1.26,1.26,0,0,0,43,86.36l16.76,0,16.81,0A1.25,1.25,0,0,0,77.65,84.48Z" fill="#ccc" stroke="#39484e" stroke-miterlimit="10" stroke-width="1.18"/><path d="M69.85,51.56a.78.78,0,0,0-.79-.78l-18.78,0a.78.78,0,0,0-.78.79c0,1.32,0,2.65-.11,4l20.58,0C69.9,54.21,69.85,52.89,69.85,51.56Z" fill="#828282" stroke="#39484e" stroke-miterlimit="10" stroke-width="1.18"/><path d="M51.64,30.55H42.13a2.62,2.62,0,0,0-2.58,2,2.55,2.55,0,0,0,0,.91.48.48,0,0,1-.47.56H37.16a3.24,3.24,0,0,0-3.26,3,3.19,3.19,0,0,0,.19,1.31.36.36,0,0,1-.24.48,2.83,2.83,0,0,0-2.08,2.73h0a2.78,2.78,0,0,0,1.9,2.67,2.83,2.83,0,0,0,3.75-2.68h0a2.54,2.54,0,0,0-.15-.88.21.21,0,0,1,.2-.27l6.48,0a.21.21,0,0,1,.2.27,2.91,2.91,0,0,0-.14.89h0a2.78,2.78,0,0,0,1.9,2.67,2.83,2.83,0,0,0,3.75-2.68h0a2.85,2.85,0,0,0-2.28-2.77.36.36,0,0,1-.28-.48,3.12,3.12,0,0,0,.19-1.07,3.39,3.39,0,0,0-.14-.91.48.48,0,0,1,.45-.62h3.94a2.63,2.63,0,0,0,2.66-2.48A2.55,2.55,0,0,0,51.64,30.55Z" fill="#828282" stroke="#3a494f" stroke-miterlimit="10" stroke-width="1.18"/><rect x="57.2" y="30.42" width="5.35" height="3.74" rx="1.87" ry="1.87" transform="translate(-0.05 0.1) rotate(-0.1)" fill="#828282" stroke="#3a494f" stroke-miterlimit="10" stroke-width="1.18"/><rect x="32.55" y="56.89" width="4.88" height="29.33" transform="translate(-0.12 0.06) rotate(-0.1)" fill="#fff" stroke="#3a494f" stroke-miterlimit="10" stroke-width="1.18"/><path d="M36.37,42.1H33.52a1,1,0,0,0-1,1l0,6.64H37.4V43.11A1,1,0,0,0,36.37,42.1Z" fill="#fff" stroke="#3a494f" stroke-miterlimit="10" stroke-width="1.18"/><rect x="32.41" y="49.75" width="5.09" height="1.4" transform="translate(-0.09 0.06) rotate(-0.1)" fill="#828282" stroke="#3a494f" stroke-miterlimit="10" stroke-width="0.95"/><rect x="32.52" y="51.15" width="4.88" height="4.34" transform="translate(-0.09 0.06) rotate(-0.1)" fill="#fff" stroke="#3a494f" stroke-miterlimit="10" stroke-width="1.18"/><rect x="32.42" y="55.49" width="5.09" height="1.4" transform="translate(-0.1 0.06) rotate(-0.1)" fill="#828282" stroke="#3a494f" stroke-miterlimit="10" stroke-width="0.95"/><rect x="43.56" y="51.13" width="4.88" height="4.34" transform="translate(-0.09 0.08) rotate(-0.1)" fill="#fff" stroke="#3a494f" stroke-miterlimit="10" stroke-width="1.18"/><rect x="43.59" y="56.87" width="4.88" height="29.33" transform="translate(-0.12 0.08) rotate(-0.1)" fill="#fff" stroke="#3a494f" stroke-miterlimit="10" stroke-width="1.18"/><path d="M47.41,42.08H44.56a1,1,0,0,0-1,1v6.64h4.88V43.09A1,1,0,0,0,47.41,42.08Z" fill="#fff" stroke="#3a494f" stroke-miterlimit="10" stroke-width="1.18"/><rect x="43.45" y="49.73" width="5.09" height="1.4" transform="translate(-0.09 0.08) rotate(-0.1)" fill="#828282" stroke="#3a494f" stroke-miterlimit="10" stroke-width="0.95"/><rect x="43.46" y="55.47" width="5.09" height="1.4" transform="translate(-0.1 0.08) rotate(-0.1)" fill="#828282" stroke="#3a494f" stroke-miterlimit="10" stroke-width="0.95"/><path d="M54.11,74V71.27a1.9,1.9,0,0,0-1.9-1.9l-30,0V86.24l35.38-.06a2.11,2.11,0,0,0,2.11-2.12V77.33a2.11,2.11,0,0,0-2.12-2.11H55.29A1.18,1.18,0,0,1,54.11,74Z" fill="#828282" stroke="#39484e" stroke-miterlimit="10" stroke-width="1.18"/><rect x="28.02" y="78.92" width="3.46" height="1.13" rx="0.49" ry="0.49" transform="translate(-0.13 0.05) rotate(-0.1)" fill="#fff" stroke="#fff" stroke-miterlimit="10" stroke-width="0.59"/><rect x="34.34" y="78.91" width="3.46" height="1.13" rx="0.49" ry="0.49" transform="translate(-0.13 0.06) rotate(-0.1)" fill="#fff" stroke="#fff" stroke-miterlimit="10" stroke-width="0.59"/><rect x="28.01" y="74.55" width="3.46" height="1.13" rx="0.49" ry="0.49" transform="translate(-0.13 0.05) rotate(-0.1)" fill="#fff" stroke="#fff" stroke-miterlimit="10" stroke-width="0.59"/><rect x="34.33" y="74.54" width="3.46" height="1.13" rx="0.49" ry="0.49" transform="translate(-0.13 0.06) rotate(-0.1)" fill="#fff" stroke="#fff" stroke-miterlimit="10" stroke-width="0.59"/><rect x="40.4" y="78.93" width="3.46" height="1.13" rx="0.49" ry="0.49" transform="translate(-0.13 0.07) rotate(-0.1)" fill="#fff" stroke="#fff" stroke-miterlimit="10" stroke-width="0.59"/><rect x="40.4" y="74.53" width="3.46" height="1.13" rx="0.49" ry="0.49" transform="translate(-0.13 0.07) rotate(-0.1)" fill="#fff" stroke="#fff" stroke-miterlimit="10" stroke-width="0.59"/><rect x="46.57" y="78.93" width="3.46" height="1.13" rx="0.49" ry="0.49" transform="translate(-0.13 0.08) rotate(-0.1)" fill="#fff" stroke="#fff" stroke-miterlimit="10" stroke-width="0.59"/><rect x="46.57" y="74.53" width="3.46" height="1.13" rx="0.49" ry="0.49" transform="translate(-0.13 0.08) rotate(-0.1)" fill="#fff" stroke="#fff" stroke-miterlimit="10" stroke-width="0.59"/><circle cx="68.99" cy="31.82" r="1.73" fill="#828282" stroke="#3a494f" stroke-miterlimit="10" stroke-width="1.18"/></g></svg>