<svg xmlns="http://www.w3.org/2000/svg" viewBox="0 0 91.31 56"><title>germany</title><g id="圖例們"><path d="M11.8,46.07h52a1.42,1.42,0,0,0,1.42-1.42V34H10.39V44.65A1.41,1.41,0,0,0,11.8,46.07Z" fill="#ccc" stroke="#3a494f" stroke-miterlimit="10" stroke-width="1.09"/><rect x="10.39" y="21.95" width="54.78" height="12.06" fill="#828282" stroke="#3a494f" stroke-miterlimit="10" stroke-width="1.09"/><path d="M63.75,9.89H11.8a1.42,1.42,0,0,0-1.41,1.42V22H65.17V11.31A1.43,1.43,0,0,0,63.75,9.89Z" fill="#515151" stroke="#3a494f" stroke-miterlimit="10" stroke-width="1.09"/><path d="M51.43,31.51H78.3a0,0,0,0,1,0,0v14a.59.59,0,0,1-.59.59H52a.59.59,0,0,1-.59-.59v-14A0,0,0,0,1,51.43,31.51Z" fill="#fff" stroke="#3a494f" stroke-miterlimit="10" stroke-width="0.9"/><path d="M75.35,22.62a.37.37,0,0,0-.31-.17H54.69a.37.37,0,0,0-.31.17l-5.51,8.29a.38.38,0,0,0,.32.6H80.54a.38.38,0,0,0,.32-.6Z" fill="#27c1ae" stroke="#3a494f" stroke-miterlimit="10" stroke-width="0.9"/><path d="M61.58,38.81h6.57a.56.56,0,0,1,.56.56V46.1a0,0,0,0,1,0,0H61a0,0,0,0,1,0,0V39.37A.56.56,0,0,1,61.58,38.81Z" fill="#fff" stroke="#3a494f" stroke-miterlimit="10" stroke-width="0.88"/><path d="M77.82,30.05H51.91a.17.17,0,0,1-.14-.26l3.64-6a.16.16,0,0,1,.14-.08H74.19a.16.16,0,0,1,.14.08l3.63,6A.17.17,0,0,1,77.82,30.05Z" fill="#fff" stroke="#3a494f" stroke-miterlimit="10" stroke-width="0.48"/><path d="M75.77,29.22,54,29.15a.15.15,0,0,1-.13-.23l2.62-4.35a.17.17,0,0,1,.13-.07H73.12a.14.14,0,0,1,.13.07L75.91,29A.15.15,0,0,1,75.77,29.22Z" fill="#ccc" stroke="#3a494f" stroke-miterlimit="10" stroke-width="0.38"/><polygon points="58.8 26.44 56.57 26.3 57.2 25.28 59.27 25.23 58.8 26.44" fill="#27c1ae"/><polygon points="62.2 26.5 59.97 26.36 60.59 25.34 62.67 25.29 62.2 26.5" fill="#27c1ae"/><polygon points="65.68 26.5 63.67 26.37 63.73 25.19 65.96 25.29 65.68 26.5" fill="#27c1ae"/><polygon points="69.54 26.44 67.12 26.42 67.18 25.24 69.21 25.19 69.54 26.44" fill="#27c1ae"/><polygon points="73.02 26.44 70.87 26.43 70.33 25.25 72.38 25.19 73.02 26.44" fill="#27c1ae"/><polygon points="57.92 28.54 55.69 28.4 56.31 27.38 58.39 27.33 57.92 28.54" fill="#27c1ae"/><polygon points="61.74 28.49 59.51 28.35 60.13 27.33 62.21 27.28 61.74 28.49" fill="#27c1ae"/><polygon points="65.73 28.47 63.72 28.47 63.7 27.28 65.93 27.24 65.73 28.47" fill="#27c1ae"/><polygon points="70.33 28.48 67.91 28.47 67.62 27.29 70 27.23 70.33 28.48" fill="#27c1ae"/><polygon points="73.95 28.48 71.8 28.47 71.26 27.29 73.31 27.24 73.95 28.48" fill="#27c1ae"/><path d="M56.94,26.33H58.5a.28.28,0,0,0,.23-.13l.35-.61a.16.16,0,0,0-.14-.25H57.42a.25.25,0,0,0-.23.13l-.38.64A.15.15,0,0,0,56.94,26.33Zm1.77.37H56.49a.27.27,0,0,1-.23-.4L57,25.1A.28.28,0,0,1,57.2,25h2.22a.26.26,0,0,1,.23.4l-.71,1.2A.25.25,0,0,1,58.71,26.7Z" fill="#3a494f"/><path d="M60.45,26.33H62a.28.28,0,0,0,.26-.19l.18-.62a.14.14,0,0,0-.14-.18H60.74a.28.28,0,0,0-.26.19l-.17.6A.15.15,0,0,0,60.45,26.33Zm1.89.37H60.06a.27.27,0,0,1-.26-.34l.36-1.2a.26.26,0,0,1,.25-.19H62.7a.26.26,0,0,1,.25.34l-.35,1.2A.26.26,0,0,1,62.34,26.7Z" fill="#3a494f"/><path d="M64.08,26.33h1.44a.26.26,0,0,0,.26-.27v-.45a.26.26,0,0,0-.26-.27H64.08a.27.27,0,0,0-.27.27v.45A.27.27,0,0,0,64.08,26.33ZM66,26.7h-2.3a.27.27,0,0,1-.27-.26V25.23a.27.27,0,0,1,.27-.26H66a.27.27,0,0,1,.27.26v1.21A.27.27,0,0,1,66,26.7Z" fill="#3a494f"/><path d="M67.58,26.33h1.56a.15.15,0,0,0,.15-.2l-.17-.6a.28.28,0,0,0-.26-.19H67.33a.17.17,0,0,0-.17.23l.16.57A.28.28,0,0,0,67.58,26.33Zm2,.37H67.26a.26.26,0,0,1-.26-.19l-.35-1.2A.26.26,0,0,1,66.9,25h2.28a.26.26,0,0,1,.26.19l.36,1.2A.27.27,0,0,1,69.54,26.7Z" fill="#3a494f"/><path d="M71.1,26.33h1.6a.13.13,0,0,0,.11-.19l-.4-.67a.25.25,0,0,0-.23-.13H70.66a.17.17,0,0,0-.14.26l.35.6A.28.28,0,0,0,71.1,26.33Zm2,.37H70.89a.28.28,0,0,1-.24-.13l-.7-1.2a.26.26,0,0,1,.23-.4H72.4a.28.28,0,0,1,.23.13l.71,1.2A.27.27,0,0,1,73.11,26.7Z" fill="#3a494f"/><path d="M56.12,28.38h1.56a.28.28,0,0,0,.23-.13l.35-.6a.17.17,0,0,0-.14-.26H56.59a.28.28,0,0,0-.23.13l-.37.64A.14.14,0,0,0,56.12,28.38Zm1.77.38H55.67a.27.27,0,0,1-.23-.41l.71-1.2a.26.26,0,0,1,.23-.13H58.6a.26.26,0,0,1,.23.4l-.71,1.2A.25.25,0,0,1,57.89,28.76Z" fill="#3a494f"/><path d="M59.93,28.38H61.5a.26.26,0,0,0,.25-.19l.19-.62a.15.15,0,0,0-.14-.18H60.22a.27.27,0,0,0-.26.19l-.18.6A.16.16,0,0,0,59.93,28.38Zm1.89.38H59.54a.28.28,0,0,1-.26-.35l.36-1.2a.26.26,0,0,1,.25-.19h2.29a.27.27,0,0,1,.25.34l-.35,1.2A.27.27,0,0,1,61.82,28.76Z" fill="#3a494f"/><path d="M64.08,28.38h1.44a.26.26,0,0,0,.26-.27v-.45a.26.26,0,0,0-.26-.27H64.08a.27.27,0,0,0-.27.27v.45A.27.27,0,0,0,64.08,28.38Zm1.87.38h-2.3a.27.27,0,0,1-.27-.27v-1.2a.27.27,0,0,1,.27-.27H66a.27.27,0,0,1,.27.27v1.2A.27.27,0,0,1,66,28.76Z" fill="#3a494f"/><path d="M68.28,28.38h1.56a.15.15,0,0,0,.15-.2l-.17-.6a.27.27,0,0,0-.26-.19H68a.18.18,0,0,0-.17.23l.17.57A.26.26,0,0,0,68.28,28.38Zm2,.38H68a.27.27,0,0,1-.26-.2l-.35-1.2A.27.27,0,0,1,67.6,27h2.29a.26.26,0,0,1,.25.19l.36,1.2A.28.28,0,0,1,70.24,28.76Z" fill="#3a494f"/><path d="M72.06,28.38h1.6a.13.13,0,0,0,.11-.19l-.39-.67a.28.28,0,0,0-.23-.13H71.62a.17.17,0,0,0-.14.26l.35.6A.28.28,0,0,0,72.06,28.38Zm2,.38H71.85a.25.25,0,0,1-.23-.14l-.71-1.2a.26.26,0,0,1,.23-.4h2.22a.28.28,0,0,1,.23.13l.71,1.2A.28.28,0,0,1,74.07,28.76Z" fill="#3a494f"/><rect x="75.5" y="17.31" width="0.46" height="7.66" fill="#fff" stroke="#3a494f" stroke-miterlimit="10" stroke-width="0.25"/><path d="M76,12.05s0,0,0,0a6.67,6.67,0,0,0-.27,4.89l.06.18.07-.17A6.69,6.69,0,0,0,76,12.05Z" fill="#fff" stroke="#3a494f" stroke-miterlimit="10" stroke-width="0.25"/><path d="M79.94,19.76s0,0,0,0A6.73,6.73,0,0,0,75.91,17l-.18,0,.1.15A6.69,6.69,0,0,0,79.94,19.76Z" fill="#fff" stroke="#3a494f" stroke-miterlimit="10" stroke-width="0.25"/><path d="M71.06,18.75s0,0,0-.06a6.73,6.73,0,0,1,4.6-1.7h.18l-.14.12A6.71,6.71,0,0,1,71.06,18.75Z" fill="#fff" stroke="#3a494f" stroke-miterlimit="10" stroke-width="0.25"/><circle cx="75.73" cy="16.99" r="0.45" fill="#ccc" stroke="#3a494f" stroke-miterlimit="10" stroke-width="0.25"/></g></svg>