<svg xmlns="http://www.w3.org/2000/svg" viewBox="0 0 91.31 56"><title>kangaroo</title><g id="圖例們"><path d="M38.94,42.45V51.2a.67.67,0,0,1-.68.68H34.32A1.62,1.62,0,0,0,32.7,53.5h0a.4.4,0,0,0,.4.4h7.3a1,1,0,0,0,1-1V42.45Z" fill="#fff" stroke="#39484e" stroke-miterlimit="10" stroke-width="0.96"/><path d="M27.54,8.3l-.6-6.05a.17.17,0,0,0-.19-.15,15.46,15.46,0,0,0-.06,6.34" fill="#fff" stroke="#3a494f" stroke-miterlimit="10" stroke-width="0.62"/><path d="M26.69,8.44a15.46,15.46,0,0,1,.06-6.34l-.09,0A5.17,5.17,0,0,0,25,6.64l.25,2" fill="#ccc" stroke="#3a494f" stroke-miterlimit="10" stroke-width="0.62"/><line x1="31.07" y1="24.02" x2="27.38" y2="23.16" fill="#fff" stroke="#39484e" stroke-miterlimit="10" stroke-width="0.96"/><path d="M27.38,23.16l.78,6.65-3.24,8.82-.41,1.11a.43.43,0,0,0,.14.49l.3.22a.42.42,0,0,0,.61-.12l.53-.86,5-8.06V24" fill="#fff" stroke="#39484e" stroke-miterlimit="10" stroke-width="0.96"/><path d="M38.29,34.6l-1.66-2.16-5,3.82,2.71,3A15.45,15.45,0,0,0,38,42.11a5.41,5.41,0,0,0,.3-7.51Z" fill="#ccc" stroke="#39484e" stroke-miterlimit="10" stroke-width="0.96"/><path d="M41.78,20.57H37.26a1.18,1.18,0,0,1-1.11-.79l-1.53-4.56h0l-1.53-5.7a3.08,3.08,0,0,0-3-2.29H28.36A4.5,4.5,0,0,0,24.7,9.1l-1.06,1.46a4,4,0,0,1-1.71,1.35,3.13,3.13,0,0,1-.54.19l-.52.14-.32.12a1.75,1.75,0,0,0-1,1.37,2.18,2.18,0,0,0,.17,1.32.73.73,0,0,0,.65.4l2,0,4.25-.07a.43.43,0,0,1,.43.43V25.6a14.32,14.32,0,0,0,3.79,9.71l.87.95,5-3.82,1.66,2.16a5.41,5.41,0,0,1-.3,7.51,15.42,15.42,0,0,0,7.62,2v7a.68.68,0,0,1-.69.68H41a1.62,1.62,0,0,0-1.61,1.62.4.4,0,0,0,.4.4h7.29a1,1,0,0,0,1-1V44.16l6.35,0V33.26A12.69,12.69,0,0,0,41.78,20.57Z" fill="#fff" stroke="#39484e" stroke-miterlimit="10" stroke-width="0.96"/><path d="M29.94,8.3l.6-6.05a.17.17,0,0,1,.19-.15,15.46,15.46,0,0,1,.06,6.34" fill="#fff" stroke="#3a494f" stroke-miterlimit="10" stroke-width="0.62"/><path d="M30.79,8.44a15.46,15.46,0,0,0-.06-6.34l.09,0a5.17,5.17,0,0,1,1.7,4.5l-.25,2" fill="#ccc" stroke="#3a494f" stroke-miterlimit="10" stroke-width="0.62"/><circle cx="29.08" cy="9.76" r="0.44" fill="#3a494f"/><circle cx="26.1" cy="9.76" r="0.44" fill="#3a494f"/><path d="M54.46,40.28v9.45a1.06,1.06,0,0,0,1,1.06l15.37,1a1,1,0,0,1,1,1h0a1,1,0,0,1-1,1H51.86a1.3,1.3,0,0,1-1.3-1.29V40.28" fill="#fff" stroke="#39484e" stroke-miterlimit="10" stroke-width="0.96"/><path d="M21.18,13.21c.22.3-.21,1.15-.76,1.3s-1.27-1.07-.72-1.37C20,13,21,13,21.18,13.21Z" fill="#ccc" stroke="#3a494f" stroke-miterlimit="10" stroke-width="0.48"/><path d="M32.83,23.75l.78,6.65-3.24,8.82L30,40.33a.45.45,0,0,0,.14.49l.3.22a.42.42,0,0,0,.61-.12l.53-.86,5-8.05v-7.4" fill="#fff" stroke="#39484e" stroke-miterlimit="10" stroke-width="0.96"/></g></svg>