<svg xmlns="http://www.w3.org/2000/svg" viewBox="0 0 91.31 56"><title>meter</title><g id="圖例們"><path d="M29.28,17.07l3.21,3.12s-5.24,5.92-5.2,10,.9,10.34,3.32,13.25l-4,2.54s-5.77-9.25-3.76-15.79S24.4,23.71,29.28,17.07Z" fill="#27c1ae"/><polygon points="45.87 10.02 45.87 14.5 38.46 16.03 32.01 20.71 29.03 17.32 36.27 12.11 45.87 10.02" fill="#27c1ae"/><path d="M45.87,10V14.5S57.79,13.9,63.73,28L68,26.7s-2.66-9.22-9.29-12.76S50.93,10.59,45.87,10Z" fill="#828282"/><path d="M63.73,28l4.69-1.37S70.24,37.29,65.19,46l-4.14-2.62S66,38,63.73,28Z" fill="#515151"/><path d="M65,45.89a23.05,23.05,0,1,0-38.32,0" fill="none" stroke="#3a494f" stroke-miterlimit="10" stroke-width="2"/><path d="M61.28,43.5a18.84,18.84,0,0,0,3.16-10.43A18.58,18.58,0,1,0,30.52,43.5" fill="none" stroke="#3a494f" stroke-miterlimit="10" stroke-width="2"/><line x1="36.62" y1="22.47" x2="46.4" y2="32.8" fill="none" stroke="#3a494f" stroke-miterlimit="10" stroke-width="1.54"/><circle cx="46.4" cy="32.8" r="2.01" fill="#fff" stroke="#3a494f" stroke-miterlimit="10" stroke-width="1.54"/></g></svg>