<svg xmlns="http://www.w3.org/2000/svg" viewBox="0 0 91.31 56"><title>money</title><g id="圖例們"><circle cx="45.66" cy="28" r="19.42" fill="#ccc" stroke="#3a494f" stroke-miterlimit="10" stroke-width="1.87"/><path d="M45.74,33.84c2.26,0,2.62-1.33,2.62-2.14,0-1-1.36-1.74-2.85-2.21-2.62-.83-5.71-2.1-5.71-5.4,0-2.47,1-4.28,4.4-4.66v-2c0-.14.1-.21.24-.23L47.05,17a.22.22,0,0,1,.24.24v2.21a9.24,9.24,0,0,1,2.73.64c.12.05.22.12.24.24s.24,2.28.24,2.37a.23.23,0,0,1-.24.24A12.57,12.57,0,0,0,45.74,22c-2.25,0-2.61,1.33-2.61,2.14,0,1,1.35,1.74,2.85,2.21,2.62.83,5.71,2.09,5.71,5.4,0,2.47-1,4.28-4.4,4.66v2.23a.23.23,0,0,1-.24.24H44.44a.23.23,0,0,1-.24-.24V36.38a11.36,11.36,0,0,1-3.69-.88c-.11-.07-.21-.14-.23-.24S40,33,40,32.89a.25.25,0,0,1,.24-.24A21.14,21.14,0,0,0,45.74,33.84Z" fill="#fff"/></g></svg>