<svg xmlns="http://www.w3.org/2000/svg" viewBox="0 0 91.31 56"><title>netherland</title><g id="圖例們"><path d="M12.75,46.05H65a1.3,1.3,0,0,0,1.29-1.3V34H11.46V44.75A1.3,1.3,0,0,0,12.75,46.05Z" fill="#828282" stroke="#3a494f" stroke-miterlimit="10" stroke-width="1.09"/><rect x="11.46" y="21.93" width="54.78" height="12.06" fill="#fff" stroke="#3a494f" stroke-miterlimit="10" stroke-width="1.09"/><path d="M65,9.87H12.75a1.29,1.29,0,0,0-1.29,1.29V21.93H66.24V11.16A1.29,1.29,0,0,0,65,9.87Z" fill="#ccc" stroke="#3a494f" stroke-miterlimit="10" stroke-width="1.09"/><path d="M71.72,21.77A15.14,15.14,0,0,1,78,14a.16.16,0,0,1,.21.23c-1.44,1.81-5.53,7.19-6.11,11" fill="#27c1ae" stroke="#3a494f" stroke-miterlimit="10" stroke-width="0.59"/><path d="M72.06,27.27a14,14,0,0,1,7.61-8.11.12.12,0,0,1,.14.2c-1.81,1.73-7.42,7.46-8,12.64" fill="#27c1ae" stroke="#3a494f" stroke-miterlimit="10" stroke-width="0.59"/><path d="M71.9,38.64a10.58,10.58,0,0,1,4.35-5.41.12.12,0,0,1,.15.17c-1,1.26-3.86,5-4.27,7.68" fill="#27c1ae" stroke="#3a494f" stroke-miterlimit="10" stroke-width="0.59"/><path d="M72.14,42.48a9.77,9.77,0,0,1,5.31-5.66.09.09,0,0,1,.1.14c-1.27,1.21-5.18,5.2-5.56,8.82" fill="#27c1ae" stroke="#3a494f" stroke-miterlimit="10" stroke-width="0.59"/><path d="M71.85,37.14a10.54,10.54,0,0,0-4.35-5.4.11.11,0,0,0-.15.16c1,1.26,3.86,5,4.27,7.69" fill="#27c1ae" stroke="#3a494f" stroke-miterlimit="10" stroke-width="0.59"/><path d="M71.61,41a9.77,9.77,0,0,0-5.31-5.66.09.09,0,0,0-.1.15c1.27,1.2,5.18,5.2,5.56,8.81" fill="#27c1ae" stroke="#3a494f" stroke-miterlimit="10" stroke-width="0.59"/><path d="M72.25,23A15.14,15.14,0,0,0,66,15.23a.16.16,0,0,0-.21.24c1.44,1.8,5.53,7.18,6.11,11" fill="#27c1ae" stroke="#3a494f" stroke-miterlimit="10" stroke-width="0.59"/><path d="M71.91,28.49a14,14,0,0,0-7.61-8.12.13.13,0,0,0-.14.21c1.81,1.73,7.42,7.46,8,12.64" fill="#27c1ae" stroke="#3a494f" stroke-miterlimit="10" stroke-width="0.59"/><rect x="71.41" y="13.82" width="0.89" height="32.31" fill="#30b6a5" stroke="#3a494f" stroke-miterlimit="10" stroke-width="0.62"/></g></svg>