<svg xmlns="http://www.w3.org/2000/svg" viewBox="0 0 101 100.05"><title>network</title><g id="圖例們"><path d="M48.61,3.11,6.74,34.45A3.13,3.13,0,0,0,5.48,37V94.42a3.15,3.15,0,0,0,3.15,3.16H92.37a3.15,3.15,0,0,0,3.15-3.16V37a3.13,3.13,0,0,0-1.26-2.52L52.39,3.11A3.15,3.15,0,0,0,48.61,3.11Z" fill="#fff" stroke="#3a494f" stroke-miterlimit="10" stroke-width="2"/><line x1="20.52" y1="77.41" x2="82.65" y2="77.41" fill="none" stroke="#3a494f" stroke-miterlimit="10" stroke-width="1.07" stroke-dasharray="1.14"/><path d="M60.13,71.22H84.59a0,0,0,0,1,0,0V84a.54.54,0,0,1-.54.54H60.66a.54.54,0,0,1-.54-.54V71.22A0,0,0,0,1,60.13,71.22Z" fill="#fff" stroke="#3a494f" stroke-miterlimit="10" stroke-width="0.82"/><path d="M81.91,63.12a.35.35,0,0,0-.29-.15H63.1a.35.35,0,0,0-.29.15l-5,7.55a.35.35,0,0,0,.29.55H86.63a.35.35,0,0,0,.29-.55Z" fill="#27c1ae" stroke="#3a494f" stroke-miterlimit="10" stroke-width="0.82"/><path d="M69.37,77.86h6a.51.51,0,0,1,.51.51V84.5a0,0,0,0,1,0,0h-7a0,0,0,0,1,0,0V78.37A.51.51,0,0,1,69.37,77.86Z" fill="#fff" stroke="#3a494f" stroke-miterlimit="10" stroke-width="0.82"/><path d="M84.15,69.89H60.57a.16.16,0,0,1-.13-.24l3.31-5.49a.16.16,0,0,1,.13-.08h17a.16.16,0,0,1,.13.08l3.3,5.49A.16.16,0,0,1,84.15,69.89Z" fill="#fff" stroke="#3a494f" stroke-miterlimit="10" stroke-width="0.44"/><path d="M82.29,69.14l-19.86-.07a.14.14,0,0,1-.12-.21l2.38-4a.14.14,0,0,1,.12-.07H79.88a.15.15,0,0,1,.12.07l2.41,4A.14.14,0,0,1,82.29,69.14Z" fill="#ccc" stroke="#3a494f" stroke-miterlimit="10" stroke-width="0.34"/><polygon points="66.84 66.6 64.81 66.47 65.38 65.54 67.27 65.5 66.84 66.6" fill="#27c1ae"/><polygon points="69.94 66.66 67.91 66.53 68.47 65.6 70.36 65.55 69.94 66.66" fill="#27c1ae"/><polygon points="73.1 66.66 71.27 66.54 71.33 65.46 73.36 65.55 73.1 66.66" fill="#27c1ae"/><polygon points="76.61 66.6 74.41 66.59 74.47 65.5 76.31 65.46 76.61 66.6" fill="#27c1ae"/><polygon points="79.78 66.6 77.83 66.59 77.33 65.51 79.2 65.47 79.78 66.6" fill="#27c1ae"/><polygon points="66.04 68.52 64.01 68.39 64.57 67.46 66.46 67.41 66.04 68.52" fill="#27c1ae"/><polygon points="69.51 68.47 67.48 68.34 68.05 67.41 69.94 67.36 69.51 68.47" fill="#27c1ae"/><polygon points="73.15 68.45 71.31 68.45 71.3 67.37 73.33 67.33 73.15 68.45" fill="#27c1ae"/><polygon points="77.33 68.46 75.13 68.45 74.87 67.37 77.03 67.32 77.33 68.46" fill="#27c1ae"/><polygon points="80.63 68.46 78.68 68.45 78.18 67.37 80.05 67.33 80.63 68.46" fill="#27c1ae"/><path d="M65.14,66.5h1.42a.24.24,0,0,0,.21-.12l.33-.55A.15.15,0,0,0,67,65.6H65.58a.24.24,0,0,0-.21.12L65,66.3A.13.13,0,0,0,65.14,66.5Zm1.62.34h-2a.24.24,0,0,1-.21-.37l.64-1.09a.25.25,0,0,1,.21-.12h2a.24.24,0,0,1,.21.37L67,66.72A.24.24,0,0,1,66.76,66.84Z" fill="#3a494f"/><path d="M68.34,66.5h1.43a.23.23,0,0,0,.23-.18l.17-.56a.13.13,0,0,0-.12-.16H68.6a.25.25,0,0,0-.23.17l-.16.55A.14.14,0,0,0,68.34,66.5Zm1.72.34H68a.25.25,0,0,1-.24-.31l.32-1.1a.25.25,0,0,1,.24-.17h2.08a.24.24,0,0,1,.23.31l-.32,1.1A.25.25,0,0,1,70.06,66.84Z" fill="#3a494f"/><path d="M71.65,66.5H73a.25.25,0,0,0,.25-.24v-.42A.25.25,0,0,0,73,65.6h-1.3a.25.25,0,0,0-.25.24v.42A.25.25,0,0,0,71.65,66.5Zm1.7.34h-2.1A.24.24,0,0,1,71,66.6V65.5a.24.24,0,0,1,.24-.24h2.1a.24.24,0,0,1,.24.24v1.1A.24.24,0,0,1,73.35,66.84Z" fill="#3a494f"/><path d="M74.83,66.5h1.42a.14.14,0,0,0,.14-.18l-.16-.55A.24.24,0,0,0,76,65.6H74.6a.16.16,0,0,0-.15.21l.15.51A.23.23,0,0,0,74.83,66.5Zm1.79.34H74.54a.25.25,0,0,1-.24-.17L74,65.57a.24.24,0,0,1,.23-.31h2.08a.25.25,0,0,1,.24.17l.32,1.1A.24.24,0,0,1,76.62,66.84Z" fill="#3a494f"/><path d="M78,66.5h1.45a.12.12,0,0,0,.1-.17l-.36-.61A.24.24,0,0,0,79,65.6H77.64a.15.15,0,0,0-.13.23l.32.55A.24.24,0,0,0,78,66.5Zm1.82.34h-2a.27.27,0,0,1-.21-.12L77,65.63a.24.24,0,0,1,.21-.37h2a.25.25,0,0,1,.21.12l.64,1.09A.24.24,0,0,1,79.86,66.84Z" fill="#3a494f"/><path d="M64.4,68.37h1.42a.27.27,0,0,0,.21-.12l.32-.55a.15.15,0,0,0-.13-.23H64.83a.22.22,0,0,0-.21.12l-.34.58A.14.14,0,0,0,64.4,68.37Zm1.61.34H64a.24.24,0,0,1-.21-.37l.64-1.09a.25.25,0,0,1,.21-.12h2a.24.24,0,0,1,.21.36l-.65,1.1A.24.24,0,0,1,66,68.71Z" fill="#3a494f"/><path d="M67.87,68.37h1.42a.25.25,0,0,0,.24-.18l.16-.56a.12.12,0,0,0-.12-.16H68.13a.26.26,0,0,0-.24.17l-.16.55A.15.15,0,0,0,67.87,68.37Zm1.72.34H67.51a.24.24,0,0,1-.23-.31l.32-1.1a.24.24,0,0,1,.23-.17h2.08a.25.25,0,0,1,.24.31l-.33,1.09A.23.23,0,0,1,69.59,68.71Z" fill="#3a494f"/><path d="M71.65,68.37H73a.25.25,0,0,0,.25-.25v-.41a.25.25,0,0,0-.25-.24h-1.3a.25.25,0,0,0-.25.24v.41A.25.25,0,0,0,71.65,68.37Zm1.7.34h-2.1a.25.25,0,0,1-.24-.25V67.37a.24.24,0,0,1,.24-.24h2.1a.24.24,0,0,1,.24.24v1.09A.25.25,0,0,1,73.35,68.71Z" fill="#3a494f"/><path d="M75.47,68.37h1.42a.14.14,0,0,0,.14-.19l-.16-.54a.25.25,0,0,0-.23-.17h-1.4a.15.15,0,0,0-.15.2l.15.52A.23.23,0,0,0,75.47,68.37Zm1.78.34H75.18a.25.25,0,0,1-.24-.18l-.32-1.09a.24.24,0,0,1,.23-.31h2.08a.25.25,0,0,1,.24.17l.32,1.1A.25.25,0,0,1,77.25,68.71Z" fill="#3a494f"/><path d="M78.91,68.37h1.46a.12.12,0,0,0,.1-.18l-.36-.6a.22.22,0,0,0-.21-.12H78.51a.15.15,0,0,0-.13.23l.32.55A.27.27,0,0,0,78.91,68.37Zm1.83.34h-2a.24.24,0,0,1-.21-.12l-.65-1.1a.24.24,0,0,1,.21-.36h2a.22.22,0,0,1,.21.12L81,68.34A.25.25,0,0,1,80.74,68.71Z" fill="#3a494f"/><path d="M16.9,71.22H41.36a0,0,0,0,1,0,0V84a.54.54,0,0,1-.54.54H17.44A.54.54,0,0,1,16.9,84V71.22A0,0,0,0,1,16.9,71.22Z" fill="#fff" stroke="#3a494f" stroke-miterlimit="10" stroke-width="0.82"/><path d="M38.68,63.12a.35.35,0,0,0-.29-.15H19.87a.38.38,0,0,0-.29.15l-5,7.55a.35.35,0,0,0,.29.55H43.41a.35.35,0,0,0,.29-.55Z" fill="#27c1ae" stroke="#3a494f" stroke-miterlimit="10" stroke-width="0.82"/><path d="M26.14,77.86h6a.51.51,0,0,1,.51.51V84.5a0,0,0,0,1,0,0h-7a0,0,0,0,1,0,0V78.37A.51.51,0,0,1,26.14,77.86Z" fill="#fff" stroke="#3a494f" stroke-miterlimit="10" stroke-width="0.82"/><path d="M40.92,69.89H17.34a.16.16,0,0,1-.13-.24l3.31-5.49a.16.16,0,0,1,.13-.08h17a.13.13,0,0,1,.13.08l3.31,5.49A.16.16,0,0,1,40.92,69.89Z" fill="#fff" stroke="#3a494f" stroke-miterlimit="10" stroke-width="0.44"/><path d="M39.07,69.14,19.2,69.07a.14.14,0,0,1-.12-.21l2.38-4a.15.15,0,0,1,.12-.07H36.65a.14.14,0,0,1,.12.07l2.42,4A.15.15,0,0,1,39.07,69.14Z" fill="#ccc" stroke="#3a494f" stroke-miterlimit="10" stroke-width="0.34"/><polygon points="23.61 66.6 21.58 66.47 22.15 65.54 24.04 65.5 23.61 66.6" fill="#27c1ae"/><polygon points="26.71 66.66 24.68 66.53 25.25 65.6 27.13 65.55 26.71 66.66" fill="#27c1ae"/><polygon points="29.88 66.66 28.05 66.54 28.1 65.46 30.13 65.55 29.88 66.66" fill="#27c1ae"/><polygon points="33.39 66.6 31.19 66.59 31.24 65.5 33.09 65.46 33.39 66.6" fill="#27c1ae"/><polygon points="36.55 66.6 34.6 66.59 34.11 65.51 35.98 65.47 36.55 66.6" fill="#27c1ae"/><polygon points="22.81 68.52 20.78 68.39 21.35 67.46 23.24 67.41 22.81 68.52" fill="#27c1ae"/><polygon points="26.29 68.47 24.26 68.34 24.82 67.41 26.71 67.36 26.29 68.47" fill="#27c1ae"/><polygon points="29.92 68.45 28.09 68.45 28.07 67.37 30.1 67.33 29.92 68.45" fill="#27c1ae"/><polygon points="34.11 68.46 31.91 68.45 31.64 67.37 33.81 67.32 34.11 68.46" fill="#27c1ae"/><polygon points="37.4 68.46 35.45 68.45 34.96 67.37 36.83 67.33 37.4 68.46" fill="#27c1ae"/><path d="M21.92,66.5h1.42a.27.27,0,0,0,.21-.12l.32-.55a.15.15,0,0,0-.13-.23H22.35a.24.24,0,0,0-.21.12l-.34.58A.13.13,0,0,0,21.92,66.5Zm1.61.34h-2a.25.25,0,0,1-.21-.37L22,65.38a.22.22,0,0,1,.21-.12h2a.25.25,0,0,1,.21.37l-.65,1.09A.24.24,0,0,1,23.53,66.84Z" fill="#3a494f"/><path d="M25.12,66.5h1.42a.26.26,0,0,0,.24-.18l.16-.56a.13.13,0,0,0-.12-.16H25.38a.25.25,0,0,0-.24.17l-.16.55A.14.14,0,0,0,25.12,66.5Zm1.72.34H24.76a.25.25,0,0,1-.24-.31l.33-1.1a.24.24,0,0,1,.23-.17h2.08a.24.24,0,0,1,.23.31l-.32,1.1A.24.24,0,0,1,26.84,66.84Z" fill="#3a494f"/><path d="M28.42,66.5h1.31a.24.24,0,0,0,.24-.24v-.42a.24.24,0,0,0-.24-.24H28.42a.24.24,0,0,0-.24.24v.42A.24.24,0,0,0,28.42,66.5Zm1.7.34H28a.24.24,0,0,1-.24-.24V65.5a.24.24,0,0,1,.24-.24h2.1a.25.25,0,0,1,.25.24v1.1A.25.25,0,0,1,30.12,66.84Z" fill="#3a494f"/><path d="M31.61,66.5H33a.14.14,0,0,0,.13-.18L33,65.77a.24.24,0,0,0-.23-.17h-1.4a.16.16,0,0,0-.15.21l.15.51A.25.25,0,0,0,31.61,66.5Zm1.78.34H31.31a.24.24,0,0,1-.23-.17l-.33-1.1a.25.25,0,0,1,.24-.31h2.08a.25.25,0,0,1,.23.17l.32,1.1A.24.24,0,0,1,33.39,66.84Z" fill="#3a494f"/><path d="M34.81,66.5h1.45a.11.11,0,0,0,.1-.17L36,65.72a.27.27,0,0,0-.21-.12H34.41a.15.15,0,0,0-.13.23l.32.55A.24.24,0,0,0,34.81,66.5Zm1.83.34h-2a.27.27,0,0,1-.21-.12l-.64-1.09a.24.24,0,0,1,.21-.37h2a.22.22,0,0,1,.21.12l.65,1.09A.25.25,0,0,1,36.64,66.84Z" fill="#3a494f"/><path d="M21.17,68.37h1.42a.24.24,0,0,0,.21-.12l.32-.55a.15.15,0,0,0-.13-.23H21.6a.25.25,0,0,0-.21.12l-.34.58A.14.14,0,0,0,21.17,68.37Zm1.61.34h-2a.25.25,0,0,1-.21-.37l.65-1.09a.22.22,0,0,1,.21-.12h2a.24.24,0,0,1,.21.36L23,68.59A.24.24,0,0,1,22.78,68.71Z" fill="#3a494f"/><path d="M24.64,68.37h1.43a.24.24,0,0,0,.23-.18l.17-.56a.13.13,0,0,0-.13-.16H24.9a.24.24,0,0,0-.23.17l-.16.55A.14.14,0,0,0,24.64,68.37Zm1.72.34H24.28a.24.24,0,0,1-.23-.31l.32-1.1a.25.25,0,0,1,.24-.17h2.07a.24.24,0,0,1,.24.31l-.32,1.09A.25.25,0,0,1,26.36,68.71Z" fill="#3a494f"/><path d="M28.42,68.37h1.31a.25.25,0,0,0,.24-.25v-.41a.24.24,0,0,0-.24-.24H28.42a.24.24,0,0,0-.24.24v.41A.25.25,0,0,0,28.42,68.37Zm1.7.34H28a.25.25,0,0,1-.24-.25V67.37a.24.24,0,0,1,.24-.24h2.1a.25.25,0,0,1,.25.24v1.09A.25.25,0,0,1,30.12,68.71Z" fill="#3a494f"/><path d="M32.24,68.37h1.43a.14.14,0,0,0,.13-.19l-.16-.54a.24.24,0,0,0-.23-.17H32a.16.16,0,0,0-.15.2l.15.52A.24.24,0,0,0,32.24,68.37Zm1.79.34H32a.23.23,0,0,1-.23-.18l-.33-1.09a.24.24,0,0,1,.24-.31h2.08a.25.25,0,0,1,.23.17l.32,1.1A.24.24,0,0,1,34,68.71Z" fill="#3a494f"/><path d="M35.69,68.37h1.45a.12.12,0,0,0,.1-.18l-.36-.6a.22.22,0,0,0-.21-.12H35.29a.16.16,0,0,0-.14.23l.33.55A.24.24,0,0,0,35.69,68.37Zm1.82.34h-2a.24.24,0,0,1-.21-.12l-.64-1.1a.24.24,0,0,1,.21-.36h2a.25.25,0,0,1,.21.12l.64,1.09A.24.24,0,0,1,37.51,68.71Z" fill="#3a494f"/><path d="M44.51,31.16h12.2a.11.11,0,0,1,.11.11v1.85a0,0,0,0,1,0,0H44.4a0,0,0,0,1,0,0V31.27A.11.11,0,0,1,44.51,31.16Z" fill="#fff" stroke="#3a494f" stroke-miterlimit="10" stroke-width="0.82"/><rect x="44.4" y="33.12" width="12.42" height="1.96" fill="#fff" stroke="#3a494f" stroke-miterlimit="10" stroke-width="0.82"/><rect x="44.4" y="35.08" width="12.42" height="1.96" fill="#fff" stroke="#3a494f" stroke-miterlimit="10" stroke-width="0.82"/><ellipse cx="50.61" cy="31.16" rx="6.21" ry="0.36" fill="#fff" stroke="#3a494f" stroke-miterlimit="10" stroke-width="0.82"/><path d="M44.4,37v2c0,.2,2.78.36,6.21.36s6.22-.16,6.22-.36V37Z" fill="#fff" stroke="#3a494f" stroke-miterlimit="10" stroke-width="0.82"/><line x1="46.24" y1="43.22" x2="30.1" y2="58.35" fill="none" stroke="#3a494f" stroke-miterlimit="10" stroke-width="1.07" stroke-dasharray="1.14"/><line x1="55.94" y1="43.22" x2="72.07" y2="58.35" fill="none" stroke="#3a494f" stroke-miterlimit="10" stroke-width="1.07" stroke-dasharray="1.14"/><circle cx="50.63" cy="25.26" r="5.54" fill="#fff" stroke="#3a494f" stroke-miterlimit="10" stroke-width="0.82"/><path d="M50.65,26.92c.64,0,.75-.38.75-.61s-.39-.49-.82-.63c-.74-.23-1.62-.59-1.62-1.53,0-.71.27-1.22,1.25-1.33v-.57s0-.06.07-.07l.74-.07a.07.07,0,0,1,.07.07v.63a3,3,0,0,1,.78.18.16.16,0,0,1,.07.07s.07.65.07.68a.07.07,0,0,1-.07.07,3.59,3.59,0,0,0-1.29-.27c-.64,0-.75.38-.75.61s.39.49.82.63c.74.23,1.62.59,1.62,1.53,0,.71-.27,1.22-1.25,1.33v.64a.07.07,0,0,1-.07.07h-.74a.07.07,0,0,1-.07-.07v-.63a3.25,3.25,0,0,1-1.05-.25.16.16,0,0,1-.07-.07s-.07-.65-.07-.68a.08.08,0,0,1,.07-.07A6.06,6.06,0,0,0,50.65,26.92Z" fill="#27c1ae"/></g></svg>