<svg xmlns="http://www.w3.org/2000/svg" xmlns:xlink="http://www.w3.org/1999/xlink" viewBox="0 0 101 100.05"><defs><clipPath id="clip-path"><path d="M80,72.41h0a10.65,10.65,0,0,0-4,3.79l-1.34,2.17L76,79.2l0,0,1.33.82,1.32-2.15a10.62,10.62,0,0,0,1.58-5.34h0A.17.17,0,0,0,80,72.41Z" fill="none"/></clipPath></defs><title>potential</title><g id="圖例們"><path d="M48.61,3.11,6.74,34.45A3.13,3.13,0,0,0,5.48,37V94.42a3.15,3.15,0,0,0,3.15,3.16H92.37a3.15,3.15,0,0,0,3.15-3.16V37a3.13,3.13,0,0,0-1.26-2.52L52.39,3.11A3.15,3.15,0,0,0,48.61,3.11Z" fill="#fff" stroke="#3a494f" stroke-miterlimit="10" stroke-width="2"/><path d="M82.42,47.8h-29a5,5,0,0,0-5,5,4,4,0,0,0,0,.49H28.22a5.92,5.92,0,0,0-4.62,9.62H21.89a6.52,6.52,0,0,0-.14,13,6.56,6.56,0,0,0,6.56,6.38H63.13a6.57,6.57,0,1,0,0-13.14H43a6.49,6.49,0,0,0-1.62-4.06h14a5.91,5.91,0,0,0,5.75-7.32H82.42a5,5,0,1,0,0-10Z" fill="#fff" stroke="#3a494f" stroke-miterlimit="10" stroke-width="0.88"/><path d="M30.67,75.57c1,0,1,1,2.06,1s1-1,2.06-1,1,1,2.07,1,1-1,2.07-1" fill="none" stroke="#3a494f" stroke-miterlimit="10" stroke-width="0.75"/><path d="M48.37,76.18c1,0,1,1,2.06,1s1-1,2.07-1,1,1,2.06,1,1-1,2.07-1" fill="none" stroke="#3a494f" stroke-miterlimit="10" stroke-width="0.75"/><polygon points="66.92 40.72 66.42 40.72 66.14 40.72 65.64 40.72 65.13 63.89 67.43 63.89 66.92 40.72" fill="#fff" stroke="#3a494f" stroke-miterlimit="10" stroke-width="0.75"/><path d="M65.13,63.89,65,68a.69.69,0,0,0,.69.7h1.11a.69.69,0,0,0,.68-.7l-.09-4.11Z" fill="#828282" stroke="#3a494f" stroke-miterlimit="10" stroke-width="0.75"/><path d="M70.16,29a.06.06,0,0,0-.1,0,20.82,20.82,0,0,0-3.61,11.37v.43l.23-.36A20.67,20.67,0,0,0,70.16,29Z" fill="#fff" stroke="#3a494f" stroke-miterlimit="10" stroke-width="0.75"/><path d="M75.59,50.2a.06.06,0,0,1-.08.07,24.34,24.34,0,0,1-8.83-9.46l-.22-.41.4.24A24.43,24.43,0,0,1,75.59,50.2Z" fill="#fff" stroke="#3a494f" stroke-miterlimit="10" stroke-width="0.75"/><path d="M53.37,43.32a.05.05,0,0,0,0,.1A24.31,24.31,0,0,0,66,40.64l.42-.22-.47,0A24.22,24.22,0,0,0,53.37,43.32Z" fill="#fff" stroke="#3a494f" stroke-miterlimit="10" stroke-width="0.75"/><circle cx="66.38" cy="40.66" r="1.22" fill="#ccc" stroke="#3a494f" stroke-miterlimit="10" stroke-width="0.75"/><path d="M71.23,68.08h1.39a0,0,0,0,1,0,0v5a.36.36,0,0,1-.36.36h-.67a.36.36,0,0,1-.36-.36v-5a0,0,0,0,1,0,0Z" fill="#ccc" stroke="#3a494f" stroke-miterlimit="10" stroke-width="0.35"/><rect x="62.13" y="53.73" width="19.59" height="14.54" rx="0.77" ry="0.77" fill="#ccc" stroke="#3a494f" stroke-miterlimit="10" stroke-width="0.34"/><rect x="62.87" y="54.41" width="18.12" height="13.18" rx="0.71" ry="0.71" fill="#fff" stroke="#3a494f" stroke-miterlimit="10" stroke-width="0.34"/><rect x="63.76" y="55.51" width="3.04" height="3.04" rx="0.56" ry="0.56" fill="#27c1ae" stroke="#3a494f" stroke-miterlimit="10" stroke-width="0.34"/><rect x="68.19" y="55.51" width="3.04" height="3.04" rx="0.56" ry="0.56" fill="#27c1ae" stroke="#3a494f" stroke-miterlimit="10" stroke-width="0.34"/><rect x="72.62" y="55.51" width="3.04" height="3.04" rx="0.56" ry="0.56" fill="#27c1ae" stroke="#3a494f" stroke-miterlimit="10" stroke-width="0.34"/><rect x="77.05" y="55.51" width="3.04" height="3.04" rx="0.56" ry="0.56" fill="#27c1ae" stroke="#3a494f" stroke-miterlimit="10" stroke-width="0.34"/><rect x="63.76" y="59.48" width="3.04" height="3.04" rx="0.56" ry="0.56" fill="#27c1ae" stroke="#3a494f" stroke-miterlimit="10" stroke-width="0.34"/><rect x="68.19" y="59.48" width="3.04" height="3.04" rx="0.56" ry="0.56" fill="#27c1ae" stroke="#3a494f" stroke-miterlimit="10" stroke-width="0.34"/><rect x="72.62" y="59.48" width="3.04" height="3.04" rx="0.56" ry="0.56" fill="#27c1ae" stroke="#3a494f" stroke-miterlimit="10" stroke-width="0.34"/><rect x="77.05" y="59.48" width="3.04" height="3.04" rx="0.56" ry="0.56" fill="#27c1ae" stroke="#3a494f" stroke-miterlimit="10" stroke-width="0.34"/><rect x="63.76" y="63.45" width="3.04" height="3.04" rx="0.56" ry="0.56" fill="#27c1ae" stroke="#3a494f" stroke-miterlimit="10" stroke-width="0.34"/><rect x="68.19" y="63.45" width="3.04" height="3.04" rx="0.56" ry="0.56" fill="#27c1ae" stroke="#3a494f" stroke-miterlimit="10" stroke-width="0.34"/><rect x="72.62" y="63.45" width="3.04" height="3.04" rx="0.56" ry="0.56" fill="#27c1ae" stroke="#3a494f" stroke-miterlimit="10" stroke-width="0.34"/><rect x="77.05" y="63.45" width="3.04" height="3.04" rx="0.56" ry="0.56" fill="#27c1ae" stroke="#3a494f" stroke-miterlimit="10" stroke-width="0.34"/><line x1="70.57" y1="56.06" x2="68.59" y2="57.91" fill="none" stroke="#fff" stroke-miterlimit="10" stroke-width="0.34"/><line x1="70.48" y1="57.11" x2="69.65" y2="57.89" fill="none" stroke="#fff" stroke-miterlimit="10" stroke-width="0.34"/><line x1="75.01" y1="64.04" x2="73.03" y2="65.9" fill="none" stroke="#fff" stroke-miterlimit="10" stroke-width="0.34"/><line x1="74.92" y1="65.1" x2="74.09" y2="65.88" fill="none" stroke="#fff" stroke-miterlimit="10" stroke-width="0.34"/><line x1="79.43" y1="56.06" x2="77.45" y2="57.91" fill="none" stroke="#fff" stroke-miterlimit="10" stroke-width="0.34"/><line x1="79.35" y1="57.11" x2="78.51" y2="57.89" fill="none" stroke="#fff" stroke-miterlimit="10" stroke-width="0.34"/><line x1="66.15" y1="64.04" x2="64.18" y2="65.9" fill="none" stroke="#fff" stroke-miterlimit="10" stroke-width="0.34"/><line x1="66.07" y1="65.1" x2="65.23" y2="65.88" fill="none" stroke="#fff" stroke-miterlimit="10" stroke-width="0.34"/><path d="M58.44,36.41H50.7a2.09,2.09,0,0,0,.07-.51h0A1.81,1.81,0,0,0,49,34.1H44.5a1.81,1.81,0,0,0-1.81,1.8h0a1.81,1.81,0,0,0,1.81,1.81h3.25a1.73,1.73,0,0,0,.19,1.4H44.35a1.57,1.57,0,0,0-1.57,1.57,1.94,1.94,0,0,0,0,.24h-.67a2,2,0,0,0-2,2h0a2,2,0,0,0,2,2H44.7a2,2,0,0,0,2-2h0a2,2,0,0,0-.12-.69h6.15a1.57,1.57,0,0,0,1.57-1.58,1.52,1.52,0,0,0-.18-.73h4.29a1.77,1.77,0,1,0,0-3.54Z" fill="#ccc" stroke="#39484e" stroke-miterlimit="10" stroke-width="0.75"/><path d="M29.43,55.08,27.09,68.92a1.46,1.46,0,0,0,1.44,1.71h10.4L40.33,44A13.6,13.6,0,0,0,29.43,55.08Z" fill="#27c1ae" stroke="#3a494f" stroke-miterlimit="10" stroke-width="0.75"/><path d="M42.84,43.75h0a14,14,0,0,0-2.51.23l-1.4,26.65h7.82L45.35,44A14,14,0,0,0,42.84,43.75Z" fill="#ccc"/><path d="M42.84,43.75s-1.69.08-2.51.23l-1.4,26.65h7.82L45.35,44A14,14,0,0,0,42.84,43.75Z" fill="#ccc"/><path d="M56.25,55.08A13.6,13.6,0,0,0,45.35,44l1.4,26.65h10.4a1.47,1.47,0,0,0,1.44-1.71Z" fill="#27c1ae" stroke="#3a494f" stroke-miterlimit="10" stroke-width="0.75"/><polyline points="40.34 43.75 38.93 70.63 46.75 70.63 45.35 43.98" fill="none" stroke="#39484e" stroke-miterlimit="10" stroke-width="0.75"/><path d="M80.07,72.34h0a11.32,11.32,0,0,0-4.25,4l-1.41,2.3,1.4.87,0,0,1.41.86,1.4-2.27a11.35,11.35,0,0,0,1.68-5.65h0A.19.19,0,0,0,80.07,72.34Z" fill="#ccc" stroke="#39484e" stroke-miterlimit="10" stroke-width="0.5"/><g clip-path="url(#clip-path)"><line x1="79.52" y1="71.69" x2="74.77" y2="79.42" fill="none" stroke="#828282" stroke-miterlimit="10" stroke-width="0.19"/><line x1="80.33" y1="72.18" x2="75.57" y2="79.91" fill="none" stroke="#828282" stroke-miterlimit="10" stroke-width="0.19"/><line x1="81.13" y1="72.68" x2="76.38" y2="80.41" fill="none" stroke="#828282" stroke-miterlimit="10" stroke-width="0.19"/><line x1="78.25" y1="72.06" x2="81.49" y2="74.05" fill="none" stroke="#828282" stroke-miterlimit="10" stroke-width="0.19"/><line x1="77.79" y1="72.8" x2="81.03" y2="74.79" fill="none" stroke="#828282" stroke-miterlimit="10" stroke-width="0.19"/><line x1="77.34" y1="73.54" x2="80.58" y2="75.54" fill="none" stroke="#828282" stroke-miterlimit="10" stroke-width="0.19"/><line x1="76.88" y1="74.29" x2="80.12" y2="76.28" fill="none" stroke="#828282" stroke-miterlimit="10" stroke-width="0.19"/><line x1="76.42" y1="75.03" x2="79.66" y2="77.02" fill="none" stroke="#828282" stroke-miterlimit="10" stroke-width="0.19"/><line x1="75.96" y1="75.77" x2="79.21" y2="77.77" fill="none" stroke="#828282" stroke-miterlimit="10" stroke-width="0.19"/><line x1="75.51" y1="76.52" x2="78.75" y2="78.51" fill="none" stroke="#828282" stroke-miterlimit="10" stroke-width="0.19"/><line x1="75.05" y1="77.26" x2="78.29" y2="79.25" fill="none" stroke="#828282" stroke-miterlimit="10" stroke-width="0.19"/></g><path d="M76.14,78.89,77,74a.07.07,0,0,0-.13,0l-2.43,4.23a1.9,1.9,0,0,0,.65,2.58h0a1.91,1.91,0,0,0,2.6-.58l2.68-4.08a.06.06,0,0,0-.09-.09l-4,3A.09.09,0,0,1,76.14,78.89Z" fill="#27c1ae" stroke="#3a494f" stroke-miterlimit="10" stroke-width="0.5"/></g></svg>