<svg xmlns="http://www.w3.org/2000/svg" viewBox="0 0 101 100.05"><title>saving</title><g id="圖例們"><path d="M48.61,3.11,6.74,34.45A3.13,3.13,0,0,0,5.48,37V94.42a3.15,3.15,0,0,0,3.15,3.16H92.37a3.15,3.15,0,0,0,3.15-3.16V37a3.13,3.13,0,0,0-1.26-2.52L52.39,3.11A3.15,3.15,0,0,0,48.61,3.11Z" fill="#fff" stroke="#3a494f" stroke-miterlimit="10" stroke-width="2"/><path d="M25.79,65H69.41a0,0,0,0,1,0,0V87.7a1,1,0,0,1-1,1H26.75a1,1,0,0,1-1-1V65A0,0,0,0,1,25.79,65Z" fill="#fff" stroke="#3a494f" stroke-miterlimit="10" stroke-width="1.47"/><path d="M64.63,50.53a.64.64,0,0,0-.52-.28h-33a.64.64,0,0,0-.52.28L21.63,64a.62.62,0,0,0,.52,1h50.9a.62.62,0,0,0,.52-1Z" fill="#27c1ae" stroke="#3a494f" stroke-miterlimit="10" stroke-width="1.47"/><path d="M42.27,76.8H52.93a.91.91,0,0,1,.91.91V88.65a0,0,0,0,1,0,0H41.35a0,0,0,0,1,0,0V77.72A.91.91,0,0,1,42.27,76.8Z" fill="#fff" stroke="#3a494f" stroke-miterlimit="10" stroke-width="0.9"/><path d="M68.62,62.59h-42a.28.28,0,0,1-.24-.42l5.91-9.8a.28.28,0,0,1,.23-.13H62.74a.28.28,0,0,1,.23.13l5.89,9.8A.28.28,0,0,1,68.62,62.59Z" fill="#fff" stroke="#3a494f" stroke-miterlimit="10" stroke-width="0.78"/><path d="M65.31,61.25l-35.42-.12a.25.25,0,0,1-.22-.38l4.25-7a.26.26,0,0,1,.22-.13H61a.26.26,0,0,1,.22.13l4.31,7.17A.25.25,0,0,1,65.31,61.25Z" fill="#ccc" stroke="#3a494f" stroke-miterlimit="10" stroke-width="0.61"/><polygon points="37.76 56.73 34.14 56.5 35.15 54.84 38.52 54.76 37.76 56.73" fill="#27c1ae"/><polygon points="43.28 56.83 39.66 56.6 40.67 54.94 44.04 54.86 43.28 56.83" fill="#27c1ae"/><polygon points="48.93 56.83 45.66 56.62 45.76 54.69 49.38 54.86 48.93 56.83" fill="#27c1ae"/><polygon points="55.18 56.73 51.26 56.7 51.36 54.77 54.65 54.69 55.18 56.73" fill="#27c1ae"/><polygon points="60.83 56.73 57.35 56.7 56.47 54.79 59.8 54.71 60.83 56.73" fill="#27c1ae"/><polygon points="36.33 60.14 32.71 59.91 33.72 58.26 37.09 58.17 36.33 60.14" fill="#27c1ae"/><polygon points="42.53 60.06 38.91 59.83 39.91 58.17 43.28 58.09 42.53 60.06" fill="#27c1ae"/><polygon points="49.01 60.02 45.73 60.03 45.71 58.1 49.33 58.03 49.01 60.02" fill="#27c1ae"/><polygon points="56.47 60.05 52.55 60.02 52.08 58.11 55.93 58.01 56.47 60.05" fill="#27c1ae"/><polygon points="62.34 60.05 58.87 60.02 57.98 58.1 61.32 58.02 62.34 60.05" fill="#27c1ae"/><path d="M34.73,56.55h2.54a.42.42,0,0,0,.37-.22l.58-1a.28.28,0,0,0-.24-.41H35.51a.43.43,0,0,0-.38.22l-.6,1A.24.24,0,0,0,34.73,56.55Zm2.88.61H34a.44.44,0,0,1-.37-.66l1.15-2a.43.43,0,0,1,.37-.22h3.6a.44.44,0,0,1,.38.66L38,56.94A.45.45,0,0,1,37.61,57.16Z" fill="#3a494f"/><path d="M40.44,56.55H43a.45.45,0,0,0,.42-.31l.29-1a.23.23,0,0,0-.22-.29H40.9a.45.45,0,0,0-.42.32l-.28,1A.25.25,0,0,0,40.44,56.55Zm3.07.61H39.8a.44.44,0,0,1-.42-.56l.58-2a.43.43,0,0,1,.41-.32h3.71a.44.44,0,0,1,.42.56l-.58,2A.43.43,0,0,1,43.51,57.16Z" fill="#3a494f"/><path d="M46.33,56.55h2.33a.44.44,0,0,0,.43-.44v-.73a.44.44,0,0,0-.43-.44H46.33a.44.44,0,0,0-.44.44v.73A.44.44,0,0,0,46.33,56.55Zm3,.61H45.62a.44.44,0,0,1-.43-.44V54.77a.44.44,0,0,1,.43-.44h3.75a.44.44,0,0,1,.43.44v1.95A.44.44,0,0,1,49.37,57.16Z" fill="#3a494f"/><path d="M52,56.55h2.53a.27.27,0,0,0,.25-.33l-.29-1a.43.43,0,0,0-.41-.32H51.6a.29.29,0,0,0-.28.37l.27.93A.45.45,0,0,0,52,56.55Zm3.18.61H51.48a.45.45,0,0,1-.42-.32l-.57-2a.44.44,0,0,1,.42-.56h3.7a.43.43,0,0,1,.42.32l.57,2A.43.43,0,0,1,55.19,57.16Z" fill="#3a494f"/><path d="M57.72,56.55h2.59a.21.21,0,0,0,.18-.31l-.64-1.08a.41.41,0,0,0-.37-.22H57a.28.28,0,0,0-.24.42l.58,1A.41.41,0,0,0,57.72,56.55Zm3.26.61H57.37a.45.45,0,0,1-.37-.22L55.85,55a.44.44,0,0,1,.37-.66h3.61a.45.45,0,0,1,.37.22l1.15,2A.44.44,0,0,1,61,57.16Z" fill="#3a494f"/><path d="M33.4,59.88h2.53a.43.43,0,0,0,.38-.22l.57-1a.28.28,0,0,0-.23-.42H34.17a.45.45,0,0,0-.37.22l-.61,1A.24.24,0,0,0,33.4,59.88Zm2.88.61h-3.6a.44.44,0,0,1-.38-.66l1.15-1.95a.44.44,0,0,1,.38-.21h3.6a.43.43,0,0,1,.37.65l-1.15,2A.41.41,0,0,1,36.28,60.49Z" fill="#3a494f"/><path d="M39.59,59.88h2.54a.43.43,0,0,0,.42-.31l.29-1a.23.23,0,0,0-.21-.3H40.06a.43.43,0,0,0-.42.32l-.29,1A.26.26,0,0,0,39.59,59.88Zm3.07.61H39a.43.43,0,0,1-.41-.56l.57-2a.44.44,0,0,1,.42-.31h3.7a.43.43,0,0,1,.42.55l-.57,2A.45.45,0,0,1,42.66,60.49Z" fill="#3a494f"/><path d="M46.33,59.88h2.33a.44.44,0,0,0,.43-.44v-.73a.44.44,0,0,0-.43-.44H46.33a.44.44,0,0,0-.44.44v.73A.44.44,0,0,0,46.33,59.88Zm3,.61H45.62a.44.44,0,0,1-.43-.44V58.1a.43.43,0,0,1,.43-.43h3.75a.43.43,0,0,1,.43.43v1.95A.44.44,0,0,1,49.37,60.49Z" fill="#3a494f"/><path d="M53.15,59.88h2.53a.27.27,0,0,0,.25-.33l-.29-1a.43.43,0,0,0-.42-.32H52.73a.29.29,0,0,0-.27.37l.27.93A.45.45,0,0,0,53.15,59.88Zm3.18.61H52.62a.45.45,0,0,1-.42-.31l-.57-2a.43.43,0,0,1,.42-.55h3.7a.44.44,0,0,1,.42.31l.57,2A.43.43,0,0,1,56.33,60.49Z" fill="#3a494f"/><path d="M59.28,59.88h2.6a.21.21,0,0,0,.17-.31l-.63-1.08a.45.45,0,0,0-.38-.22H58.57a.28.28,0,0,0-.23.42l.57,1A.42.42,0,0,0,59.28,59.88Zm3.26.61h-3.6a.43.43,0,0,1-.38-.22l-1.15-2a.43.43,0,0,1,.38-.65h3.6a.42.42,0,0,1,.37.21l1.15,1.95A.44.44,0,0,1,62.54,60.49Z" fill="#3a494f"/><path d="M56.7,55.23H37.86A1,1,0,0,1,37,53.87h0a1,1,0,0,1,.91-.62H56.7a1,1,0,0,1,.89.54h0A1,1,0,0,1,56.7,55.23Z" fill="#fff" stroke="#3a494f" stroke-miterlimit="10" stroke-width="0.84"/><path d="M51.18,49.89a5,5,0,0,0-8,5.47H52.3A5,5,0,0,0,51.18,49.89Z" fill="#fff" stroke="#3a494f" stroke-miterlimit="10" stroke-width="0.74"/><path d="M49.52,54.84a1.08,1.08,0,0,0-.07-1.64c-.61-.59-1.39-.25-2,.08-.35.19-.72.32-.91.13s-.33-.44.07-.86a3.45,3.45,0,0,1,1-.66,0,0,0,0,0,0-.08s-.48-.38-.48-.38a.06.06,0,0,0-.08,0,2.21,2.21,0,0,0-.61.38l-.4-.39a.08.08,0,0,0-.09,0l-.42.52s0,.06,0,.09l.37.36A1.06,1.06,0,0,0,45.94,54c.6.59,1.39.25,2-.08.36-.19.73-.31.92-.13s.33.45-.08.86a3.79,3.79,0,0,1-.37.31h1.26Z" fill="#27c1ae"/><path d="M57.22,40.88s-10-1-13.42,3.84c-3.11,4.44-3.22,6.54-1.62,6.73,1.36.16,2.39-4,5-5.15,2.23-1,6.7-1.09,8.65.2,3.07,2-3.11,5.55-2.9,7.39.16,1.4,5.12.09,9.63-5.71L91.4,32.73l-9.67-7.16Z" fill="#fff" stroke="#3a494f" stroke-miterlimit="10" stroke-width="1.44"/></g></svg>