<svg xmlns="http://www.w3.org/2000/svg" viewBox="0 0 101 100.05"><title>taiwan</title><g id="圖例們"><path d="M48.61,3.11,6.74,34.45A3.13,3.13,0,0,0,5.48,37V94.42a3.15,3.15,0,0,0,3.15,3.16H92.37a3.15,3.15,0,0,0,3.15-3.16V37a3.13,3.13,0,0,0-1.26-2.52L52.39,3.11A3.15,3.15,0,0,0,48.61,3.11Z" fill="#fff" stroke="#3a494f" stroke-miterlimit="10" stroke-width="2"/><path d="M57.52,30.81c1-.41,1-1.81,1.56-2.18a9.23,9.23,0,0,1,3-.55,24.61,24.61,0,0,1,1.79,2.64,2,2,0,0,0,1.61.61c.44,0,1.75-.1,1.86.07a8.81,8.81,0,0,1,1.23,2.36A15.74,15.74,0,0,0,68,37c0,3.44,1.09,3.54.89,4.93C68,47.58,63.41,61,56.68,69.39c-1.67,2.08-5,4.76-6.2,7s-1.81,6.25-2,8a1.13,1.13,0,0,1-.88,1h0a1.14,1.14,0,0,1-1.32-.7c-.81-2.11-3-7.23-5.79-9.15a6.65,6.65,0,0,1-1.63-2.32A21.6,21.6,0,0,1,37,59.26l0-.12a22.84,22.84,0,0,1,2.34-6.46c2.76-5,8.79-15.4,14.37-20.3C54.76,31.44,56,31.43,57.52,30.81Z" fill="#ccc" stroke="#3a494f" stroke-miterlimit="10" stroke-width="1.55"/><path d="M60.44,38.17a3.19,3.19,0,1,0-6,1.54h0l2.4,4.73a.44.44,0,0,0,.78,0L60,39.71h0A3.21,3.21,0,0,0,60.44,38.17Z" fill="#27c1ae" stroke="#3a494f" stroke-miterlimit="10" stroke-width="0.46"/><path d="M58.33,37.74a1.08,1.08,0,0,0-2.15-.2,1.18,1.18,0,0,0,.12.73h0l.82,1.6a.14.14,0,0,0,.26,0l.81-1.6h0A1.08,1.08,0,0,0,58.33,37.74Z" fill="#fff"/><circle cx="57.25" cy="37.67" r="0.38" fill="#27c1ae"/><path d="M58.52,55a3.19,3.19,0,1,0-6,1.54h0l2.4,4.73a.44.44,0,0,0,.78,0l2.4-4.73h0A3.21,3.21,0,0,0,58.52,55Z" fill="#27c1ae" stroke="#3a494f" stroke-miterlimit="10" stroke-width="0.46"/><path d="M56.41,54.62a1.08,1.08,0,0,0-2.14-.2,1.1,1.1,0,0,0,.11.72h0l.82,1.6a.14.14,0,0,0,.26,0l.82-1.6h0A1.14,1.14,0,0,0,56.41,54.62Z" fill="#fff"/><circle cx="55.33" cy="54.54" r="0.38" fill="#27c1ae"/><path d="M30.56,50.19a3.19,3.19,0,1,0-6,1.54h0L27,56.46a.44.44,0,0,0,.78,0l2.4-4.73h0A3.1,3.1,0,0,0,30.56,50.19Z" fill="#27c1ae" stroke="#3a494f" stroke-miterlimit="10" stroke-width="0.46"/><path d="M28.45,49.77a1.08,1.08,0,0,0-2.14-.2,1,1,0,0,0,.12.72h0l.82,1.61a.15.15,0,0,0,.26,0l.82-1.61h0A1.11,1.11,0,0,0,28.45,49.77Z" fill="#fff"/><circle cx="27.37" cy="49.69" r="0.38" fill="#27c1ae"/></g></svg>