<svg xmlns="http://www.w3.org/2000/svg" viewBox="0 0 305.33 314.66"><title>center-man</title><g id="圖_機會命運"><rect x="219.05" y="168.38" width="52.69" height="24.96" rx="0.73" ry="0.73" transform="translate(528.52 293.85) rotate(165.37)" fill="#828282" stroke="#3a494f" stroke-miterlimit="10" stroke-width="1.23"/><rect x="221.8" y="170.83" width="47.2" height="20.04" rx="0.73" ry="0.73" transform="matrix(-0.97, 0.25, -0.25, -0.97, 528.52, 293.85)" fill="#fff" stroke="#3a494f" stroke-miterlimit="10" stroke-width="1.05"/><circle cx="245.4" cy="180.85" r="7.67" fill="#27c1ae" stroke="#39484e" stroke-miterlimit="10" stroke-width="1.19"/><path d="M244.72,184.74a.41.41,0,0,1-.24-.3.43.43,0,0,1,0-.35.48.48,0,0,1,.28-.24h0a.57.57,0,0,1,.34,0,1.67,1.67,0,0,0,1.08.06,1.14,1.14,0,0,0,.71-.46,1,1,0,0,0,.09-.8.85.85,0,0,0-.26-.45,1.29,1.29,0,0,0-.45-.27c-.17,0-.36-.11-.58-.16s-.44-.1-.66-.14a4.46,4.46,0,0,1-.67-.18,3.81,3.81,0,0,1-.61-.29,1.65,1.65,0,0,1-.51-.48A2.12,2.12,0,0,1,243,180a2,2,0,0,1,1.17-2.5.08.08,0,0,0,0-.11l-.17-.68a.4.4,0,0,1,0-.32.41.41,0,0,1,.58-.15.44.44,0,0,1,.2.26l.16.64c0,.06.05.08.09.07a3.73,3.73,0,0,1,1.68.18.48.48,0,0,1,.3.26s0,.06,0,.09a.54.54,0,0,1,0,.31.42.42,0,0,1-.25.27l-.09,0a.45.45,0,0,1-.28,0,2.5,2.5,0,0,0-1.47-.09,1.27,1.27,0,0,0-.8.5,1,1,0,0,0-.1.86,1.13,1.13,0,0,0,.33.56,1.55,1.55,0,0,0,.57.33,6,6,0,0,0,.71.2c.25.05.51.11.76.18a4.2,4.2,0,0,1,.73.26,1.76,1.76,0,0,1,.6.46,1.79,1.79,0,0,1,.39.75,2.05,2.05,0,0,1-.1,1.41,2.07,2.07,0,0,1-1,1,.08.08,0,0,0,0,.11l.17.67a.4.4,0,0,1,0,.32.43.43,0,0,1-.26.2.4.4,0,0,1-.32,0,.41.41,0,0,1-.2-.26l-.17-.65a.1.1,0,0,0-.09-.08A2.49,2.49,0,0,1,244.72,184.74Z" fill="#fff"/><path d="M250.79,202.65s-26.55-34-46.08-46.53a43.22,43.22,0,0,0-32.44-6.28,67.7,67.7,0,0,0-31,.42l.1-.12s-16.29-5.14-33.59,6c-19.54,12.57-46.08,46.53-46.08,46.53l22.57,17.83,5.63-6.93c0,.83-.07,1.67-.07,2.52v38.51a6.11,6.11,0,0,0,6.1,6.1H219.41a6.1,6.1,0,0,0,6.09-6.1V217.14l2.72,3.34Z" fill="#ccc" stroke="#3a494f" stroke-miterlimit="10" stroke-width="2.5"/><path d="M158.26,227.87c12.33-14.22,21.31-34.85,23.8-40.91a3.92,3.92,0,0,0-.18-3.36l-2.11-3.94a1,1,0,0,1,.71-1.52l2.45-.5a4.65,4.65,0,0,0,3.33-2.71l9.93-23-15.69-4.83-21.24,63.43-1.09,17.28S158.23,227.91,158.26,227.87Z" fill="#fff" stroke="#3a494f" stroke-miterlimit="10" stroke-width="1.7"/><path d="M155.33,227.87C143,213.65,134,193,131.53,187a4,4,0,0,1,.18-3.36l2.12-3.94a1,1,0,0,0-.71-1.52l-2.46-.5a4.65,4.65,0,0,1-3.33-2.71l-9.93-23,15.69-4.83,21.24,63.43,1.1,17.28A.06.06,0,0,1,155.33,227.87Z" fill="#fff" stroke="#3a494f" stroke-miterlimit="10" stroke-width="1.7"/><path d="M133.79,153.74,155.37,228a1.45,1.45,0,0,0,2.79,0l21.29-73.63" fill="#fff" stroke="#3a494f" stroke-miterlimit="10" stroke-width="1.7"/><path d="M157.27,157.18l7,10.5a3.22,3.22,0,0,0,5.33.07l9.35-13.39Z" fill="#27c1ae" stroke="#3a494f" stroke-miterlimit="10" stroke-width="1.7"/><path d="M156.26,157.18l-7,10.5a3.23,3.23,0,0,1-5.34.07l-9.35-13.39Z" fill="#27c1ae" stroke="#3a494f" stroke-miterlimit="10" stroke-width="1.7"/><path d="M70.68,197.07l66-16.22,7.82,18.72L80.42,226.83A15.62,15.62,0,0,1,61,220.61h0A15.78,15.78,0,0,1,70.68,197.07Z" fill="#ccc" stroke="#3a494f" stroke-miterlimit="10" stroke-width="2.5"/><line x1="156.62" y1="162.99" x2="156.62" y2="217.64" fill="none" stroke="#3a494f" stroke-miterlimit="10" stroke-width="1.7"/><circle cx="156.62" cy="172.9" r="1.71" fill="#fff" stroke="#3a494f" stroke-miterlimit="10" stroke-width="1.7"/><circle cx="156.62" cy="186.68" r="1.71" fill="#fff" stroke="#3a494f" stroke-miterlimit="10" stroke-width="1.7"/><rect x="114.73" y="169.96" width="41.3" height="19.56" rx="0.57" ry="0.57" transform="translate(150.7 -44.76) rotate(40.89)" fill="#828282" stroke="#3a494f" stroke-miterlimit="10" stroke-width="0.97"/><rect x="116.88" y="171.89" width="37" height="15.71" rx="0.57" ry="0.57" transform="translate(150.7 -44.76) rotate(40.89)" fill="#fff" stroke="#3a494f" stroke-miterlimit="10" stroke-width="0.82"/><circle cx="135.38" cy="179.74" r="6.01" fill="#27c1ae" stroke="#39484e" stroke-miterlimit="10" stroke-width="0.93"/><path d="M138.18,178.47a.32.32,0,0,1-.08.29.4.4,0,0,1-.25.13.35.35,0,0,1-.27-.08l0,0a.41.41,0,0,1-.13-.23,1.39,1.39,0,0,0-.44-.72.86.86,0,0,0-.62-.25.8.8,0,0,0-.73.66,1,1,0,0,0,0,.41l.15.45c.06.16.13.32.2.48a3.82,3.82,0,0,1,.18.51,3.46,3.46,0,0,1,.09.53,1.33,1.33,0,0,1-.09.54,1.8,1.8,0,0,1-1.32,1.13,1.71,1.71,0,0,1-1.14-.23s-.06,0-.09,0l-.36.42a.28.28,0,0,1-.23.11.31.31,0,0,1-.24-.08.31.31,0,0,1-.11-.22.33.33,0,0,1,.08-.25l.34-.39s0-.06,0-.09a2.9,2.9,0,0,1-.62-1.16.34.34,0,0,1,0-.31l0-.05a.39.39,0,0,1,.21-.13.34.34,0,0,1,.29,0l.06,0a.4.4,0,0,1,.11.19,2,2,0,0,0,.59,1,1,1,0,0,0,.68.29.79.79,0,0,0,.6-.32.94.94,0,0,0,.22-.46,1.26,1.26,0,0,0,0-.51,4.5,4.5,0,0,0-.19-.55c-.08-.19-.15-.38-.22-.57a4.31,4.31,0,0,1-.16-.59,1.48,1.48,0,0,1,0-.59,1.52,1.52,0,0,1,.32-.58,1.55,1.55,0,0,1,1-.56,1.58,1.58,0,0,1,1.08.22s.06,0,.09,0l.35-.41a.33.33,0,1,1,.51.43l-.35.41a.06.06,0,0,0,0,.09A1.92,1.92,0,0,1,138.18,178.47Z" fill="#fff"/><rect x="120.74" y="167.5" width="41.3" height="19.56" rx="0.57" ry="0.57" transform="translate(214.59 -37.34) rotate(57.41)" fill="#828282" stroke="#3a494f" stroke-miterlimit="10" stroke-width="0.97"/><rect x="122.89" y="169.42" width="37" height="15.71" rx="0.57" ry="0.57" transform="translate(214.59 -37.34) rotate(57.41)" fill="#fff" stroke="#3a494f" stroke-miterlimit="10" stroke-width="0.82"/><circle cx="141.39" cy="177.28" r="6.01" fill="#27c1ae" stroke="#39484e" stroke-miterlimit="10" stroke-width="0.93"/><path d="M144.46,176.92a.33.33,0,0,1-.16.26.38.38,0,0,1-.28,0,.32.32,0,0,1-.24-.15v0a.39.39,0,0,1-.06-.26,1.34,1.34,0,0,0-.22-.82.86.86,0,0,0-.52-.41.84.84,0,0,0-.89.42.93.93,0,0,0-.09.4c0,.14,0,.3,0,.47s0,.35.05.53a2.45,2.45,0,0,1,0,.54,3.07,3.07,0,0,1-.06.53,1.39,1.39,0,0,1-.24.49,1.73,1.73,0,0,1-.46.43,1.61,1.61,0,0,1-2.15-.27.06.06,0,0,0-.09,0l-.47.3a.35.35,0,0,1-.46-.1.36.36,0,0,1,0-.25.34.34,0,0,1,.14-.21l.45-.28s0-.05,0-.08a3.19,3.19,0,0,1-.27-1.3.35.35,0,0,1,.13-.28l.06,0a.39.39,0,0,1,.23-.07.36.36,0,0,1,.27.12l0,.06a.39.39,0,0,1,.06.21,2,2,0,0,0,.28,1.12,1.06,1.06,0,0,0,.57.48.81.81,0,0,0,.67-.14.87.87,0,0,0,.33-.38,1.41,1.41,0,0,0,.12-.5c0-.18,0-.37,0-.58s0-.41-.05-.61a3.09,3.09,0,0,1,0-.61,1.35,1.35,0,0,1,.2-.56,1.47,1.47,0,0,1,.46-.47,1.59,1.59,0,0,1,1.08-.26,1.66,1.66,0,0,1,1,.52.06.06,0,0,0,.09,0l.45-.29a.32.32,0,0,1,.25,0,.34.34,0,0,1,.21.14.32.32,0,0,1-.1.46l-.45.29a.08.08,0,0,0,0,.09A1.9,1.9,0,0,1,144.46,176.92Z" fill="#fff"/><rect x="128.95" y="166.3" width="41.3" height="19.56" rx="0.57" ry="0.57" transform="translate(293.09 -5) rotate(78.75)" fill="#828282" stroke="#3a494f" stroke-miterlimit="10" stroke-width="0.97"/><rect x="131.1" y="168.22" width="37" height="15.71" rx="0.57" ry="0.57" transform="translate(293.09 -5) rotate(78.75)" fill="#fff" stroke="#3a494f" stroke-miterlimit="10" stroke-width="0.82"/><circle cx="149.59" cy="176.08" r="6.01" fill="#27c1ae" stroke="#39484e" stroke-miterlimit="10" stroke-width="0.93"/><path d="M152.49,176.86a.32.32,0,0,1-.24.18.39.39,0,0,1-.28,0,.4.4,0,0,1-.17-.23v0a.35.35,0,0,1,0-.26,1.35,1.35,0,0,0,.09-.84.91.91,0,0,0-.33-.58.77.77,0,0,0-.62-.11.7.7,0,0,0-.36.19.86.86,0,0,0-.23.33,3.9,3.9,0,0,0-.16.45c0,.17-.1.34-.14.51a2.35,2.35,0,0,1-.17.51,3,3,0,0,1-.25.47,1.46,1.46,0,0,1-.4.38,2.07,2.07,0,0,1-.59.23,1.71,1.71,0,0,1-1.15-.15,1.68,1.68,0,0,1-.75-.89.08.08,0,0,0-.09,0l-.54.11a.29.29,0,0,1-.24,0,.32.32,0,0,1-.15-.21.37.37,0,0,1,.05-.25.31.31,0,0,1,.21-.14l.52-.1s.06,0,.05-.07a3.15,3.15,0,0,1,.22-1.31.38.38,0,0,1,.22-.21l.07,0a.43.43,0,0,1,.25,0,.32.32,0,0,1,.2.21.25.25,0,0,0,0,.07.38.38,0,0,1,0,.21,2,2,0,0,0-.15,1.15,1,1,0,0,0,.36.65.8.8,0,0,0,.67.11.81.81,0,0,0,.45-.23,1.3,1.3,0,0,0,.29-.43,3.42,3.42,0,0,0,.18-.54l.18-.59a3.15,3.15,0,0,1,.24-.56,1.4,1.4,0,0,1,1-.72,1.58,1.58,0,0,1,1.1.15,1.67,1.67,0,0,1,.72.84.06.06,0,0,0,.08,0l.54-.11a.29.29,0,0,1,.24,0,.32.32,0,0,1,.15.21.36.36,0,0,1-.05.25.32.32,0,0,1-.22.14l-.52.11s-.06,0-.06.07A1.94,1.94,0,0,1,152.49,176.86Z" fill="#fff"/><rect x="137.25" y="167.79" width="41.3" height="19.56" rx="0.57" ry="0.57" transform="translate(367.15 64.99) rotate(103.36)" fill="#828282" stroke="#3a494f" stroke-miterlimit="10" stroke-width="0.97"/><rect x="139.4" y="169.72" width="37" height="15.71" rx="0.57" ry="0.57" transform="translate(367.15 64.99) rotate(103.36)" fill="#fff" stroke="#3a494f" stroke-miterlimit="10" stroke-width="0.82"/><circle cx="157.9" cy="177.57" r="6.01" fill="#27c1ae" stroke="#39484e" stroke-miterlimit="10" stroke-width="0.93"/><path d="M160.24,179.54a.33.33,0,0,1-.29.07.39.39,0,0,1-.23-.17.34.34,0,0,1-.06-.28v0a.4.4,0,0,1,.14-.22,1.38,1.38,0,0,0,.44-.73.86.86,0,0,0-.07-.66.76.76,0,0,0-.51-.36.71.71,0,0,0-.41,0,.84.84,0,0,0-.35.21c-.1.09-.21.21-.33.34a4.62,4.62,0,0,0-.34.41,3.33,3.33,0,0,1-.36.39,3.19,3.19,0,0,1-.43.32,1.23,1.23,0,0,1-.52.17,1.78,1.78,0,0,1-1.61-.64,1.67,1.67,0,0,1-.32-1.12.08.08,0,0,0-.06-.08l-.53-.12a.32.32,0,0,1-.21-.15.32.32,0,0,1,0-.25.32.32,0,0,1,.15-.21.32.32,0,0,1,.25,0l.51.12s.07,0,.08,0a2.82,2.82,0,0,1,.74-1.09.38.38,0,0,1,.29-.11l.07,0a.37.37,0,0,1,.21.12.4.4,0,0,1,.1.28.15.15,0,0,0,0,.07.44.44,0,0,1-.12.19,2,2,0,0,0-.6,1,1,1,0,0,0,0,.74.81.81,0,0,0,.56.38.88.88,0,0,0,.51,0,1.34,1.34,0,0,0,.44-.27,4,4,0,0,0,.39-.42l.41-.46a2.88,2.88,0,0,1,.45-.41,1.35,1.35,0,0,1,.54-.25,1.48,1.48,0,0,1,.66,0,1.61,1.61,0,0,1,.94.59,1.66,1.66,0,0,1,.31,1.06.06.06,0,0,0,0,.08l.53.12a.32.32,0,0,1,.21.15.32.32,0,0,1,0,.25.32.32,0,0,1-.15.21.36.36,0,0,1-.25,0l-.52-.13a.06.06,0,0,0-.08,0A2,2,0,0,1,160.24,179.54Z" fill="#fff"/><rect x="145.57" y="171.17" width="41.3" height="19.56" rx="0.57" ry="0.57" transform="translate(409.46 146.2) rotate(124.44)" fill="#828282" stroke="#3a494f" stroke-miterlimit="10" stroke-width="0.97"/><rect x="147.72" y="173.1" width="37" height="15.71" rx="0.57" ry="0.57" transform="translate(409.46 146.2) rotate(124.44)" fill="#fff" stroke="#3a494f" stroke-miterlimit="10" stroke-width="0.82"/><circle cx="166.22" cy="180.95" r="6.01" fill="#27c1ae" stroke="#39484e" stroke-miterlimit="10" stroke-width="0.93"/><path d="M167.77,183.57a.33.33,0,0,1-.3,0,.34.34,0,0,1-.15-.23.32.32,0,0,1,.05-.28v0a.37.37,0,0,1,.21-.16,1.39,1.39,0,0,0,.68-.52.88.88,0,0,0,.17-.64.75.75,0,0,0-.35-.52.7.7,0,0,0-.39-.13.94.94,0,0,0-.4.07l-.43.2-.46.26a3.51,3.51,0,0,1-1,.38,1.42,1.42,0,0,1-.54,0,1.79,1.79,0,0,1-.58-.27,1.67,1.67,0,0,1-.7-.91,1.72,1.72,0,0,1,.11-1.17s0-.06,0-.09l-.45-.31a.28.28,0,0,1-.14-.21.32.32,0,0,1,0-.25.34.34,0,0,1,.21-.14.32.32,0,0,1,.25.06l.43.29s.07,0,.09,0a3,3,0,0,1,1.09-.75.42.42,0,0,1,.31,0l.06,0a.43.43,0,0,1,.15.2.31.31,0,0,1,0,.28.16.16,0,0,1,0,.07.39.39,0,0,1-.17.14,1.94,1.94,0,0,0-.92.69,1,1,0,0,0-.21.71.81.81,0,0,0,.38.56.8.8,0,0,0,.49.16,1.23,1.23,0,0,0,.5-.09,4.89,4.89,0,0,0,.52-.25l.55-.28a2.41,2.41,0,0,1,.56-.22,1.34,1.34,0,0,1,.6,0,1.44,1.44,0,0,1,.61.25,1.58,1.58,0,0,1,.66.88,1.65,1.65,0,0,1-.09,1.11.05.05,0,0,0,0,.08l.45.31a.31.31,0,0,1,.14.21.31.31,0,0,1,0,.25.31.31,0,0,1-.21.14.3.3,0,0,1-.25,0l-.44-.31a.09.09,0,0,0-.1,0A1.86,1.86,0,0,1,167.77,183.57Z" fill="#fff"/><rect x="9.34" y="48.01" width="52.69" height="24.96" rx="0.73" ry="0.73" transform="translate(91.84 102.66) rotate(157.45)" fill="#828282" stroke="#3a494f" stroke-miterlimit="10" stroke-width="1.23"/><rect x="12.08" y="50.47" width="47.2" height="20.04" rx="0.73" ry="0.73" transform="translate(91.84 102.66) rotate(157.45)" fill="#fff" stroke="#3a494f" stroke-miterlimit="10" stroke-width="1.05"/><circle cx="35.68" cy="60.49" r="7.67" fill="#27c1ae" stroke="#39484e" stroke-miterlimit="10" stroke-width="1.19"/><path d="M35.46,64.36a.44.44,0,0,1-.29-.26.5.5,0,0,1,0-.36.44.44,0,0,1,.25-.27h0a.57.57,0,0,1,.34,0,1.67,1.67,0,0,0,1.08-.09,1.12,1.12,0,0,0,.64-.56,1,1,0,0,0,0-.8.94.94,0,0,0-.32-.41,1.14,1.14,0,0,0-.48-.2c-.18,0-.38-.06-.6-.09s-.45,0-.67,0a4.08,4.08,0,0,1-.69-.09,3.4,3.4,0,0,1-.64-.2,1.65,1.65,0,0,1-.57-.4,2.28,2.28,0,0,1-.44-.68,2.1,2.1,0,0,1-.1-1.47,2.13,2.13,0,0,1,.92-1.17.09.09,0,0,0,0-.12l-.27-.64a.38.38,0,0,1,0-.33.4.4,0,0,1,.23-.23.44.44,0,0,1,.32,0,.4.4,0,0,1,.23.23l.26.62s.05.07.1,0a3.65,3.65,0,0,1,1.68,0,.44.44,0,0,1,.33.22l0,.08a.58.58,0,0,1,0,.32.47.47,0,0,1-.21.29l-.09,0a.45.45,0,0,1-.28,0,2.53,2.53,0,0,0-1.46.1,1.31,1.31,0,0,0-.73.61,1.06,1.06,0,0,0,0,.87,1.21,1.21,0,0,0,.41.51,1.74,1.74,0,0,0,.61.25,7.07,7.07,0,0,0,.72.09l.79.08a4.53,4.53,0,0,1,.75.15,2,2,0,0,1,.67.38,1.78,1.78,0,0,1,.48.69A2,2,0,0,1,37.77,64s-.05.06,0,.12l.27.63a.47.47,0,0,1,0,.33.43.43,0,0,1-.23.23.44.44,0,0,1-.32,0,.4.4,0,0,1-.23-.23L37,64.46a.11.11,0,0,0-.11-.06A2.48,2.48,0,0,1,35.46,64.36Z" fill="#fff"/><path d="M242.14,197.07l-63.53-15.61a2.93,2.93,0,0,0-3.41,1.72l-5.72,13.69a2.93,2.93,0,0,0,1.56,3.84l61.37,26.12a15.6,15.6,0,0,0,19.42-6.22h0A15.77,15.77,0,0,0,242.14,197.07Z" fill="#ccc" stroke="#3a494f" stroke-miterlimit="10" stroke-width="2.5"/><path d="M175.39,182.73s-12.72-5.58-18.73-2.91a5.82,5.82,0,0,0-3.31,4.24A9,9,0,0,0,159,194.4l9.92,3.91Z" fill="#fff" stroke="#3a494f" stroke-miterlimit="10" stroke-width="1.7"/><line x1="156.62" y1="229.03" x2="156.62" y2="260.68" fill="none" stroke="#3a494f" stroke-miterlimit="10" stroke-width="1.7"/><circle cx="163.51" cy="240.8" r="1.49" fill="#828282" stroke="#3a494f" stroke-miterlimit="10" stroke-width="1.7"/><circle cx="163.51" cy="251.31" r="1.49" fill="#828282" stroke="#3a494f" stroke-miterlimit="10" stroke-width="1.7"/><rect x="42" y="96.15" width="52.69" height="24.96" rx="0.73" ry="0.73" transform="translate(99.14 233.21) rotate(-161.7)" fill="#828282" stroke="#3a494f" stroke-miterlimit="10" stroke-width="1.23"/><rect x="44.75" y="98.6" width="47.2" height="20.04" rx="0.73" ry="0.73" transform="translate(99.14 233.21) rotate(-161.7)" fill="#fff" stroke="#3a494f" stroke-miterlimit="10" stroke-width="1.05"/><circle cx="68.35" cy="108.62" r="7.67" fill="#27c1ae" stroke="#39484e" stroke-miterlimit="10" stroke-width="1.19"/><path d="M65.6,111.51a.43.43,0,0,1,0-.38.44.44,0,0,1,.23-.27.42.42,0,0,1,.36,0h0a.56.56,0,0,1,.27.21,1.75,1.75,0,0,0,.87.64,1.18,1.18,0,0,0,.85,0,1,1,0,0,0,.51-.62.93.93,0,0,0,0-.52,1.29,1.29,0,0,0-.23-.47l-.4-.45c-.15-.17-.31-.32-.48-.48a3.21,3.21,0,0,1-.46-.51,4.48,4.48,0,0,1-.36-.57,1.84,1.84,0,0,1-.17-.68,2.26,2.26,0,0,1,.12-.8,2.15,2.15,0,0,1,.88-1.18,2.1,2.1,0,0,1,1.46-.28.1.1,0,0,0,.1-.07l.22-.67a.42.42,0,0,1,.21-.24.47.47,0,0,1,.33,0,.4.4,0,0,1,.24.22.4.4,0,0,1,0,.32l-.21.64a.07.07,0,0,0,0,.1,3.79,3.79,0,0,1,1.31,1.06.51.51,0,0,1,.1.38.94.94,0,0,1,0,.09.48.48,0,0,1-.18.26.41.41,0,0,1-.36.08h-.09a.55.55,0,0,1-.23-.17,2.45,2.45,0,0,0-1.17-.87,1.28,1.28,0,0,0-1,0,1,1,0,0,0-.54.67,1.11,1.11,0,0,0,0,.65,1.74,1.74,0,0,0,.3.59,5.82,5.82,0,0,0,.48.54l.55.57a4.6,4.6,0,0,1,.47.62,1.67,1.67,0,0,1,.25.71,1.88,1.88,0,0,1-.08.84,2,2,0,0,1-2.24,1.4s-.08,0-.1.07l-.21.65a.43.43,0,0,1-.54.27.36.36,0,0,1-.24-.21.4.4,0,0,1,0-.32l.22-.65a.1.1,0,0,0,0-.11A2.5,2.5,0,0,1,65.6,111.51Z" fill="#fff"/><rect x="42" y="209.57" width="52.69" height="24.96" rx="0.73" ry="0.73" transform="translate(63.53 454.33) rotate(-161.7)" fill="#828282" stroke="#3a494f" stroke-miterlimit="10" stroke-width="1.23"/><rect x="44.75" y="212.03" width="47.2" height="20.04" rx="0.73" ry="0.73" transform="translate(63.53 454.33) rotate(-161.7)" fill="#fff" stroke="#3a494f" stroke-miterlimit="10" stroke-width="1.05"/><circle cx="68.35" cy="222.05" r="7.67" fill="#27c1ae" stroke="#39484e" stroke-miterlimit="10" stroke-width="1.19"/><path d="M65.6,224.94a.44.44,0,0,1,0-.39.46.46,0,0,1,.23-.27.45.45,0,0,1,.36,0h0a.46.46,0,0,1,.27.21,1.73,1.73,0,0,0,.87.63,1.13,1.13,0,0,0,.85,0,1,1,0,0,0,.51-.61.93.93,0,0,0,0-.52,1.24,1.24,0,0,0-.24-.47c-.11-.14-.24-.29-.39-.46s-.31-.32-.48-.47a3.21,3.21,0,0,1-.46-.51,4,4,0,0,1-.36-.58,1.74,1.74,0,0,1-.17-.68,2.29,2.29,0,0,1,.12-.8,2,2,0,0,1,2.34-1.46c.05,0,.08,0,.1-.07l.22-.66a.47.47,0,0,1,.21-.25.4.4,0,0,1,.32,0,.41.41,0,0,1,.25.21.4.4,0,0,1,0,.32l-.21.64c0,.05,0,.09,0,.1a3.76,3.76,0,0,1,1.32,1.07.49.49,0,0,1,.1.38l0,.09a.58.58,0,0,1-.18.25.45.45,0,0,1-.36.09l-.09,0a.46.46,0,0,1-.23-.16,2.6,2.6,0,0,0-1.17-.88,1.33,1.33,0,0,0-1,0,1.06,1.06,0,0,0-.54.68,1,1,0,0,0,0,.65,1.69,1.69,0,0,0,.3.58c.14.18.3.36.48.55s.37.37.55.57a4.24,4.24,0,0,1,.46.61,1.73,1.73,0,0,1,.26.72,1.78,1.78,0,0,1-.09.84,2,2,0,0,1-.84,1.12,2.12,2.12,0,0,1-1.39.28.08.08,0,0,0-.1.06l-.22.66a.41.41,0,0,1-.53.27.42.42,0,0,1-.24-.21.38.38,0,0,1,0-.33l.22-.64a.09.09,0,0,0,0-.11A2.57,2.57,0,0,1,65.6,224.94Z" fill="#fff"/><path d="M157.27,157.18h0c-24,0-43.47-7.13-43.47-35.61,0-8.82,3.56-43.86,3.56-43.86h79.83s3.56,35,3.56,43.86c0,28.48-19.47,35.61-43.48,35.61h0" fill="#fff" stroke="#3a494f" stroke-miterlimit="10" stroke-width="2.5"/><circle cx="137.6" cy="104.82" r="3.81" fill="#3a494f"/><circle cx="175.14" cy="104.82" r="3.81" fill="#3a494f"/><path d="M155.13,121.81l-15.38,7.86a1.22,1.22,0,0,0-.5,1.69,4.9,4.9,0,0,0,3.93,2.37c5,.59,7.43-4.93,7.43-4.93s3.34.84,5.41-.81a5,5,0,0,0,1.46-5A1.63,1.63,0,0,0,155.13,121.81Z" fill="#3a494f"/><path d="M158.33,112.14,154,119.43a3.06,3.06,0,0,0,.64,3.87l3.69,3.18" fill="#fff" stroke="#3a494f" stroke-miterlimit="10" stroke-width="1.7"/><path d="M160.1,121.81l15.39,7.86a1.21,1.21,0,0,1,.49,1.69,4.86,4.86,0,0,1-3.93,2.37c-5,.59-7.42-4.93-7.42-4.93s-3.34.84-5.42-.81a5,5,0,0,1-1.46-5A1.63,1.63,0,0,1,160.1,121.81Z" fill="#3a494f"/><path d="M132.27,12h50a13.83,13.83,0,0,1,13.83,13.83V70a0,0,0,0,1,0,0H118.44a0,0,0,0,1,0,0V25.82A13.83,13.83,0,0,1,132.27,12Z" fill="#27c1ae" stroke="#3a494f" stroke-miterlimit="10" stroke-width="2.5"/><rect x="104.52" y="67.33" width="105.51" height="17.36" rx="5.05" ry="5.05" fill="#27c1ae" stroke="#3a494f" stroke-miterlimit="10" stroke-width="2.5"/><rect x="186.93" y="18.28" width="52.69" height="24.96" rx="0.73" ry="0.73" transform="translate(389.76 154.38) rotate(-153.2)" fill="#828282" stroke="#3a494f" stroke-miterlimit="10" stroke-width="1.23"/><rect x="189.68" y="20.74" width="47.2" height="20.04" rx="0.73" ry="0.73" transform="translate(389.76 154.38) rotate(-153.2)" fill="#fff" stroke="#3a494f" stroke-miterlimit="10" stroke-width="1.05"/><circle cx="213.27" cy="30.76" r="7.67" fill="#27c1ae" stroke="#39484e" stroke-miterlimit="10" stroke-width="1.19"/><path d="M210.08,33.26a.46.46,0,0,1,0-.38.53.53,0,0,1,.27-.24.48.48,0,0,1,.37,0l0,0a.47.47,0,0,1,.24.24,1.67,1.67,0,0,0,.77.76,1.17,1.17,0,0,0,.84.12,1,1,0,0,0,.6-.54,1,1,0,0,0,.1-.51,1.23,1.23,0,0,0-.16-.49,10.12,10.12,0,0,0-.73-1.05,3.87,3.87,0,0,1-.38-.58,3.76,3.76,0,0,1-.27-.62,1.57,1.57,0,0,1-.06-.69,2.11,2.11,0,0,1,.23-.78,2.19,2.19,0,0,1,1-1,2.22,2.22,0,0,1,1.49-.06.08.08,0,0,0,.11-.05l.32-.63a.42.42,0,0,1,.24-.21.44.44,0,0,1,.32,0,.4.4,0,0,1,.22.24.47.47,0,0,1,0,.33l-.3.59c0,.05,0,.09,0,.11a3.92,3.92,0,0,1,1.14,1.25.48.48,0,0,1,0,.39l0,.08a.49.49,0,0,1-.22.23.41.41,0,0,1-.36,0,.16.16,0,0,1-.09,0,.48.48,0,0,1-.21-.19,2.49,2.49,0,0,0-1-1.05,1.27,1.27,0,0,0-.94-.15A1,1,0,0,0,213,29a1.2,1.2,0,0,0-.12.64,1.75,1.75,0,0,0,.21.62,5,5,0,0,0,.4.62c.15.21.31.42.45.64a4.47,4.47,0,0,1,.37.67,1.86,1.86,0,0,1,.15.75,1.82,1.82,0,0,1-.21.82,2,2,0,0,1-1,1,2.05,2.05,0,0,1-1.41.06.09.09,0,0,0-.1.05l-.32.62a.36.36,0,0,1-.24.21.4.4,0,0,1-.32,0,.37.37,0,0,1-.21-.25.4.4,0,0,1,0-.32l.31-.61a.08.08,0,0,0,0-.11A2.58,2.58,0,0,1,210.08,33.26Z" fill="#fff"/></g></svg>