<svg id="圖層_2" data-name="圖層 2" xmlns="http://www.w3.org/2000/svg" viewBox="0 0 170.23 178.88"><title>go</title><path d="M72.52,80.15V68.66H63.45a.57.57,0,0,1-.6-.6c0-.25.6-5.44.6-5.44.06-.37.24-.61.61-.61H80.38a.57.57,0,0,1,.6.61V85.29c0,.3-.24.48-.6.6,0,0-5.14,1.81-13.91,1.81-18.13,0-19.95-13-19.95-21.76s1.76-21.76,19.95-21.76A40.86,40.86,0,0,1,77.36,46a1,1,0,0,1,.6.6s.61,5.81.61,6a.57.57,0,0,1-.61.6c-.6,0-6.65-2.41-11.49-2.41-9.67,0-11.18,9.37-11.18,15.11S56.8,81.05,66.47,81.05A24.3,24.3,0,0,0,72.52,80.15Z" fill="#fff"/><path d="M108,44.18c14.81,0,19.34,9.73,19.34,21.76S122.76,87.7,108,87.7,88.6,78,88.6,65.94,93.13,44.18,108,44.18Zm0,36.87c8.46,0,10.58-7.25,10.58-15.11S116.41,50.83,108,50.83,97.37,58.08,97.37,65.94,99.48,81.05,108,81.05Z" fill="#fff"/><path d="M120.12,121.82,99.29,105.94a1.12,1.12,0,0,0-1.8.9v10.35H60.21a6.5,6.5,0,0,0-6.5,6.5h0a6.5,6.5,0,0,0,6.5,6.5H97.49v10.36a1.12,1.12,0,0,0,1.8.89l20.83-15.87a2.35,2.35,0,0,0,.93-1.88h0A2.35,2.35,0,0,0,120.12,121.82Z" fill="#fff"/></svg>