<svg xmlns="http://www.w3.org/2000/svg" viewBox="0 0 72.69 112"><title>question</title><g id="圖例們"><circle cx="34.96" cy="93.25" r="8.12" fill="#27c1ae" stroke="#3a494f" stroke-miterlimit="10" stroke-width="2.76"/><path d="M52.19,15.89l-.78-.5a30.85,30.85,0,0,0-32.91,0L14.69,17.8a7.32,7.32,0,0,0-2.28,10.1h0a7.33,7.33,0,0,0,10.11,2.28l3-1.9a17.69,17.69,0,0,1,18.88,0h0a5.11,5.11,0,0,1,2.39,4.33h0a5.11,5.11,0,0,1-2.39,4.32L32.67,44.35a11.85,11.85,0,0,0-5.53,10V71.06a7.33,7.33,0,0,0,7.32,7.32h0a7.32,7.32,0,0,0,7.34-7.32V60.21a7.81,7.81,0,0,1,3.63-6.6l6.77-4.29a19.77,19.77,0,0,0,9.21-16.71h0A19.76,19.76,0,0,0,52.19,15.89Z" fill="#27c1ae" stroke="#3a494f" stroke-miterlimit="10" stroke-width="2.76"/></g></svg>